<svg xmlns="http://www.w3.org/2000/svg" version="1.1" viewBox="0 0 517.12 512" style="max-height: 500px" width="517.12" height="512">
<path transform="translate(149.75,82.0625)" fill="#FAC793" d="M0 0 C8.81895141 7.38294516 12.02423625 17.08866406 13.1015625 28.21484375 C13.17503906 29.06755859 13.17503906 29.06755859 13.25 29.9375 C13.60191406 29.35742188 13.95382813 28.77734375 14.31640625 28.1796875 C19.87312257 19.38759849 25.51990827 14.23563538 35.5625 11.25 C45.06030742 10.14560379 53.45182954 10.95372302 61.546875 16.515625 C70.15773476 23.70213202 74.03531444 31.03923362 75.1015625 42.1796875 C75.15054688 42.75976562 75.19953125 43.33984375 75.25 43.9375 C75.74306641 42.97650391 75.74306641 42.97650391 76.24609375 41.99609375 C80.72689717 33.84807452 86.79959976 27.27956894 95.89453125 24.375 C105.08632383 22.66773504 114.11180295 23.13950209 122.25 27.9375 C129.95723286 33.3067363 134.61050357 39.96537272 137.25 48.9375 C137.50726891 51.83034992 137.50726891 51.83034992 137.51742554 54.89753723 C137.53022049 56.65265121 137.53022049 56.65265121 137.54327393 58.44322205 C137.54236755 59.71339676 137.54146118 60.98357147 137.54052734 62.29223633 C137.54651755 63.65468716 137.55332423 65.0171346 137.56088257 66.37957764 C137.57851375 70.07241302 137.58323712 73.76515562 137.58451414 77.45802903 C137.58593955 79.77285289 137.59021681 82.08765348 137.59550858 84.40247154 C137.61400927 92.50099547 137.62218038 100.59945369 137.62060547 108.69799805 C137.61940861 116.20735807 137.64042083 123.71642855 137.6720928 131.22571546 C137.69841051 137.69994747 137.70896612 144.17408596 137.70769465 150.64837092 C137.70718893 154.50263598 137.712651 158.35664442 137.73405075 162.21085548 C137.83742845 182.2514429 137.64248571 200.3329305 127.73828125 218.36328125 C127.35236816 219.07307129 126.96645508 219.78286133 126.56884766 220.51416016 C126.13362793 221.3138623 125.6984082 222.11356445 125.25 222.9375 C123.57035554 226.06369328 121.90036201 229.19452023 120.24194336 232.33203125 C119.1124912 234.46714698 117.97201697 236.59648264 116.81860352 238.71875 C109.94235554 251.67107806 107.16223696 263.92187468 106.93359375 278.4609375 C106.9024221 280.11290634 106.9024221 280.11290634 106.87062073 281.79824829 C106.8054381 285.30293773 106.74638603 288.80769966 106.6875 292.3125 C106.64428502 294.6940178 106.60066978 297.07552837 106.55664062 299.45703125 C106.44978888 305.2837784 106.34796533 311.11059703 106.25 316.9375 C107.21856934 316.92009766 108.18713867 316.90269531 109.18505859 316.88476562 C111.08505615 316.86446289 111.08505615 316.86446289 113.0234375 316.84375 C114.28075684 316.82634766 115.53807617 316.80894531 116.83349609 316.79101562 C121.20955991 316.97864163 123.22310458 317.75129429 126.25 320.9375 C129.87930372 326.52936078 130.83179058 331.34333412 130.75170898 337.92041016 C130.75981346 339.20980751 130.75981346 339.20980751 130.76808167 340.5252533 C130.7805033 343.34271571 130.76412478 346.15914325 130.74609375 348.9765625 C130.74624886 350.94615736 130.74773987 352.91575253 130.75050354 354.88534546 C130.75188449 359.00247783 130.73937803 363.11926053 130.71655273 367.23632812 C130.68813173 372.50664133 130.69091971 377.77637564 130.70364285 383.04673195 C130.71060475 387.1097201 130.70280548 391.17257498 130.69038582 395.23554611 C130.68587895 397.17876041 130.68552782 399.12198905 130.68945122 401.06520462 C130.69236941 403.7815602 130.67582879 406.49712358 130.65405273 409.21337891 C130.66080521 410.41049248 130.66080521 410.41049248 130.66769409 411.63179016 C130.59468432 417.12741804 129.58611939 421.37628577 125.75 425.58203125 C120.34799497 429.78827996 116.41145522 430.08493087 109.76737976 430.07794189 C108.89108612 430.08091302 108.01479249 430.08388414 107.1119445 430.0869453 C104.16405694 430.09564418 101.21620994 430.09714155 98.26831055 430.09863281 C96.1594026 430.10326013 94.05049549 430.10828467 91.94158936 430.11367798 C86.20394414 430.12681196 80.46631062 430.13324884 74.72865272 430.13768864 C71.14572285 430.14061764 67.56279619 430.14472211 63.97986794 430.14919281 C52.77468559 430.16287012 41.56951057 430.17253574 30.36432046 430.1763947 C17.42025844 430.18087674 4.47630196 430.19843048 -8.46772796 430.2273953 C-18.46695241 430.24899552 -28.46614714 430.25909809 -38.46539468 430.26043582 C-44.44036836 430.261485 -50.41524287 430.2674169 -56.39019203 430.28525543 C-62.01015544 430.30170745 -67.62994483 430.30390552 -73.24992371 430.29511642 C-75.31309665 430.29434452 -77.37627883 430.29870884 -79.43942833 430.30857468 C-82.25530347 430.32125073 -85.07055824 430.31544092 -87.88642883 430.30499268 C-89.11197455 430.31707728 -89.11197455 430.31707728 -90.36227876 430.32940602 C-95.90047347 430.28132357 -100.15278951 429.30645209 -104.39453125 425.4375 C-108.57048099 420.07440736 -108.90506472 416.1529947 -108.92700195 409.55395508 C-108.93357315 408.69829956 -108.94014435 407.84264404 -108.94691467 406.96105957 C-108.966641 404.12638256 -108.97830992 401.29175857 -108.98828125 398.45703125 C-108.99235678 397.48786963 -108.9964323 396.518708 -109.00063133 395.52017784 C-109.02149105 390.3886982 -109.03579218 385.25724529 -109.04516602 380.12573242 C-109.05621928 374.83416194 -109.09060707 369.54301327 -109.13033772 364.25159168 C-109.15652828 360.17568702 -109.16486012 356.09988239 -109.16844749 352.02390099 C-109.17330855 350.07393234 -109.18490879 348.12396802 -109.20348549 346.1740818 C-109.22792475 343.43839091 -109.22690303 340.70378502 -109.2199707 337.96801758 C-109.23278076 337.16927719 -109.24559082 336.3705368 -109.25878906 335.54759216 C-109.20702261 329.91514663 -107.86717282 325.65688888 -104.75 320.9375 C-101.11607895 317.38184802 -98.27340091 316.7050469 -93.3515625 316.546875 C-91.35899838 316.57326658 -89.36661843 316.62068441 -87.375 316.6875 C-86.35277344 316.70554687 -85.33054688 316.72359375 -84.27734375 316.7421875 C-81.76725251 316.78910509 -79.25912236 316.85473271 -76.75 316.9375 C-76.7946128 310.6605559 -76.8649174 304.3845742 -76.95751953 298.1081543 C-76.98548596 295.97965212 -77.00681946 293.85105079 -77.02099609 291.72241211 C-77.13097549 276.13099997 -78.02084356 262.2503912 -85.25 248.125 C-85.58112793 247.47740723 -85.91225586 246.82981445 -86.25341797 246.16259766 C-89.47943014 240.05543795 -93.3200629 234.34987924 -97.36132812 228.75463867 C-105.45526056 217.24353898 -109.13977613 203.98644319 -112.67578125 190.55859375 C-113.11235056 188.93125077 -113.54980199 187.3041442 -113.98808289 185.67726135 C-115.12636127 181.44197283 -116.25193688 177.2034108 -117.37493896 172.96405029 C-118.29565904 169.49702633 -119.22546149 166.03246887 -120.15571308 162.56799221 C-122.07846371 155.40649175 -123.99555993 148.24344894 -125.89575195 141.07592773 C-126.39822197 139.18401955 -126.39822197 139.18401955 -126.9108429 137.25389099 C-130.115416 124.58925727 -129.37906344 114.11551207 -122.875 102.625 C-120.75 99.9375 -120.75 99.9375 -117.65869141 97.59301758 C-113.79112346 93.72802634 -114.05068115 89.73990795 -114.02035522 84.49308777 C-114.04199738 83.26173599 -114.06363953 82.03038422 -114.0859375 80.76171875 C-114.07948888 78.80599481 -114.07301882 76.85027068 -114.06531715 74.89455128 C-114.06150286 72.16281629 -114.08418698 69.4315687 -114.10760498 66.69995117 C-114.14757019 61.93273319 -114.16899415 57.16576624 -114.15542603 52.39839172 C-114.15087104 49.86513546 -114.16538057 47.33175108 -114.20175171 44.79875183 C-114.1986082 34.44300028 -111.75067139 27.31963042 -104.671875 19.7265625 C-97.68058754 13.21841279 -89.90053563 10.44537693 -80.36328125 10.69140625 C-71.24634897 11.54995144 -63.92768919 15.0498767 -57.95703125 22.03515625 C-56.0088049 24.58497268 -54.18659136 27.06431729 -52.75 29.9375 C-52.67523438 29.13828125 -52.60046875 28.3390625 -52.5234375 27.515625 C-51.35907804 17.78979891 -48.85922056 8.27091878 -41.375 1.4375 C-28.93036272 -7.89597796 -12.99785336 -9.23130624 0 0 Z"/>
<path transform="translate(404,0)" fill="#FE4645" d="M0 0 C-0.33 1.19625 -0.66 2.3925 -1 3.625 C-4.54916436 20.00773696 0.02567226 33.22379786 8.71191406 47.04150391 C11.65011623 51.50895232 14.8370117 55.80074243 17.99853516 60.11132812 C32.36445812 79.73105062 51.82763263 107.48132736 51 133 C53.67244967 131.99152842 54.80077339 131.35165078 56.23046875 128.828125 C56.54628906 127.97734375 56.86210937 127.1265625 57.1875 126.25 C57.67283203 124.98929688 57.67283203 124.98929688 58.16796875 123.703125 C59.86453544 118.19127454 60.18198271 112.70934793 60.31640625 106.9765625 C60.3475779 105.85729874 60.3475779 105.85729874 60.37937927 104.71542358 C60.4443123 102.35203492 60.50349571 99.98854336 60.5625 97.625 C60.60573884 96.01431265 60.64935477 94.40363537 60.69335938 92.79296875 C60.79993526 88.86208229 60.90135792 84.93109323 61 81 C76.9091115 93.96993257 84.19514146 112.58050692 86.6796875 132.66015625 C89.1821914 161.95375194 85.87316111 191.19666301 66.76953125 214.75 C64.57210681 217.23108508 62.30819033 219.62211299 60 222 C59.38769531 222.68578125 58.77539062 223.3715625 58.14453125 224.078125 C44.29323135 239.08123875 23.25816498 247.33713522 3.13671875 248.28125 C-20.3790246 248.92696549 -41.82558918 242.18453547 -60 227 C-60.99966797 226.21882813 -60.99966797 226.21882813 -62.01953125 225.421875 C-77.68168904 212.69444105 -87.91949262 191.80092363 -90.61328125 171.96484375 C-92.5358757 152.2533956 -87.91807598 134.92923925 -82.22485352 116.26538086 C-78.65672916 104.48327429 -76.65738484 93.57036581 -76.875 81.25 C-76.88402344 80.25484375 -76.89304687 79.2596875 -76.90234375 78.234375 C-76.92553346 75.82264498 -76.95815663 73.41146578 -77 71 C-67.67953462 74.35989047 -62.27896566 81.30793183 -58 90 C-55.07788288 96.71968634 -54.03756375 103.7858803 -53 111 C-52.21618682 109.86300618 -51.44886146 108.71464876 -50.6875 107.5625 C-50.25824219 106.92441406 -49.82898438 106.28632812 -49.38671875 105.62890625 C-45.35716633 97.98978293 -44.20099049 89.91028533 -43.0625 81.4375 C-42.71874694 79.03106408 -42.37366795 76.62481724 -42.02734375 74.21875 C-41.8557373 73.0121875 -41.68413086 71.805625 -41.50732422 70.5625 C-34.60381458 22.08511184 -34.60381458 22.08511184 -17.41015625 7.72265625 C-12.65036375 4.32060035 -6.03823231 0 0 0 Z"/>
<path transform="translate(59.9952392578125,398.4920654296875)" fill="#0592FB" d="M0 0 C0.89519112 -0.00623996 1.79038224 -0.01247993 2.71270037 -0.01890898 C5.70680759 -0.03484028 8.70010087 -0.02223405 11.69421387 -0.00964355 C13.84297663 -0.0150646 15.99173567 -0.02218716 18.14048767 -0.03088379 C23.97308652 -0.04912199 29.8054024 -0.0420474 35.63800621 -0.02936745 C41.74110046 -0.01924245 47.84417043 -0.02863174 53.94726562 -0.03491211 C64.19645539 -0.04218995 74.44552988 -0.03259714 84.69470215 -0.0135498 C96.54519467 0.0082191 108.39541192 0.00116784 120.24589777 -0.02085543 C130.41930069 -0.03900545 140.59262073 -0.04156966 150.7660346 -0.03110075 C156.84269059 -0.02486367 162.91921718 -0.0240362 168.99586487 -0.0372467 C174.70869398 -0.04879867 180.42116807 -0.04079102 186.13395882 -0.01766968 C188.23098727 -0.01237915 190.32804559 -0.0139022 192.42506218 -0.02272034 C195.2869524 -0.03364557 198.14770389 -0.0199484 201.00952148 0 C201.84006939 -0.00892289 202.6706173 -0.01784577 203.52633333 -0.02703905 C208.79991844 0.04429802 211.84899505 0.97206726 216.00476074 4.50793457 C220.04627281 9.61777584 220.58321369 15.18788676 220.50646973 21.49084473 C220.5145742 22.78024208 220.5145742 22.78024208 220.52284241 24.09568787 C220.53526404 26.91315028 220.51888552 29.72957782 220.50085449 32.54699707 C220.5010096 34.51659193 220.50250061 36.4861871 220.50526428 38.45578003 C220.50664524 42.5729124 220.49413877 46.6896951 220.47131348 50.8067627 C220.44289247 56.0770759 220.44568045 61.34681021 220.45840359 66.61716652 C220.4653655 70.68015467 220.45756622 74.74300955 220.44514656 78.80598068 C220.44063969 80.74919498 220.44028857 82.69242362 220.44421196 84.63563919 C220.44713015 87.35199477 220.43058953 90.06755815 220.40881348 92.78381348 C220.41556595 93.98092705 220.41556595 93.98092705 220.42245483 95.20222473 C220.34944506 100.69785261 219.34088014 104.94672034 215.50476074 109.15246582 C210.10275571 113.35871453 206.16621596 113.65536544 199.5221405 113.64837646 C198.64584687 113.65134759 197.76955323 113.65431871 196.86670524 113.65737987 C193.91881768 113.66607875 190.97097068 113.66757612 188.02307129 113.66906738 C185.91416334 113.6736947 183.80525623 113.67871924 181.6963501 113.68411255 C175.95870488 113.69724653 170.22107137 113.70368341 164.48341346 113.70812321 C160.90048359 113.71105221 157.31755693 113.71515668 153.73462868 113.71962738 C142.52944633 113.73330469 131.32427132 113.74297031 120.1190812 113.74682927 C107.17501919 113.75131131 94.2310627 113.76886505 81.28703278 113.79782987 C71.28780833 113.81943009 61.28861361 113.82953266 51.28936607 113.83087039 C45.31439239 113.83191957 39.33951787 113.83785147 33.36456871 113.85569 C27.7446053 113.87214202 22.12481591 113.8743401 16.50483704 113.86555099 C14.4416641 113.86477909 12.37848191 113.86914341 10.31533241 113.87900925 C7.49945727 113.8916853 4.6842025 113.88587549 1.86833191 113.87542725 C0.6427862 113.88751185 0.6427862 113.88751185 -0.60751802 113.89984059 C-6.14571273 113.85175814 -10.39802877 112.87688666 -14.63977051 109.00793457 C-18.81572025 103.64484193 -19.15030398 99.72342927 -19.17224121 93.12438965 C-19.17881241 92.26873413 -19.18538361 91.41307861 -19.19215393 90.53149414 C-19.21188026 87.69681713 -19.22354918 84.86219314 -19.23352051 82.02746582 C-19.23759604 81.0583042 -19.24167156 80.08914257 -19.24587059 79.09061241 C-19.2667303 73.95913277 -19.28103144 68.82767986 -19.29040527 63.69616699 C-19.30145853 58.40459651 -19.33584632 53.11344784 -19.37557697 47.82202625 C-19.40176754 43.74612159 -19.41009937 39.67031696 -19.41368675 35.59433556 C-19.41854781 33.64436691 -19.43014804 31.69440259 -19.44872475 29.74451637 C-19.473164 27.00882548 -19.47214229 24.27421959 -19.46520996 21.53845215 C-19.47802002 20.73971176 -19.49083008 19.94097137 -19.50402832 19.11802673 C-19.45376576 13.64921178 -18.45631148 8.87651223 -14.99523926 4.50793457 C-10.01903902 0.27457472 -6.23549696 -0.06699028 0 0 Z"/>
<path transform="translate(401,281)" fill="#6FD940" d="M0 0 C3.13036977 1.38974359 5.25476543 3.0053905 7.66998291 5.42274475 C8.38227051 6.13083786 9.09455811 6.83893097 9.82843018 7.56848145 C10.59951111 8.34518188 11.37059204 9.12188232 12.16503906 9.92211914 C13.39486511 11.14909767 13.39486511 11.14909767 14.64953613 12.40086365 C17.35981065 15.10743154 20.06281502 17.82113572 22.765625 20.53515625 C24.6428454 22.41356837 26.52040678 24.29163386 28.39837646 26.16929626 C32.33247973 30.10433535 36.26269391 34.0432249 40.19042969 37.98461914 C44.73713383 42.54707521 49.28907023 47.10425681 53.84402299 51.65847689 C58.22261009 56.03645472 62.59833841 60.41727754 66.97246552 64.79971123 C68.83629672 66.66673575 70.70074407 68.53314539 72.56580353 70.39894295 C75.16391504 72.99920936 77.75871442 75.60273366 80.35253906 78.20727539 C81.13171692 78.98600006 81.91089478 79.76472473 82.71368408 80.56704712 C83.41469238 81.2723204 84.11570068 81.97759369 84.83795166 82.70423889 C85.75932608 83.62812707 85.75932608 83.62812707 86.69931412 84.57067966 C88 86 88 86 88 87 C70.51 87 53.02 87 35 87 C35 134.52 35 182.04 35 231 C12.56 231 -9.88 231 -33 231 C-33 183.48 -33 135.96 -33 87 C-50.49 87 -67.98 87 -86 87 C-79.25 79.125 -79.25 79.125 -76.24136353 76.12110901 C-75.55998322 75.43835403 -74.87860291 74.75559906 -74.17657471 74.05215454 C-73.45008728 73.32926239 -72.72359985 72.60637024 -71.97509766 71.86157227 C-71.19393585 71.08026443 -70.41277405 70.2989566 -69.60794067 69.49397278 C-67.04567983 66.9324042 -64.47990363 64.37438812 -61.9140625 61.81640625 C-60.12879956 60.03300993 -58.34375842 58.24939154 -56.55892944 56.46556091 C-52.35355877 52.26360797 -48.14596893 48.06388593 -43.93727815 43.86525911 C-39.14201069 39.08120723 -34.34961586 34.29428207 -29.55744863 29.50712502 C-19.70813696 19.66823821 -9.85526086 9.83292745 0 0 Z"/>
<path transform="translate(157.8125,141.1875)" fill="#E2B485" d="M0 0 C9.88039186 6.76404734 17.74453385 16.76226673 20.5625 28.5625 C20.82097039 30.30580027 21.02437851 32.05770823 21.1875 33.8125 C21.29320312 34.93398437 21.39890625 36.05546875 21.5078125 37.2109375 C22.01068345 47.64004374 19.26371654 55.37284064 15.1875 64.8125 C14.8575 65.8025 14.5275 66.7925 14.1875 67.8125 C22.77532703 73.79657096 30.66468893 75.97191712 41.1875 74.8125 C49.30346943 72.81048095 56.34058821 68.51388868 60.72265625 61.27734375 C61.96504267 58.81792573 63.09470123 56.34118552 64.1875 53.8125 C64.8459799 52.47510461 65.50986734 51.14029373 66.1875 49.8125 C66.22617187 51.15441406 66.22617187 51.15441406 66.265625 52.5234375 C66.74085293 62.65443282 68.17033935 71.5558245 75.28125 79.2109375 C82.45270886 85.23613859 90.3540682 88.20645322 99.6484375 88.09765625 C106.66912502 87.30917904 112.95933798 84.53471086 118.1875 79.8125 C118.8475 79.8125 119.5075 79.8125 120.1875 79.8125 C121.26715525 77.65818791 122.34089947 75.50127608 123.40625 73.33984375 C123.8290625 72.48519531 124.251875 71.63054687 124.6875 70.75 C125.1103125 69.89277344 125.533125 69.03554687 125.96875 68.15234375 C127.1875 65.8125 127.1875 65.8125 129.1875 62.8125 C129.1875 73.0425 129.1875 83.2725 129.1875 93.8125 C116.4560308 101.65714264 104.55314058 106.69032212 89.1875 104.8125 C77.8654768 102.11618576 68.0152333 96.48793714 60.1875 87.8125 C60.1875 87.1525 60.1875 86.4925 60.1875 85.8125 C59.29546875 86.16183594 58.4034375 86.51117188 57.484375 86.87109375 C56.31390625 87.32613281 55.1434375 87.78117187 53.9375 88.25 C52.77734375 88.70246094 51.6171875 89.15492188 50.421875 89.62109375 C39.07861634 93.79946802 26.16177752 93.1407618 15.1328125 88.4140625 C12.04345776 86.73417465 9.42052438 84.75151 6.625 82.625 C4.01461302 80.73738614 4.01461302 80.73738614 1.1875 79.8125 C-2.09522846 80.67563119 -4.50054787 82.13958509 -7.390625 83.9140625 C-11.38679742 86.13111706 -15.22527721 87.29368353 -19.625 88.4375 C-20.38699707 88.63786865 -21.14899414 88.8382373 -21.93408203 89.04467773 C-23.46898456 89.44358354 -25.00496047 89.83838247 -26.54199219 90.22900391 C-28.76654484 90.80069002 -30.98135401 91.40040185 -33.1953125 92.01171875 C-43.39404422 94.8125 -43.39404422 94.8125 -46.8125 94.8125 C-46.52375 95.93269531 -46.235 97.05289063 -45.9375 98.20703125 C-45.56231309 99.67963989 -45.18732335 101.15229878 -44.8125 102.625 C-44.62171875 103.36298828 -44.4309375 104.10097656 -44.234375 104.86132812 C-43.45987086 107.91785341 -42.8125 110.64623478 -42.8125 113.8125 C-41.82636719 113.76867187 -40.84023437 113.72484375 -39.82421875 113.6796875 C-35.51391427 113.68618381 -31.72594793 114.6845367 -27.625 115.9375 C-26.8825 116.16195801 -26.14 116.38641602 -25.375 116.61767578 C-14.89531934 119.90954438 -6.19383776 124.73311762 2.1875 131.8125 C2.77917969 132.25980469 3.37085938 132.70710937 3.98046875 133.16796875 C17.85869942 143.99743479 26.24691816 162.29084263 28.53515625 179.4140625 C28.7937564 183.48535722 28.72900421 185.15950963 26.0625 188.375 C22.67910462 190.06669769 20.91925586 190.43445931 17.1875 189.8125 C13.76312852 187.70440344 12.39646024 186.55203754 11.2890625 182.6328125 C11.13179687 181.41335938 10.97453125 180.19390625 10.8125 178.9375 C8.43221117 164.26802763 0.32332833 150.78858585 -11.6875 141.9375 C-25.22478242 133.2051172 -38.98473988 130.43955607 -54.8125 129.8125 C-58.2354667 118.25572165 -61.64472991 106.69226388 -64.8125 95.0625 C-65.14157349 93.89497192 -65.14157349 93.89497192 -65.47729492 92.70385742 C-66.46962186 88.99329159 -66.94647386 86.47969048 -65.8125 82.8125 C-65.21638916 82.65851746 -64.62027832 82.50453491 -64.00610352 82.34588623 C-57.77352683 80.73404875 -51.54432631 79.10962675 -45.31689453 77.47802734 C-42.99578851 76.87163557 -40.67385487 76.26840221 -38.35107422 75.66845703 C-35.0026275 74.80299909 -31.65737203 73.92603376 -28.3125 73.046875 C-27.2819751 72.78316101 -26.2514502 72.51944702 -25.18969727 72.2477417 C-15.03610094 69.55539911 -6.35989732 66.16861182 -0.625 56.9375 C4.05226988 48.67712877 5.66969404 41.34480428 3.53515625 31.9375 C0.67908788 23.11188102 -3.75303947 17.1266336 -12.0625 12.875 C-26.82164694 6.11421064 -40.99928727 11.59917353 -55.75 15.8125 C-57.89610553 16.4130241 -60.04267571 17.01189006 -62.18969727 17.60913086 C-65.39804542 18.50227853 -68.60589008 19.39696959 -71.81187439 20.29856873 C-77.96457681 22.02869917 -84.12600006 23.71135597 -90.3125 25.31640625 C-91.00920303 25.49779144 -91.70590607 25.67917664 -92.42372131 25.86605835 C-95.54410207 26.67709081 -98.66615424 27.48082478 -101.79077148 28.27539062 C-107.49643631 29.76564122 -112.78121959 31.47339045 -118.09008789 34.05834961 C-119.8125 34.8125 -119.8125 34.8125 -121.8125 34.8125 C-121.8125 28.8725 -121.8125 22.9325 -121.8125 16.8125 C-113.94837867 13.44216229 -113.94837867 13.44216229 -110.4921875 12.63671875 C-109.72100586 12.45181885 -108.94982422 12.26691895 -108.15527344 12.07641602 C-107.3409082 11.88619873 -106.52654297 11.69598145 -105.6875 11.5 C-98.59229243 9.78788415 -91.56742698 7.92488109 -84.5625 5.875 C-75.87604773 3.34403765 -67.14083664 1.07724851 -58.35058594 -1.06469727 C-54.04778051 -2.11517866 -49.76303695 -3.1683979 -45.5234375 -4.453125 C-29.56722325 -9.22319326 -14.6523348 -8.65453841 0 0 Z"/>
<path transform="translate(402,124)" fill="#FED200" d="M0 0 C10.79723255 2.45043576 17.361156 9.28037989 23.31640625 18.31640625 C24.14978516 19.64478516 24.14978516 19.64478516 25 21 C25.58652344 21.91652344 26.17304688 22.83304688 26.77734375 23.77734375 C39.43586284 44.4132228 47.46339334 71.77728278 42.31640625 95.96484375 C39.18161972 106.07160363 32.64118693 114.09341945 23.54296875 119.4453125 C12.17039026 125.4129324 -0.56051635 125.7103842 -12.75 122 C-25.43483153 117.28469613 -34.41028576 109.43809576 -40.05957031 97.16845703 C-43.06485675 90.23882201 -44.48352785 84.18969344 -44.3125 76.625 C-44.30049561 75.79427979 -44.28849121 74.96355957 -44.27612305 74.10766602 C-43.99494288 61.84462129 -41.87592404 50.18199039 -33 41 C-32.34 41 -31.68 41 -31 41 C-30.85304688 42.30324219 -30.85304688 42.30324219 -30.703125 43.6328125 C-29.67462228 51.55937657 -28.57031947 56.61759208 -22.625 62.25 C-19.81864154 64.12090564 -17.23758331 65.09648838 -14 66 C-13.8659375 64.98035156 -13.731875 63.96070313 -13.59375 62.91015625 C-11.8005204 51.1007955 -7.75528738 40.43992132 -3.0859375 29.50170898 C-2.70308594 28.60137939 -2.32023437 27.7010498 -1.92578125 26.7734375 C-1.57942627 25.97341309 -1.23307129 25.17338867 -0.8762207 24.34912109 C1.97895944 16.69446984 1.7087555 7.90299417 0 0 Z"/>
<path transform="translate(368,368)" fill="#65C43A" d="M0 0 C6.93 0 13.86 0 21 0 C21.02311788 18.62761158 21.04097865 37.25521912 21.05181217 55.88284206 C21.05697536 64.53135605 21.06401848 73.17986097 21.07543945 81.82836914 C21.08538561 89.36364579 21.09185326 96.89891588 21.09408849 104.43419892 C21.09539572 108.42655852 21.0984823 112.41889936 21.10573006 116.41125298 C21.1124892 120.16467098 21.11461718 123.91806239 21.11310768 127.6714859 C21.11338406 129.05302894 21.11538981 130.43457281 21.11920547 131.81611061 C21.12414099 133.69437145 21.12239796 135.57264638 21.12025452 137.45091248 C21.12117631 138.50452186 21.1220981 139.55813124 21.12304783 140.64366817 C21 143 21 143 20 144 C13.4 144 6.8 144 0 144 C0 96.48 0 48.96 0 0 Z"/>
<path transform="translate(74,383)" fill="#E2B485" d="M0 0 C59.73 0 119.46 0 181 0 C181 5.28 181 10.56 181 16 C121.27 16 61.54 16 0 16 C0 10.72 0 5.44 0 0 Z"/>
<path transform="translate(327,71)" fill="#E73F3E" d="M0 0 C3.70006748 1.29792943 6.27613898 2.81896446 9.1875 5.4375 C9.86167969 6.03433594 10.53585937 6.63117188 11.23046875 7.24609375 C14.82809495 10.81195283 15.31784987 13.19865872 15.375 18.125 C15.10693441 32.76435977 9.99269266 46.77287016 5.73046875 60.6472168 C0.18739829 78.84863971 -0.76184868 99.97579351 6 118 C6.36222656 119.03769531 6.72445313 120.07539063 7.09765625 121.14453125 C14.40921959 140.45201546 29.57548942 156.86223734 48 166 C49.37008644 166.95676427 50.72531075 167.93527267 52.0625 168.9375 C57.56356286 172.7147709 63.60246148 174.31903934 70 176 C70 176.33 70 176.66 70 177 C50.26444455 176.5817127 31.89531532 168.80112248 17 156 C16.33871094 155.48179687 15.67742187 154.96359375 14.99609375 154.4296875 C-0.68219986 141.72750834 -10.92069743 120.79205186 -13.61328125 100.96484375 C-15.5358757 81.2533956 -10.91807598 63.92923925 -5.22485352 45.26538086 C-1.65672916 33.48327429 0.34261516 22.57036581 0.125 10.25 C0.11597656 9.25484375 0.10695313 8.2596875 0.09765625 7.234375 C0.07446654 4.82264498 0.04184337 2.41146578 0 0 Z"/>
<path transform="translate(401,281)" fill="#65C53A" d="M0 0 C3.41059403 1.60535287 5.61792484 3.40518901 8.25 6.125 C8.95640625 6.84945313 9.6628125 7.57390625 10.390625 8.3203125 C11.18726563 9.15175781 11.18726563 9.15175781 12 10 C7.87767999 14.87570836 3.64117415 19.5938275 -0.7578125 24.22045898 C-1.40610016 24.90423111 -2.05438782 25.58800323 -2.72232056 26.29249573 C-8.679087 32.55902001 -14.69582859 38.76701082 -20.73352051 44.95551968 C-24.77495936 49.10048539 -28.79280128 53.26366055 -32.76269531 57.47729492 C-36.62403677 61.57434362 -40.53822365 65.61355451 -44.49359131 69.61982918 C-45.98014201 71.14416666 -47.44754806 72.68744792 -48.89361572 74.25024223 C-60.76551128 87.03751958 -60.76551128 87.03751958 -69.97070312 87.92434692 C-75.3608226 88.08619526 -80.66022114 87.73129854 -86 87 C-81.56256247 81.687124 -76.88042951 76.74262837 -71.97509766 71.86157227 C-71.19393585 71.08026443 -70.41277405 70.2989566 -69.60794067 69.49397278 C-67.04567983 66.9324042 -64.47990363 64.37438812 -61.9140625 61.81640625 C-60.12879956 60.03300993 -58.34375842 58.24939154 -56.55892944 56.46556091 C-52.35355877 52.26360797 -48.14596893 48.06388593 -43.93727815 43.86525911 C-39.14201069 39.08120723 -34.34961586 34.29428207 -29.55744863 29.50712502 C-19.70813696 19.66823821 -9.85526086 9.83292745 0 0 Z"/>
<path transform="translate(404,0)" fill="#E73F3F" d="M0 0 C-0.36740993 4.05069452 -0.76663685 7.7175334 -3.66796875 10.734375 C-4.33441406 11.25515625 -5.00085938 11.7759375 -5.6875 12.3125 C-20.87692678 24.30415272 -23.36957264 48.5273622 -25.48217773 66.44311523 C-25.63243408 67.74063721 -25.78269043 69.03815918 -25.9375 70.375 C-29.5508139 100.00240812 -29.5508139 100.00240812 -37 110 C-37.66 110.99 -38.32 111.98 -39 113 C-39.66 113 -40.32 113 -41 113 C-41.13277344 112.02417969 -41.26554687 111.04835938 -41.40234375 110.04296875 C-41.57894531 108.77066406 -41.75554687 107.49835938 -41.9375 106.1875 C-42.11152344 104.92292969 -42.28554688 103.65835938 -42.46484375 102.35546875 C-42.90392455 99.01678297 -42.90392455 99.01678297 -44 96 C-43.57376209 71.6997291 -41.17830391 36.83094983 -26 17 C-25.19949219 15.93265625 -25.19949219 15.93265625 -24.3828125 14.84375 C-18.79702228 7.94517037 -9.41796373 0 0 0 Z"/>
<path transform="translate(465,81)" fill="#E73F3F" d="M0 0 C1.73386256 1.48069735 3.46546473 2.9637585 5.19189453 4.453125 C6.51435341 5.58451839 7.85863426 6.69054184 9.21484375 7.78125 C13.81492555 12.37090078 14.44868188 16.74166902 14.62329102 23 C14.62887134 32.591777 14.24877142 41.7600461 9.0625 50.125 C7 52 7 52 3 52 C-2.64772986 34.98409286 -0.96493827 17.62074373 0 0 Z"/>
<path transform="translate(384,244)" fill="#EE4A3F" d="M0 0 C1.41805831 0.28482368 2.83440379 0.57818144 4.25 0.875 C5.03890625 1.03742188 5.8278125 1.19984375 6.640625 1.3671875 C9 2 9 2 13 4 C9.04 3.67 5.08 3.34 1 3 C0.67 2.01 0.34 1.02 0 0 Z"/>
</svg>