<svg xmlns="http://www.w3.org/2000/svg" version="1.1" viewBox="0 0 520.192 471.04" style="max-height: 500px" width="520.192" height="471.04">
<path transform="translate(265,57)" fill="#E99E8F" d="M0 0 C11.24533204 33.13624509 17.25223382 69.05517495 2 102 C-2.33396013 110.21061992 -8.30952666 118.9454674 -15.95936584 124.39607239 C-19.08999856 126.72439305 -21.56283683 128.58906924 -22.74412537 132.40164185 C-23.01884149 135.2099421 -23.05646646 137.92498205 -23 140.74609375 C-23.01087646 141.75720718 -23.02175293 142.76832062 -23.03295898 143.81007385 C-23.05902834 147.0203133 -23.0303276 150.22734755 -23 153.4375 C-23.00809525 155.62176123 -23.01977556 157.8060123 -23.03515625 159.99023438 C-23.06494266 165.32740484 -23.04984212 170.66301077 -23 176 C-22.1968335 176.1124707 -21.39366699 176.22494141 -20.56616211 176.34082031 C-11.61209082 177.69324758 -4.41532886 179.94858492 1.875 186.8125 C7.13812135 194.70718203 9.26553401 201.41262111 8 211 C5.57659574 219.47543523 0.53640933 225.55348205 -7.03125 229.97265625 C-12.34858023 232.7473742 -18.17582142 233.78339381 -24 235 C-24.14695313 235.825 -24.29390625 236.65 -24.4453125 237.5 C-29.80383304 265.09330116 -44.10861676 290.49787577 -67.6875 306.55859375 C-69.03722073 307.44172831 -70.39140584 308.318078 -71.75 309.1875 C-72.35682617 309.57969727 -72.96365234 309.97189453 -73.58886719 310.37597656 C-80.18365604 314.43613766 -86.66192934 316.85511258 -94 320 C-94.33 330.23 -94.66 340.46 -95 351 C-91.60203125 350.97679687 -88.2040625 350.95359375 -84.703125 350.9296875 C-81.37679415 350.91404681 -78.05046756 350.90192726 -74.72412109 350.89013672 C-72.42950579 350.8801391 -70.13490303 350.86653657 -67.84033203 350.84912109 C-64.52373134 350.82459643 -61.20730049 350.81345418 -57.890625 350.8046875 C-56.88074524 350.79436493 -55.87086548 350.78404236 -54.8303833 350.77340698 C-38.27918575 350.77085599 -25.17944095 354.33260336 -13.05859375 365.84375 C8.2746623 388.32890972 -1 430.49357734 -1 455 C-85.15 455 -169.3 455 -256 455 C-256 381.29538462 -256 381.29538462 -247 369 C-246.2575 367.96875 -245.515 366.9375 -244.75 365.875 C-235.14353383 355.83187628 -222.67290892 351.62070243 -209.0435791 350.82806396 C-206.06331133 350.77150039 -203.08999804 350.77422081 -200.109375 350.8046875 C-198.50343475 350.80893234 -198.50343475 350.80893234 -196.86505127 350.81326294 C-193.49324684 350.82433067 -190.1217222 350.8494091 -186.75 350.875 C-184.44401429 350.88504716 -182.13802436 350.89416995 -179.83203125 350.90234375 C-174.22116339 350.92251222 -168.61088958 350.96168588 -163 351 C-163 340.44 -163 329.88 -163 319 C-164.65 318.67 -166.3 318.34 -168 318 C-195.45280165 306.09568778 -215.37817862 286.69206235 -227 259 C-230.10925207 250.87901409 -232.53253023 242.72610243 -233 234 C-233.82242188 233.92523438 -234.64484375 233.85046875 -235.4921875 233.7734375 C-245.27065276 232.62170141 -252.67597017 229.92063541 -259.4375 222.5625 C-265.36112081 214.80977248 -266.11835194 207.65653889 -265 198 C-262.5613431 189.66792226 -257.20075301 183.98224998 -249.765625 179.71875 C-244.82145162 177.33190768 -240.43339152 176.58214909 -235 176 C-235.56847656 174.84886719 -236.13695312 173.69773438 -236.72265625 172.51171875 C-245.69828264 154.11324699 -252.0211167 136.10336344 -256 116 C-256.20109375 115.02933594 -256.4021875 114.05867188 -256.609375 113.05859375 C-258.41682492 98.90626089 -258.64942305 84.83912091 -250.4609375 72.72265625 C-243.96388124 64.45507518 -234.50543984 59.61214834 -224.1875 58.3125 C-219.30945332 57.88317268 -214.83819851 58.29768086 -210 59 C-209.62230469 58.21238281 -209.24460938 57.42476562 -208.85546875 56.61328125 C-199.34152489 37.78592161 -186.17019047 25.98593796 -166.01953125 18.9609375 C-159.48665501 17.15235339 -153.15941181 16.79213126 -146.4296875 16.80859375 C-145.05911697 16.81095787 -145.05911697 16.81095787 -143.66085815 16.81336975 C-133.4232303 16.90810092 -123.30093222 17.88603531 -113.125 18.9375 C-109.46131046 19.30457797 -105.79711867 19.66647811 -102.1328125 20.02734375 C-101.2560939 20.11416412 -100.37937531 20.2009845 -99.47608948 20.29043579 C-52.39717582 24.92369289 -52.39717582 24.92369289 -10 7 C-7.84052323 5.14097217 -5.7120233 3.26455508 -3.62890625 1.3203125 C-2 0 -2 0 0 0 Z"/>
<path transform="translate(435,3)" fill="#79BBE7" d="M0 0 C1.84464844 0.52787109 1.84464844 0.52787109 3.7265625 1.06640625 C30.78744526 9.20190731 52.79249932 26.54107504 66.7421875 51.0625 C77.96703698 72.50698856 81.00992983 98.46349895 73.77490234 121.76123047 C64.50355018 148.54708408 45.19973337 169.43997847 19.8125 181.8125 C-8.18703806 194.93692821 -41.60855473 196.11299482 -70.625 185.8125 C-82.54381582 181.33695592 -93.29620074 175.30744199 -103 167 C-103.82113281 166.31164062 -104.64226562 165.62328125 -105.48828125 164.9140625 C-124.03516294 148.87199488 -135.99331267 125.84502649 -137.875 101.3046875 C-137.91625 100.54414062 -137.9575 99.78359375 -138 99 C-138.04125 98.32195312 -138.0825 97.64390625 -138.125 96.9453125 C-138.80679243 74.36093825 -130.82060642 52.02793078 -116 35 C-115.31164062 34.18015625 -114.62328125 33.3603125 -113.9140625 32.515625 C-87.20205344 1.5859303 -39.14861277 -11.80145833 0 0 Z"/>
<path transform="translate(265,57)" fill="#515F74" d="M0 0 C11.24533204 33.13624509 17.25223382 69.05517495 2 102 C-2.20663086 109.96939659 -7.71523514 116.58245841 -14 123 C-14.5671875 123.60328125 -15.134375 124.2065625 -15.71875 124.828125 C-26.83059522 135.63691989 -42.48492376 141.45456903 -57 146 C-57.86367187 146.30421875 -58.72734375 146.6084375 -59.6171875 146.921875 C-101.37494815 161.08194608 -148.36389634 149.62348588 -187 132 C-187.37511719 132.97839844 -187.75023437 133.95679688 -188.13671875 134.96484375 C-194.05055073 150.20186394 -201.10033525 165.84036328 -216.69140625 173.28515625 C-222.66423474 175.71080275 -227.49032256 177.1228241 -234 177 C-245.15676041 158.03046732 -251.89872656 137.55518503 -256 116 C-256.19851563 115.03578125 -256.39703125 114.0715625 -256.6015625 113.078125 C-258.43304688 98.92901037 -258.64695151 84.83546378 -250.4609375 72.72265625 C-243.96388124 64.45507518 -234.50543984 59.61214834 -224.1875 58.3125 C-219.30945332 57.88317268 -214.83819851 58.29768086 -210 59 C-209.62230469 58.21238281 -209.24460938 57.42476562 -208.85546875 56.61328125 C-199.34152489 37.78592161 -186.17019047 25.98593796 -166.01953125 18.9609375 C-159.48665501 17.15235339 -153.15941181 16.79213126 -146.4296875 16.80859375 C-145.05911697 16.81095787 -145.05911697 16.81095787 -143.66085815 16.81336975 C-133.4232303 16.90810092 -123.30093222 17.88603531 -113.125 18.9375 C-109.46131046 19.30457797 -105.79711867 19.66647811 -102.1328125 20.02734375 C-101.2560939 20.11416412 -100.37937531 20.2009845 -99.47608948 20.29043579 C-52.39717582 24.92369289 -52.39717582 24.92369289 -10 7 C-7.84052323 5.14097217 -5.7120233 3.26455508 -3.62890625 1.3203125 C-2 0 -2 0 0 0 Z"/>
<path transform="translate(242,198)" fill="#F8C1AE" d="M0 0 C0 11.55 0 23.1 0 35 C3.96 35.66 7.92 36.32 12 37 C20.07344312 40.28881364 25.32193287 45.46145413 29.3125 53.125 C32.22970023 60.19772219 32.22970023 67.80227781 29.3125 74.875 C25.12968406 82.94914645 19.40073452 87.81672434 11.0625 91.1875 C7.06637893 92.24769539 3.04660415 93.15470936 -1 94 C-1.14695313 94.825 -1.29390625 95.65 -1.4453125 96.5 C-6.80383304 124.09330116 -21.10861676 149.49787577 -44.6875 165.55859375 C-55.02940377 172.36241145 -66.01216985 178.60704401 -78.39453125 180.56640625 C-81.53790463 181.08951636 -84.59120278 181.87259631 -87.6875 182.625 C-100.62758266 185.3848 -113.31729876 185.46825071 -124.6875 178.1875 C-126.13863583 177.14370054 -127.5770307 176.08188302 -129 175 C-129.90878906 174.33871094 -129.90878906 174.33871094 -130.8359375 173.6640625 C-150.61691378 158.17940686 -159.03696639 126.7649464 -162.58538818 103.0831604 C-163.61641204 94.29244753 -163.24060157 85.3458954 -163.1953125 76.51171875 C-163.19157539 74.35553622 -163.18873172 72.19935196 -163.18673706 70.04316711 C-163.17915557 64.40934435 -163.15955507 58.77562718 -163.1373291 53.1418457 C-163.1167516 47.37647937 -163.10771005 41.61109572 -163.09765625 35.84570312 C-163.07630328 24.56375608 -163.04223471 13.28188687 -163 2 C-159.4936531 3.15859148 -156.04240685 4.34116201 -152.63671875 5.76953125 C-113.36559774 22.01320575 -66.71179535 28.72361163 -26 13 C-19.66410353 10.33770144 -6.30986611 0 0 0 Z"/>
<path transform="translate(403,52)" fill="#FEC528" d="M0 0 C3.77221722 0.27912812 5.75666822 2.30345845 8.4375 4.8125 C9.75041016 6.02873047 9.75041016 6.02873047 11.08984375 7.26953125 C12.05019531 8.17058594 13.01054687 9.07164063 14 10 C16.16349659 12.00343684 18.33214569 14.00128037 20.5 16 C21.60292094 17.01816812 22.70578602 18.03639676 23.80859375 19.0546875 C24.34339355 19.54807617 24.87819336 20.04146484 25.42919922 20.54980469 C26.92428062 21.93009433 28.41727479 23.31264377 29.91015625 24.6953125 C31.22306641 25.89800781 31.22306641 25.89800781 32.5625 27.125 C33.32691406 27.82882813 34.09132813 28.53265625 34.87890625 29.2578125 C37.68023575 31.61548727 37.68023575 31.61548727 41 33 C43.51675733 32.06220782 45.62755173 31.08286842 47.9609375 29.80078125 C48.96321884 29.27450386 48.96321884 29.27450386 49.98574829 28.7375946 C52.12374641 27.61071995 54.249208 26.46220719 56.375 25.3125 C57.79869555 24.55646522 59.22316748 23.80189052 60.6484375 23.04882812 C63.28282115 21.6553252 65.91182548 20.25253251 68.53662109 18.84106445 C71.66810718 17.17642773 74.82038025 15.57031422 78 14 C76.81809376 21.53244721 75.10878422 28.91154642 73.31640625 36.31567383 C71.75211943 42.79796666 70.23475452 49.28995699 68.7421875 55.7890625 C68.54325394 56.6548291 68.34432037 57.5205957 68.13935852 58.41259766 C67.32888463 61.94184248 66.51901664 65.47122058 65.71237183 69.00134277 C65.13925363 71.50907232 64.56390664 74.01628246 63.98828125 76.5234375 C63.81759125 77.2738028 63.64690125 78.02416809 63.47103882 78.79727173 C63.3069754 79.51047577 63.14291199 80.22367981 62.97387695 80.95849609 C62.83351517 81.57244232 62.69315338 82.18638855 62.54853821 82.81893921 C61.77387793 85.89909139 60.8725342 88.94613031 60 92 C21.72 92 -16.56 92 -56 92 C-57.88548716 86.97203423 -59.40773159 82.83913192 -60.5078125 77.73828125 C-60.89827759 75.96167114 -60.89827759 75.96167114 -61.29663086 74.14916992 C-61.56999268 72.88306885 -61.84335449 71.61696777 -62.125 70.3125 C-62.72812962 67.56399864 -63.33744665 64.81690226 -63.94921875 62.0703125 C-64.10928909 61.35109116 -64.26935944 60.63186981 -64.4342804 59.89085388 C-66.84409575 49.14232405 -69.51221497 38.45416173 -72.15478516 27.76098633 C-72.43910652 26.60537704 -72.43910652 26.60537704 -72.72917175 25.42642212 C-73.08621457 23.97576981 -73.44525525 22.5256073 -73.80659485 21.07601929 C-75 16.22465812 -75 16.22465812 -75 14 C-70.58470404 15.6524647 -66.46895636 17.74496704 -62.29296875 19.9140625 C-61.56757401 20.28856537 -60.84217926 20.66306824 -60.09480286 21.04891968 C-57.79125386 22.23880445 -55.48936046 23.43185256 -53.1875 24.625 C-51.62055114 25.4351056 -50.05349499 26.24500371 -48.48632812 27.0546875 C-44.65630558 29.03405792 -40.82776411 31.01626592 -37 33 C-29.37329385 26.46794737 -21.83198055 19.87139236 -14.44506836 13.06787109 C-10.85405881 9.76604347 -7.21667479 6.52662445 -3.5234375 3.33984375 C-2.30827165 2.27112096 -1.1442894 1.1442894 0 0 Z"/>
<path transform="translate(130,74)" fill="#3B485B" d="M0 0 C0.495 0.99 0.495 0.99 1 2 C0.16597656 2.27972656 -0.66804688 2.55945313 -1.52734375 2.84765625 C-17.87360541 8.67089494 -26.90355679 18.80487366 -34.34082031 34.18969727 C-43.76104945 54.2775075 -46.01528918 76.97616649 -38.93359375 98.1953125 C-35.03558969 108.2555078 -29.32393273 116.12904257 -21.50390625 123.50390625 C-20.75947266 124.24447266 -20.75947266 124.24447266 -20 125 C-20 125.33 -20 125.66 -20 126 C-25.57187417 125.48898834 -30.27382672 124.39535925 -35.4375 122.1875 C-36.08275635 121.92050293 -36.7280127 121.65350586 -37.39282227 121.37841797 C-42.29947103 119.33618123 -47.16484639 117.20550867 -52 115 C-52.37511719 115.97839844 -52.75023438 116.95679688 -53.13671875 117.96484375 C-59.05055073 133.20186394 -66.10033525 148.84036328 -81.69140625 156.28515625 C-87.66423474 158.71080275 -92.49032256 160.1228241 -99 160 C-110.15676041 141.03046732 -116.89872656 120.55518503 -121 99 C-121.19851562 98.03578125 -121.39703125 97.0715625 -121.6015625 96.078125 C-123.43304688 81.92901037 -123.64695151 67.83546378 -115.4609375 55.72265625 C-108.96388124 47.45507518 -99.50543984 42.61214834 -89.1875 41.3125 C-84.30945332 40.88317268 -79.83819851 41.29768086 -75 42 C-74.62230469 41.21238281 -74.24460938 40.42476562 -73.85546875 39.61328125 C-64.34152489 20.78592161 -51.17019047 8.98593796 -31.01953125 1.9609375 C-20.87787655 -0.84671335 -10.42640744 -0.28834909 0 0 Z"/>
<path transform="translate(170,408)" fill="#505E74" d="M0 0 C6.75859308 -0.05111541 13.51713548 -0.0859063 20.27587891 -0.10986328 C22.57049421 -0.1198609 24.86509697 -0.13346343 27.15966797 -0.15087891 C30.47626866 -0.17540357 33.79269951 -0.18654582 37.109375 -0.1953125 C38.62419464 -0.21079636 38.62419464 -0.21079636 40.1696167 -0.22659302 C56.72081425 -0.22914401 69.82055905 3.33260336 81.94140625 14.84375 C93.12585288 26.63210843 94.31850968 41.03658841 94.1953125 56.5390625 C94.19329834 57.74780029 94.19128418 58.95653809 94.18920898 60.2019043 C94.17881972 64.67630866 94.15089769 69.15065852 94.125 73.625 C94.08375 83.64875 94.0425 93.6725 94 104 C60.67 104 27.34 104 -7 104 C-6.31003748 98.48029984 -5.5047616 93.62553187 -3.9609375 88.37109375 C-3.75953156 87.66843887 -3.55812561 86.965784 -3.35061646 86.24183655 C-2.69808668 83.97194035 -2.03678744 81.70471267 -1.375 79.4375 C-0.91567148 77.84775564 -0.45669027 76.2579109 0.00195312 74.66796875 C2.68587455 65.38942132 5.44627024 56.13647388 8.30175781 46.90917969 C11.61371367 36.14045836 14.65239957 25.29151991 17.71289062 14.44921875 C17.92334015 13.70630081 18.13378967 12.96338287 18.35061646 12.19795227 C18.7490716 10.79104637 19.1458559 9.38366589 19.54074097 7.97575378 C20.88751853 3.22496294 20.88751853 3.22496294 22 1 C14.74 1 7.48 1 0 1 C0 0.67 0 0.34 0 0 Z"/>
<path transform="translate(67.75,407.875)" fill="#3B485B" d="M0 0 C1.28132813 0.00902344 2.56265625 0.01804687 3.8828125 0.02734375 C7.00541221 0.05064673 10.12760025 0.08335946 13.25 0.125 C13.43490494 0.78802628 13.61980988 1.45105255 13.81031799 2.13417053 C15.58610469 8.49985015 17.36455857 14.86477845 19.14573765 21.22895145 C20.06053677 24.49787335 20.97414005 27.76711764 21.88598633 31.03686523 C26.25380833 46.69651693 30.7571114 62.29853821 35.5473938 77.834198 C36.97836732 82.49979446 38.34535872 87.18320869 39.6875 91.875 C40.06938477 93.18404297 40.06938477 93.18404297 40.45898438 94.51953125 C40.69810547 95.35355469 40.93722656 96.18757813 41.18359375 97.046875 C41.4938147 98.12340332 41.4938147 98.12340332 41.81030273 99.22167969 C42.25 101.125 42.25 101.125 42.25 104.125 C8.92 104.125 -24.41 104.125 -58.75 104.125 C-58.8325 93.4825 -58.915 82.84 -59 71.875 C-59.05462402 66.87037598 -59.05462402 66.87037598 -59.11035156 61.76464844 C-59.12204595 59.08789715 -59.132236 56.41113869 -59.140625 53.734375 C-59.15107849 53.05586487 -59.16153198 52.37735474 -59.17230225 51.67828369 C-59.35572589 39.12391315 -57.27419408 28.40420668 -49.75 18.125 C-49.0075 17.09375 -48.265 16.0625 -47.5 15 C-34.53296613 1.4435555 -17.85191892 -0.24224942 0 0 Z"/>
<path transform="translate(81,409)" fill="#F1F0F0" d="M0 0 C16.84190833 -1.80374688 27.60264624 0.8732348 41.57666016 10.37988281 C45.61868458 13.08216713 49.81212752 15.53211692 54 18 C53.45634458 21.98416091 51.56534815 23.78363228 48.74609375 26.546875 C47.89208984 27.39121094 47.03808594 28.23554688 46.15820312 29.10546875 C45.26037109 29.97816406 44.36253906 30.85085938 43.4375 31.75 C42.53580078 32.63816406 41.63410156 33.52632813 40.70507812 34.44140625 C38.47662902 36.63448315 36.24148407 38.82026044 34 41 C35.874707 44.96033192 38.39797085 48.22002097 41.125 51.625 C41.61202393 52.23875488 42.09904785 52.85250977 42.60083008 53.48486328 C44.06351545 55.32623044 45.53114418 57.16355308 47 59 C47.8347348 60.04679576 48.66937767 61.09366483 49.50390625 62.140625 C51.33221927 64.43010463 53.16392523 66.71674369 55 69 C58.83006213 65.31538327 62.17442026 61.44077285 65.4375 57.25 C66.11522461 56.39535156 66.11522461 56.39535156 66.80664062 55.5234375 C70.46624558 50.85160139 73.76076102 45.97037325 77 41 C76.04577148 40.06148193 76.04577148 40.06148193 75.07226562 39.10400391 C72.72011624 36.78588745 70.37249702 34.46337209 68.02783203 32.13769531 C67.01106601 31.13100272 65.99251438 30.12611034 64.97216797 29.12304688 C63.50798782 27.68305629 62.05029795 26.23676744 60.59375 24.7890625 C59.71396484 23.91975098 58.83417969 23.05043945 57.92773438 22.15478516 C56 20 56 20 56 18 C56.7206665 17.5968457 57.44133301 17.19369141 58.18383789 16.77832031 C60.88824353 15.26522633 63.59248914 13.75184684 66.29663086 12.23828125 C68.03031499 11.26801257 69.76417924 10.29806573 71.49804688 9.328125 C72.60341797 8.709375 73.70878906 8.090625 74.84765625 7.453125 C75.92926025 6.85532227 77.01086426 6.25751953 78.12524414 5.64160156 C80.88716555 4.11642294 80.88716555 4.11642294 82.95092773 2.66308594 C88.29108566 -0.98385118 93.73969751 -0.45005322 99.9375 -0.25 C101.53561523 -0.22292969 101.53561523 -0.22292969 103.16601562 -0.1953125 C105.77828929 -0.14845557 108.38866226 -0.08286926 111 0 C108.03483881 12.2783795 104.67800003 24.42407026 101.1875 36.5625 C100.65020669 38.4384705 100.11293473 40.31444711 99.57568359 42.19042969 C96.83662184 51.73478599 94.04818013 61.26015628 91.125 70.75 C87.86694849 81.43640896 84.93955534 92.22163043 82 103 C64.51 103 47.02 103 29 103 C26.999375 96.049375 24.99875 89.09875 22.9375 81.9375 C17.71299106 63.7770729 17.71299106 63.7770729 12.25 45.6875 C9.60905608 37.14410487 7.12244972 28.5601176 4.68713379 19.95620728 C4.2740891 18.49733296 3.85980295 17.0388095 3.44421387 15.58065796 C2.86616671 13.54972029 2.29355747 11.51733138 1.72265625 9.484375 C1.39015869 8.30584961 1.05766113 7.12732422 0.71508789 5.91308594 C0 3 0 3 0 0 Z"/>
<path transform="translate(192,409)" fill="#3B485B" d="M0 0 C8.25 0 16.5 0 25 0 C27.38297872 49.0212766 27.38297872 49.0212766 27 69 C21.26055067 70.98595994 15.522584 72.73847601 9.625 74.1875 C8.92761719 74.36474609 8.23023438 74.54199219 7.51171875 74.72460938 C4.59584861 75.4493794 2.01690342 76 -1 76 C3.87708673 81.72084676 8.9829303 87.13756646 14.3125 92.4375 C15.02728516 93.15615234 15.74207031 93.87480469 16.47851562 94.61523438 C17.16236328 95.29779297 17.84621094 95.98035156 18.55078125 96.68359375 C19.16606689 97.29775146 19.78135254 97.91190918 20.4152832 98.54467773 C21.95375267 100.09170925 21.95375267 100.09170925 24 101 C24 101.66 24 102.32 24 103 C6.51 103 -10.98 103 -29 103 C-28.31003748 97.48029984 -27.5047616 92.62553187 -25.9609375 87.37109375 C-25.75953156 86.66843887 -25.55812561 85.965784 -25.35061646 85.24183655 C-24.69808668 82.97194035 -24.03678744 80.70471267 -23.375 78.4375 C-22.91567148 76.84775564 -22.45669027 75.2579109 -21.99804688 73.66796875 C-19.31412545 64.38942132 -16.55372976 55.13647388 -13.69824219 45.90917969 C-10.38628633 35.14045836 -7.34760043 24.29151991 -4.28710938 13.44921875 C-4.07665985 12.70630081 -3.86621033 11.96338287 -3.64938354 11.19795227 C-3.2509284 9.79104637 -2.8541441 8.38366589 -2.45925903 6.97575378 C-1.11248147 2.22496294 -1.11248147 2.22496294 0 0 Z"/>
<path transform="translate(328,66)" fill="#E9AD19" d="M0 0 C4.41529596 1.6524647 8.53104364 3.74496704 12.70703125 5.9140625 C13.43242599 6.28856537 14.15782074 6.66306824 14.90519714 7.04891968 C17.20874614 8.23880445 19.51063954 9.43185256 21.8125 10.625 C23.37944886 11.4351056 24.94650501 12.24500371 26.51367188 13.0546875 C30.34369442 15.03405792 34.17223589 17.01626592 38 19 C42.44368014 15.21632668 46.81557251 11.37585673 51.10546875 7.41796875 C53.11950289 5.91055763 54.57614653 5.52993293 57 5 C57.50501552 12.15549274 58.00932579 19.31103484 58.51279354 26.46663666 C58.74672328 29.7910951 58.98094352 33.11553246 59.21557617 36.43994141 C59.48676273 40.28283579 59.75712474 44.12578748 60.02734375 47.96875 C60.10967758 49.13297485 60.19201141 50.29719971 60.27684021 51.4967041 C60.89673155 60.32913163 61.44764529 69.16232459 62 78 C47.81 78 33.62 78 19 78 C17.11451284 72.97203423 15.59226841 68.83913192 14.4921875 63.73828125 C14.23187744 62.55387451 13.97156738 61.36946777 13.70336914 60.14916992 C13.43000732 58.88306885 13.15664551 57.61696777 12.875 56.3125 C12.27187038 53.56399864 11.66255335 50.81690226 11.05078125 48.0703125 C10.89071091 47.35109116 10.73064056 46.63186981 10.5657196 45.89085388 C8.15590425 35.14232405 5.48778503 24.45416173 2.84521484 13.76098633 C2.65566727 12.99058014 2.46611969 12.22017395 2.27082825 11.42642212 C1.91378543 9.97576981 1.55474475 8.5256073 1.19340515 7.07601929 C0 2.22465812 0 2.22465812 0 0 Z"/>
<path transform="translate(55,412)" fill="#505E74" d="M0 0 C0.40922092 22.38438412 -0.7759092 44.65708736 -2 67 C-0.18628906 67.21064087 -0.18628906 67.21064087 1.6640625 67.42553711 C4.95851841 67.83820467 8.14612879 68.40436889 11.375 69.19140625 C12.29667969 69.41376953 13.21835938 69.63613281 14.16796875 69.86523438 C15.10253906 70.09533203 16.03710938 70.32542969 17 70.5625 C18.44826172 70.91344727 18.44826172 70.91344727 19.92578125 71.27148438 C22.28484017 71.84373134 24.64284292 72.41997829 27 73 C26.18402344 73.93972656 25.36804688 74.87945312 24.52734375 75.84765625 C22.65950475 78.00712406 20.86133206 80.1818139 19.12939453 82.45263672 C6.50348065 98.89991579 6.50348065 98.89991579 -2.84254456 100.76808167 C-6.98401123 101.04890977 -11.08465861 100.8408033 -15.22265625 100.59765625 C-16.66330847 100.54956116 -18.10411774 100.50595281 -19.54504395 100.46691895 C-23.03335948 100.36282976 -26.51563491 100.19861187 -30 100 C-30.11649449 91.34126343 -30.20501633 82.68280178 -30.25906086 74.02344894 C-30.28501615 70.00135112 -30.32015138 65.97979435 -30.37719727 61.95800781 C-30.4320266 58.06758657 -30.46152595 54.17768155 -30.47438622 50.28690338 C-30.48353587 48.81188087 -30.50139999 47.33688259 -30.52865028 45.86208344 C-30.7597593 32.82075355 -28.02969665 21.78386996 -19 12 C-6.93382353 0 -6.93382353 0 0 0 Z"/>
<path transform="translate(180.9375,408.75)" fill="#E5E5E5" d="M0 0 C1.59811523 0.02707031 1.59811523 0.02707031 3.22851562 0.0546875 C5.84078929 0.10154443 8.45116226 0.16713074 11.0625 0.25 C8.09733881 12.5283795 4.74050003 24.67407026 1.25 36.8125 C0.71270669 38.6884705 0.17543473 40.56444711 -0.36181641 42.44042969 C-3.35203283 52.85994322 -6.41203707 63.25324925 -9.62060547 73.60791016 C-12.64401277 83.41840417 -15.30114078 93.32961885 -17.9375 103.25 C-22.07131616 99.28491103 -25.6710726 95.03008701 -29.25 90.5625 C-30.39433224 89.13525708 -31.53886333 87.70817357 -32.68359375 86.28125 C-33.23644043 85.59160156 -33.78928711 84.90195312 -34.35888672 84.19140625 C-35.74491358 82.48684615 -37.15740864 80.81495277 -38.59765625 79.15625 C-39.32855469 78.3003125 -40.05945313 77.444375 -40.8125 76.5625 C-41.76769531 75.47388672 -41.76769531 75.47388672 -42.7421875 74.36328125 C-43.9375 72.25 -43.9375 72.25 -43.9453125 69.859375 C-42.59874526 66.37291408 -40.41032224 63.91817562 -37.9375 61.1875 C-32.59539051 55.10071682 -27.71108723 48.7915825 -22.9375 42.25 C-27.92378499 36.26179794 -33.30650388 30.83516478 -38.8984375 25.41601562 C-39.548125 24.77728516 -40.1978125 24.13855469 -40.8671875 23.48046875 C-41.45741699 22.90707764 -42.04764648 22.33368652 -42.65576172 21.74291992 C-43.9375 20.25 -43.9375 20.25 -43.9375 18.25 C-43.2168335 17.8468457 -42.49616699 17.44369141 -41.75366211 17.02832031 C-39.04925647 15.51522633 -36.34501086 14.00184684 -33.64086914 12.48828125 C-31.90718501 11.51801257 -30.17332076 10.54806573 -28.43945312 9.578125 C-26.78139648 8.65 -26.78139648 8.65 -25.08984375 7.703125 C-24.00823975 7.10532227 -22.92663574 6.50751953 -21.81225586 5.89160156 C-19.05033445 4.36642294 -19.05033445 4.36642294 -16.98657227 2.91308594 C-11.64641434 -0.73385118 -6.19780249 -0.20005322 0 0 Z"/>
<path transform="translate(81,409)" fill="#E5E4E4" d="M0 0 C16.84190833 -1.80374688 27.60264624 0.8732348 41.57666016 10.37988281 C45.61868458 13.08216713 49.81212752 15.53211692 54 18 C53.41968125 21.57696762 52.1345593 23.2327009 49.58178711 25.75878906 C48.86111557 26.47923401 48.14044403 27.19967896 47.39793396 27.94195557 C46.61563919 28.70876648 45.83334442 29.47557739 45.02734375 30.265625 C44.22970108 31.05902283 43.43205841 31.85242065 42.61024475 32.66986084 C40.05961153 35.20369398 37.49874774 37.72690105 34.9375 40.25 C33.20699858 41.9654564 31.4771722 43.68159405 29.74804688 45.3984375 C25.50650094 49.60689643 21.25650702 53.80667651 17 58 C14.64260408 55.64260408 14.29607299 54.14315947 13.39599609 50.95532227 C13.09583588 49.90405655 12.79567566 48.85279083 12.48641968 47.76966858 C12.16863556 46.63009201 11.85085144 45.49051544 11.5234375 44.31640625 C11.19332672 43.14996078 10.86321594 41.98351532 10.52310181 40.78172302 C9.82571209 38.31199808 9.13157747 35.84135205 8.44042969 33.36987305 C7.37977302 29.57955667 6.30791351 25.79254487 5.234375 22.00585938 C4.55922798 19.60956306 3.88472708 17.2130846 3.2109375 14.81640625 C2.88910492 13.67885391 2.56727234 12.54130157 2.23568726 11.36927795 C1.94183136 10.31486008 1.64797546 9.2604422 1.34521484 8.17407227 C1.08477386 7.2452272 0.82433289 6.31638214 0.55599976 5.35939026 C0 3 0 3 0 0 Z"/>
<path transform="translate(241,233)" fill="#EA9E8F" d="M0 0 C10.67186408 1.64182524 18.60406574 2.90260486 25.875 10.8125 C31.13812135 18.70718203 33.26553401 25.41262111 32 35 C29.57801461 43.47047296 24.54055845 49.56127941 16.96875 53.96875 C11.20373592 56.98851928 6.71609453 57.25376727 0 58 C0 38.86 0 19.72 0 0 Z"/>
<path transform="translate(159,452)" fill="#F1F0F0" d="M0 0 C4.10475678 1.68194912 7.17255586 4.51607558 10.375 7.5 C10.94605469 7.97953125 11.51710937 8.4590625 12.10546875 8.953125 C14.40071126 11.11992328 15.94688869 12.73930519 16.08349609 15.98193359 C15.58259313 18.73244348 14.81480088 21.32415266 14 24 C13.6205826 25.39035977 13.24613086 26.78208004 12.87548828 28.17480469 C11.58274793 33.00319855 10.23083217 37.81401307 8.875 42.625 C8.40200626 44.31370759 7.92934721 46.00250897 7.45703125 47.69140625 C6.30854464 51.7953626 5.1555316 55.89802197 4 60 C1.17394077 57.21875617 -1.56306658 54.45202573 -4.05078125 51.36328125 C-4.58106934 50.7081958 -5.11135742 50.05311035 -5.65771484 49.37817383 C-6.20379395 48.69650146 -6.74987305 48.0148291 -7.3125 47.3125 C-8.45683224 45.88525708 -9.60136333 44.45817357 -10.74609375 43.03125 C-11.29894043 42.34160156 -11.85178711 41.65195312 -12.42138672 40.94140625 C-13.80741358 39.23684615 -15.21990864 37.56495277 -16.66015625 35.90625 C-17.39105469 35.0503125 -18.12195313 34.194375 -18.875 33.3125 C-19.51179687 32.58675781 -20.14859375 31.86101562 -20.8046875 31.11328125 C-22 29 -22 29 -22.015625 26.62109375 C-20.63968696 23.07011518 -18.38819357 20.54045718 -15.875 17.75 C-14.87086208 16.60420691 -13.86826081 15.45706535 -12.8671875 14.30859375 C-12.37702148 13.74897949 -11.88685547 13.18936523 -11.38183594 12.61279297 C-8.92898067 9.74997284 -6.68317604 6.73307971 -4.4375 3.70703125 C-3 2 -3 2 0 0 Z"/>
<path transform="translate(136,428)" fill="#F64967" d="M0 0 C5.43733055 4.52991796 10.46458931 9.34294216 15.4375 14.375 C16.53481445 15.47908203 16.53481445 15.47908203 17.65429688 16.60546875 C19.43852723 18.40136074 21.22036124 20.19955985 23 22 C18.97142035 28.2976138 14.60758411 34.143416 9.8125 39.875 C9.19697266 40.62007813 8.58144531 41.36515625 7.94726562 42.1328125 C5.39490904 45.20780764 2.86560622 48.21007283 0 51 C-7.57454009 42.18012934 -14.87768017 33.18875691 -22 24 C-20.4608199 20.33247995 -18.24514548 18.01419427 -15.4296875 15.234375 C-14.08583984 13.90019531 -14.08583984 13.90019531 -12.71484375 12.5390625 C-11.77769531 11.61867188 -10.84054688 10.69828125 -9.875 9.75 C-8.92011363 8.80515144 -7.96568141 7.85984367 -7.01171875 6.9140625 C-4.67890913 4.60481662 -2.34155914 2.30036797 0 0 Z"/>
<path transform="translate(170,391)" fill="#F8C1AE" d="M0 0 C0 5.94 0 11.88 0 18 C-11.66666667 24.66666667 -23.33333333 31.33333333 -35 38 C-35.556875 37.38125 -35.556875 37.38125 -36.125 36.75 C-38.02395383 34.77521588 -38.02395383 34.77521588 -41.1640625 33.671875 C-44 31 -44 31 -44.48339844 28.15039062 C-44.59197286 24.5002218 -44.52125145 20.8987862 -44.375 17.25 C-44.34792969 15.98027344 -44.32085937 14.71054687 -44.29296875 13.40234375 C-44.2222359 10.26652094 -44.12356492 7.13411337 -44 4 C-43.30551758 3.98018066 -42.61103516 3.96036133 -41.89550781 3.93994141 C-38.68002475 3.84335952 -35.46507723 3.73423252 -32.25 3.625 C-30.61224609 3.57859375 -30.61224609 3.57859375 -28.94140625 3.53125 C-19.17727943 3.18459461 -9.43367324 0 0 0 Z"/>
<path transform="translate(308.375,189.6875)" fill="#79BBE8" d="M0 0 C4.9715548 2.84661605 8.11266089 6.76725661 9.625 12.3125 C10.45118831 18.83438046 9.4179113 23.89931592 5.625 29.3125 C0.11128482 34.55052942 -4.23001337 35.73304749 -11.69140625 35.5546875 C-17.20016096 35.05753642 -20.14567259 32.75961593 -23.6875 28.75 C-28.35863015 23.04901439 -27.99981458 17.52866836 -27.375 10.3125 C-25.0894807 5.38984305 -21.65805294 2.50200751 -17.375 -0.6875 C-11.59787021 -2.61320993 -5.5650706 -2.58937619 0 0 Z"/>
<path transform="translate(112.9296875,307.17578125)" fill="#E06F86" d="M0 0 C3.6737315 1.46256103 6.7014952 3.85530129 9.8359375 6.23046875 C15.60430791 10.34497072 23.30257676 9.31542538 30.0703125 8.82421875 C35.23978529 7.58569923 39.3734477 5.63552863 43.3203125 2.07421875 C46.0703125 -0.17578125 46.0703125 -0.17578125 49.1953125 -0.73828125 C52.79670681 -0.03366063 54.00158548 0.80069464 56.0703125 3.82421875 C56.47216385 7.2866821 56.5827949 9.1085552 54.5234375 11.984375 C45.40948747 19.85404462 35.40752585 23.99645181 23.3828125 24.07421875 C22.60486328 24.09484375 21.82691406 24.11546875 21.02539062 24.13671875 C10.27473153 24.20844959 -0.02403967 18.98871209 -7.9296875 11.82421875 C-9.35010571 8.98338234 -9.24421022 6.96944597 -8.9296875 3.82421875 C-6.54918591 0.11063626 -4.39527405 -0.88476296 0 0 Z"/>
<path transform="translate(135,480)" fill="#F64A67" d="M0 0 C3.15643665 1.36783193 4.97370955 2.83102449 7.13671875 5.4921875 C7.71019043 6.19214844 8.28366211 6.89210938 8.87451172 7.61328125 C9.47279785 8.35964844 10.07108398 9.10601562 10.6875 9.875 C11.30383301 10.63425781 11.92016602 11.39351563 12.55517578 12.17578125 C27 30.0630812 27 30.0630812 27 32 C10.17 32 -6.66 32 -24 32 C-22.49146217 28.98292435 -21.35988997 27.0335424 -19.27734375 24.53125 C-18.74262451 23.88285156 -18.20790527 23.23445313 -17.65698242 22.56640625 C-17.08955322 21.88449219 -16.52212402 21.20257813 -15.9375 20.5 C-10.4244169 13.80351238 -5.12768188 6.99590707 0 0 Z"/>
<path transform="translate(100.125,247.0625)" fill="#2F3947" d="M0 0 C2.98324527 0.97279737 3.99102952 1.51130864 5.875 3.9375 C6.53154826 7.38476007 6.38442277 10.8720859 6.375 14.375 C6.40335938 15.32955078 6.43171875 16.28410156 6.4609375 17.26757812 C6.4804796 24.24899476 6.4804796 24.24899476 3.5390625 27.59375 C0.875 28.9375 0.875 28.9375 -2.25 29 C-5.125 27.9375 -5.125 27.9375 -6.7734375 25.96875 C-8.66191849 21.73331287 -8.63897609 17.96265235 -8.625 13.375 C-8.65335937 12.52486328 -8.68171875 11.67472656 -8.7109375 10.79882812 C-8.73035448 4.60966618 -8.73035448 4.60966618 -5.7890625 1.34375 C-3.125 -0.0625 -3.125 -0.0625 0 0 Z"/>
<path transform="translate(174,247)" fill="#313A48" d="M0 0 C3.55074014 1.18358005 4.78368637 1.98204101 7 5 C7.54186104 8.01268701 7.46761864 10.94845967 7.375 14 C7.37371094 14.80695313 7.37242187 15.61390625 7.37109375 16.4453125 C7.31065895 20.51458936 7.21109666 23.46816875 5 27 C1.75173326 29.16551116 0.76905843 29.55156953 -3 29 C-5.12890625 27.6328125 -5.12890625 27.6328125 -7 25 C-7.60391164 21.49309468 -7.55780562 18.0502286 -7.5 14.5 C-7.51546875 13.54996094 -7.5309375 12.59992188 -7.546875 11.62109375 C-7.50811799 4.73203439 -7.50811799 4.73203439 -5.15625 1.34375 C-3 0 -3 0 0 0 Z"/>
</svg>