<svg xmlns="http://www.w3.org/2000/svg" version="1.1" viewBox="0 0 517.12 512" style="max-height: 500px" width="517.12" height="512">
<path transform="translate(255.5625,-0.31250000000000006)" fill="#7A65B6" d="M0 0 C1.02040375 0.00215515 2.0408075 0.0043103 3.09213257 0.00653076 C17.71960524 0.05616648 32.07013838 0.30330288 46.4375 3.3125 C47.41235352 3.51117676 48.38720703 3.70985352 49.39160156 3.91455078 C97.7734774 14.03517194 141.76178269 35.9516877 177.4375 70.3125 C178.4265332 71.26068604 178.4265332 71.26068604 179.43554688 72.22802734 C188.92380305 81.37247479 197.6637044 90.66984009 205.4375 101.3125 C206.29556152 102.46355017 207.15363451 103.61459177 208.01171875 104.765625 C214.04986829 112.95680614 219.40845521 121.47054105 224.4375 130.3125 C224.80198242 130.94430176 225.16646484 131.57610352 225.54199219 132.22705078 C240.47345085 158.31427269 249.94630201 187.64742947 254.4375 217.3125 C254.61482666 218.43060059 254.79215332 219.54870117 254.97485352 220.70068359 C256.51916151 231.46204298 256.77729671 242.1019101 256.75317383 252.96435547 C256.75002635 255.91281615 256.77352578 258.86025697 256.79882812 261.80859375 C256.84344438 275.19855903 255.64175057 288.11016733 253.4375 301.3125 C253.15531616 303.01792969 253.15531616 303.01792969 252.86743164 304.7578125 C245.09613308 348.02524735 225.10828041 389.07563234 196.4375 422.3125 C195.80328125 423.05757813 195.1690625 423.80265625 194.515625 424.5703125 C182.70448485 438.07529833 169.95389772 450.74668743 155.4375 461.3125 C154.28755169 462.16899066 153.13781411 463.02576433 151.98828125 463.8828125 C143.79660474 469.9234414 135.28104922 475.28255071 126.4375 480.3125 C125.80569824 480.67698242 125.17389648 481.04146484 124.52294922 481.41699219 C98.49354716 496.31535669 69.07639511 505.95897542 39.4375 510.3125 C38.23287109 510.48982666 37.02824219 510.66715332 35.78710938 510.84985352 C24.12982646 512.448825 12.56563902 512.6709053 0.8125 512.625 C-0.64233292 512.62226578 -0.64233292 512.62226578 -2.1265564 512.61947632 C-16.46297549 512.57413081 -30.46360118 512.12856394 -44.5625 509.3125 C-46.04363281 509.02318604 -46.04363281 509.02318604 -47.5546875 508.72802734 C-64.98125241 505.26498647 -64.98125241 505.26498647 -69.64582825 503.54374695 C-76.92744324 500.98386718 -83.22662532 501.23258861 -90.84765625 501.89453125 C-92.10275497 501.98756027 -93.3578537 502.08058929 -94.65098572 502.17643738 C-97.97142846 502.42487188 -101.28988391 502.68842742 -104.60839844 502.96075439 C-135.5609228 505.48173633 -135.5609228 505.48173633 -146.68359375 505.76171875 C-148.57549438 505.81912231 -148.57549438 505.81912231 -150.50561523 505.87768555 C-153.5625 505.3125 -153.5625 505.3125 -155.97290039 502.98364258 C-157.6237469 500.2095815 -158.18176215 498.52997063 -157.484375 495.3359375 C-153.57755128 486.76079051 -145.56539014 481.58841242 -137.5625 477.3125 C-136.5725 476.6525 -135.5825 475.9925 -134.5625 475.3125 C-139.23954007 473.15531852 -143.39835277 471.77938373 -148.51660156 470.93383789 C-149.1729509 470.82278214 -149.82930023 470.71172638 -150.50553894 470.5973053 C-151.91801604 470.35940312 -153.33116878 470.12548357 -154.74491119 469.8952198 C-156.99314781 469.52863027 -159.2392028 469.1505976 -161.48504639 468.76963806 C-167.06440807 467.82542836 -172.64666773 466.89889451 -178.22943115 465.97503662 C-182.95154314 465.19326488 -187.67208917 464.40307061 -192.39086151 463.60137749 C-194.58451394 463.23210189 -196.77991775 462.87500826 -198.97564697 462.51832581 C-213.42731586 460.1066204 -226.35183036 456.23334312 -235.9921875 444.59765625 C-243.11606927 434.23081338 -244.61544751 423.56845607 -243.5625 411.3125 C-241.466109 400.31276169 -235.65369126 392.4200701 -227.04296875 385.50390625 C-225.41920278 384.24090911 -225.41920278 384.24090911 -223.5625 382.3125 C-224.48869141 380.65541016 -224.48869141 380.65541016 -225.43359375 378.96484375 C-237.99577285 356.06704247 -246.61063875 331.51413428 -251.875 305.9375 C-252.09603394 304.87172729 -252.09603394 304.87172729 -252.3215332 303.78442383 C-255.31710069 288.09410812 -255.9708688 272.36874378 -255.9375 256.4375 C-255.93695618 255.4541568 -255.93641235 254.4708136 -255.93585205 253.45767212 C-255.7845072 193.68674758 -234.72291091 135.70956894 -195.5625 90.3125 C-194.92828125 89.56742187 -194.2940625 88.82234375 -193.640625 88.0546875 C-181.82948485 74.54970167 -169.07889772 61.87831257 -154.5625 51.3125 C-153.41255169 50.45600934 -152.26281411 49.59923567 -151.11328125 48.7421875 C-142.92160544 42.70101336 -134.414115 37.32954944 -125.5625 32.3125 C-124.52561035 31.71719482 -124.52561035 31.71719482 -123.46777344 31.10986328 C-97.32596711 16.23322812 -68.23251935 6.89522111 -38.5625 2.3125 C-36.8777356 2.04433472 -36.8777356 2.04433472 -35.15893555 1.77075195 C-23.44212445 0.09093581 -11.82209459 -0.04482288 0 0 Z"/>
<path transform="translate(255.5625,-0.31250000000000006)" fill="#381A5E" d="M0 0 C1.02040375 0.00215515 2.0408075 0.0043103 3.09213257 0.00653076 C17.71960524 0.05616648 32.07013838 0.30330288 46.4375 3.3125 C47.41235352 3.51117676 48.38720703 3.70985352 49.39160156 3.91455078 C97.7734774 14.03517194 141.76178269 35.9516877 177.4375 70.3125 C178.4265332 71.26068604 178.4265332 71.26068604 179.43554688 72.22802734 C188.92380305 81.37247479 197.6637044 90.66984009 205.4375 101.3125 C206.29556152 102.46355017 207.15363451 103.61459177 208.01171875 104.765625 C214.04986829 112.95680614 219.40845521 121.47054105 224.4375 130.3125 C224.80198242 130.94430176 225.16646484 131.57610352 225.54199219 132.22705078 C240.52118542 158.39767126 249.74540106 187.61218661 254.4375 217.3125 C254.55464355 218.04968262 254.67178711 218.78686523 254.79248047 219.54638672 C256.22194706 228.84322964 256.70189647 237.91173677 256.4375 247.3125 C255.57125 246.4875 254.705 245.6625 253.8125 244.8125 C251.45142355 242.86252863 250.49380466 242.32284167 247.375 241.75 C242.44594811 242.693861 240.02873946 245.45394483 237.234375 249.51171875 C236.54248785 250.66879518 235.86027193 251.83170567 235.1875 253 C231.48988727 259.26011273 231.48988727 259.26011273 230.4375 260.3125 C228.43926441 260.44631042 226.43856963 260.54393815 224.4375 260.625 C216.86502757 261.17300787 211.21873673 262.42575353 205.86328125 267.984375 C202.80675113 271.80941412 201.43547598 276.2097298 200.02929688 280.83398438 C197.99535647 286.62924065 194.75263773 288.55117906 189.4375 291.3125 C188.47448975 291.83932373 187.51147949 292.36614746 186.51928711 292.90893555 C183.12979693 294.75543156 179.72299607 296.56777375 176.3125 298.375 C173.80648001 299.70811392 171.30158946 301.04334135 168.796875 302.37890625 C168.1727774 302.71141388 167.54867981 303.04392151 166.90567017 303.38650513 C160.26221159 306.93050041 153.65824066 310.54640412 147.06982422 314.19165039 C142.13847555 316.90236068 137.15073476 319.47977296 132.11279297 321.98632812 C131.46849838 322.30764709 130.8242038 322.62896606 130.16038513 322.96002197 C128.58642703 323.74485741 127.0120106 324.52877357 125.4375 325.3125 C119.21474758 310.38125573 113.0521942 295.42869935 107.04296875 280.41015625 C106.50965549 279.07878955 105.97629966 277.74743991 105.44290161 276.41610718 C103.28726402 271.03390281 101.13277205 265.65125786 98.98754883 260.26489258 C97.64321881 256.89010987 96.2929085 253.51777069 94.9389286 250.14684868 C94.19982478 248.30216382 93.46698018 246.45497481 92.73442078 244.60768127 C84.62699206 224.4536807 75.38331033 207.8550559 54.6875 198.5625 C48.10015493 195.9833726 41.37990785 194.57907384 34.4375 193.3125 C33.33792969 193.10625 32.23835938 192.9 31.10546875 192.6875 C28.55162868 192.2154166 25.99636574 191.75638487 23.4375 191.3125 C24.241875 190.425625 25.04625 189.53875 25.875 188.625 C33.22537751 180.00311169 39.22448131 170.85337285 43.4375 160.3125 C43.73269531 159.65121094 44.02789062 158.98992187 44.33203125 158.30859375 C49.06556041 147.13933036 48.73991641 134.62985123 48.703125 122.71484375 C48.70447696 121.14791301 48.70642187 119.58098268 48.70892334 118.01405334 C48.71184883 114.75241039 48.70766032 111.49087801 48.69824219 108.22924805 C48.68683966 104.08188305 48.69342867 99.93477681 48.70538712 95.78742123 C48.71266777 92.55890508 48.71028971 89.33044872 48.70513153 86.10193062 C48.70381262 84.57395966 48.70537983 83.04598299 48.71009064 81.51801872 C48.76307734 59.51490711 44.02481267 42.50156383 28.625 26.0625 C20.48957718 18.32276895 11.00566598 13.82207751 0.4375 10.3125 C-0.60664063 9.94511719 -1.65078125 9.57773438 -2.7265625 9.19921875 C-15.72703474 6.19401794 -31.33938607 6.85727481 -43.5625 12.3125 C-44.55894531 12.725 -45.55539063 13.1375 -46.58203125 13.5625 C-62.90033292 20.93611 -73.27425791 33.19575283 -80.4921875 49.2890625 C-83.74135707 58.46737362 -84.99428324 66.66787361 -84.96875 76.40625 C-84.98500427 78.24636658 -84.98500427 78.24636658 -85.00158691 80.12365723 C-85.03560361 84.01999191 -85.05137554 87.91603704 -85.0625 91.8125 C-85.18047774 132.68409417 -85.18047774 132.68409417 -91.25 149.5625 C-91.50563721 150.2937207 -91.76127441 151.02494141 -92.0246582 151.77832031 C-96.72884023 164.71727462 -103.64552789 175.17730337 -112.31542969 185.77246094 C-126.39649825 203.16153308 -135.83675666 224.93993138 -136.68115234 247.47973633 C-137.04010675 256.53987144 -139.10431866 263.58703524 -142.6875 271.875 C-143.21531624 273.13730752 -143.74097326 274.4005197 -144.26464844 275.66455078 C-145.39774384 278.39393602 -146.54100305 281.11876327 -147.69042969 283.84130859 C-150.80624517 291.24918371 -153.78743919 298.71252403 -156.79388428 306.16525269 C-158.42476505 310.2035613 -160.06379016 314.23855499 -161.703125 318.2734375 C-162.1381987 319.34462578 -162.1381987 319.34462578 -162.58206177 320.43745422 C-163.24211063 322.06250897 -163.90228886 323.68751117 -164.5625 325.3125 C-168.79051044 323.7307042 -172.73797798 321.72056779 -176.71484375 319.6015625 C-177.40332397 319.23713043 -178.0918042 318.87269836 -178.80114746 318.4972229 C-181.03554201 317.3133474 -183.26785046 316.1256022 -185.5 314.9375 C-187.0410632 314.11940246 -188.58216039 313.30136895 -190.12329102 312.48339844 C-201.17457618 306.61138663 -212.20757029 300.70369359 -223.14746094 294.62597656 C-224.92771154 293.65774483 -226.72551579 292.7216222 -228.53222656 291.80371094 C-229.52577148 291.29098633 -230.51931641 290.77826172 -231.54296875 290.25 C-232.91231567 289.55970703 -232.91231567 289.55970703 -234.30932617 288.85546875 C-237.52496307 286.65340729 -238.11921357 284.42790266 -238.9765625 280.75 C-240.41912096 274.74895682 -243.06259254 268.9981928 -248.125 265.3125 C-250.58563543 263.88085757 -253.01239665 262.56244125 -255.5625 261.3125 C-257.43081124 198.73844502 -236.59990894 137.88549629 -195.5625 90.3125 C-194.92828125 89.56742187 -194.2940625 88.82234375 -193.640625 88.0546875 C-181.82948485 74.54970167 -169.07889772 61.87831257 -154.5625 51.3125 C-153.41255169 50.45600934 -152.26281411 49.59923567 -151.11328125 48.7421875 C-142.92160544 42.70101336 -134.414115 37.32954944 -125.5625 32.3125 C-124.52561035 31.71719482 -124.52561035 31.71719482 -123.46777344 31.10986328 C-97.32596711 16.23322812 -68.23251935 6.89522111 -38.5625 2.3125 C-36.8777356 2.04433472 -36.8777356 2.04433472 -35.15893555 1.77075195 C-23.44212445 0.09093581 -11.82209459 -0.04482288 0 0 Z"/>
<path transform="translate(511,253)" fill="#7360AF" d="M0 0 C0.33 0 0.66 0 1 0 C1.38067961 16.29308743 0.91127298 31.94896963 -2 48 C-2.16097168 48.9075 -2.32194336 49.815 -2.48779297 50.75 C-10.45742671 94.35714102 -30.04947348 135.43883407 -59 169 C-59.63421875 169.74507812 -60.2684375 170.49015625 -60.921875 171.2578125 C-72.73301515 184.76279833 -85.48360228 197.43418743 -100 208 C-101.14994831 208.85649066 -102.29968589 209.71326433 -103.44921875 210.5703125 C-111.64089526 216.6109414 -120.15645078 221.97005071 -129 227 C-129.63180176 227.36448242 -130.26360352 227.72896484 -130.91455078 228.10449219 C-156.94395284 243.00285669 -186.36110489 252.64647542 -216 257 C-217.20462891 257.17732666 -218.40925781 257.35465332 -219.65039062 257.53735352 C-231.30767354 259.136325 -242.87186098 259.3584053 -254.625 259.3125 C-256.07983292 259.30976578 -256.07983292 259.30976578 -257.5640564 259.30697632 C-271.90047549 259.26163081 -285.90110118 258.81606394 -300 256 C-301.48113281 255.71068604 -301.48113281 255.71068604 -302.9921875 255.41552734 C-320.41875241 251.95248647 -320.41875241 251.95248647 -325.08332825 250.23124695 C-332.36494324 247.67136718 -338.66412532 247.92008861 -346.28515625 248.58203125 C-347.54025497 248.67506027 -348.7953537 248.76808929 -350.08848572 248.86393738 C-353.40892846 249.11237188 -356.72738391 249.37592742 -360.04589844 249.64825439 C-390.9984228 252.16923633 -390.9984228 252.16923633 -402.12109375 252.44921875 C-404.01299438 252.50662231 -404.01299438 252.50662231 -405.94311523 252.56518555 C-409 252 -409 252 -411.41040039 249.67114258 C-413.0612469 246.8970815 -413.61926215 245.21747063 -412.921875 242.0234375 C-409.01505128 233.44829051 -401.00289014 228.27591242 -393 224 C-392.01 223.34 -391.02 222.68 -390 222 C-394.67704007 219.84281852 -398.83585277 218.46688373 -403.95410156 217.62133789 C-404.93862556 217.45475426 -404.93862556 217.45475426 -405.94303894 217.2848053 C-407.35551604 217.04690312 -408.76866878 216.81298357 -410.18241119 216.5827198 C-412.43064781 216.21613027 -414.6767028 215.8380976 -416.92254639 215.45713806 C-422.50190807 214.51292836 -428.08416773 213.58639451 -433.66693115 212.66253662 C-438.38904314 211.88076488 -443.10958917 211.09057061 -447.82836151 210.28887749 C-450.02201394 209.91960189 -452.21741775 209.56250826 -454.41314697 209.20582581 C-468.86481586 206.7941204 -481.78933036 202.92084312 -491.4296875 191.28515625 C-498.55356927 180.91831338 -500.05294751 170.25595607 -499 158 C-496.903609 147.00026169 -491.09119126 139.1075701 -482.48046875 132.19140625 C-480.85670278 130.92840911 -480.85670278 130.92840911 -479 129 C-479.61746094 127.89527344 -480.23492187 126.79054688 -480.87109375 125.65234375 C-490.01472117 108.97749398 -497.41683074 91.49292773 -502 73 C-497.51495058 74.53371725 -493.88365858 76.9858759 -490.046875 79.69921875 C-488.61434688 80.69769794 -487.18138031 81.69554829 -485.74804688 82.69287109 C-484.98194092 83.22765076 -484.21583496 83.76243042 -483.42651367 84.31341553 C-476.35158629 89.23094919 -469.21185397 94.05513773 -462.08056641 98.89038086 C-460.18445835 100.17794846 -458.29026665 101.46834243 -456.39794922 102.76147461 C-435.64674501 118.036076 -435.64674501 118.036076 -411 121 C-403.02586483 119.08620756 -396.14165941 114.64365889 -391.64306641 107.67871094 C-390.91030877 106.45353733 -390.18865275 105.22167513 -389.4765625 103.984375 C-388.61979103 102.55838973 -387.75921736 101.13468426 -386.89550781 99.71289062 C-386.43438599 98.95306885 -385.97326416 98.19324707 -385.49816895 97.41040039 C-382.76655588 93.01551474 -379.86033362 88.73842308 -376.9609375 84.453125 C-376.34454407 83.54075073 -375.72815063 82.62837646 -375.09307861 81.68835449 C-373.18927494 78.87405741 -371.28228635 76.06193768 -369.375 73.25 C-367.45977171 70.42075153 -365.54533824 67.59096634 -363.63092041 64.76116943 C-362.40537171 62.94968659 -361.17958737 61.13836314 -359.95355225 59.32720947 C-351.34163486 46.62758383 -351.34163486 46.62758383 -343 33.75 C-342.4225 32.83734375 -341.845 31.9246875 -341.25 30.984375 C-340.8375 30.32953125 -340.425 29.6746875 -340 29 C-338.35767468 31.46348798 -337.5363358 33.09457499 -336.625 35.8125 C-333.68960741 43.68338112 -329.42106729 48.15780226 -322 52 C-318.20979607 53.33187236 -314.50335191 53.94848327 -310.4921875 54.0859375 C-304.17333237 54.33714581 -301.03979788 55.89979249 -296.3984375 60.2109375 C-295 62 -295 62 -295 65 C-295.61875 65.2475 -296.2375 65.495 -296.875 65.75 C-299.49443701 67.2908453 -300.13480643 68.08980346 -301 71 C-300.74552653 75.75017143 -299.96740422 78.35273228 -297 82 C-298.30324219 82.45439453 -298.30324219 82.45439453 -299.6328125 82.91796875 C-308.63854683 86.1446726 -308.63854683 86.1446726 -316 92 C-317.06075176 95.18225529 -316.96208616 96.03915059 -316.22265625 99.17578125 C-316.03856201 99.99739746 -315.85446777 100.81901367 -315.66479492 101.66552734 C-315.36665894 102.97577881 -315.36665894 102.97577881 -315.0625 104.3125 C-312.80546356 114.8415418 -312.1656917 124.31190437 -314 135 C-314.54305132 141.07799745 -314.27214609 146.71020472 -311 152 C-299.11529829 165.75047208 -280.23048942 168.41144725 -263.00830078 169.82568359 C-257.15301336 170.16496904 -251.3011027 170.18446658 -245.4375 170.1875 C-244.18775391 170.19974609 -242.93800781 170.21199219 -241.65039062 170.22460938 C-227.15019276 170.24746833 -215.37249064 166.22051684 -201.875 161.375 C-200.13824418 160.75718429 -198.40126669 160.13999134 -196.6640625 159.5234375 C-192.44011637 158.02279865 -188.21926649 156.51374378 -184 155 C-184 151.03596829 -185.47748062 149.3802968 -187.625 146.0625 C-208.21854964 113.35215348 -210.09545777 79.29361281 -203 42 C-198.70961159 45.78552217 -195.88147609 50.4846028 -192.79296875 55.2421875 C-192.19500488 56.1547229 -191.59704102 57.0672583 -190.98095703 58.00744629 C-189.70511819 59.95508807 -188.43128021 61.90404178 -187.15927124 63.85418701 C-184.52808237 67.88524769 -181.88293378 71.9070666 -179.23835754 75.92935181 C-175.25278578 81.99168672 -171.26962443 88.05560372 -167.30078125 94.12890625 C-165.27861851 97.22139736 -163.23575401 100.29971464 -161.1875 103.375 C-160.65213623 104.20241699 -160.11677246 105.02983398 -159.56518555 105.88232422 C-155.03068059 112.63280938 -148.22694536 119.25968464 -140 121 C-126.20282456 122.27576622 -117.22504051 119.02045648 -106.0625 111.0625 C-104.16152128 109.73762258 -102.25902529 108.41492097 -100.35546875 107.09375 C-99.81863464 106.71976578 -99.28180054 106.34578156 -98.72869873 105.96046448 C-90.47207479 100.22036685 -82.11299717 94.62965686 -73.77194214 89.01339722 C-70.92403811 87.09552389 -68.07721827 85.17605195 -65.23071289 83.25610352 C-63.42206077 82.03658696 -61.61338616 80.81710377 -59.8046875 79.59765625 C-58.50377922 78.72024277 -58.50377922 78.72024277 -57.17658997 77.82510376 C-53.53238838 75.36947288 -49.88617931 72.91789147 -46.21728516 70.49926758 C-45.16589355 69.80599365 -44.11450195 69.11271973 -43.03125 68.3984375 C-41.73670898 67.55224854 -41.73670898 67.55224854 -40.41601562 66.68896484 C-29.41659401 58.99959553 -22.95164062 49.6293441 -17.36328125 37.6171875 C-16.9571611 36.75868195 -16.55104095 35.90017639 -16.13261414 35.01565552 C-14.85256005 32.3051939 -13.58253024 29.59017033 -12.3125 26.875 C-11.45049572 25.04788165 -10.58787035 23.22105618 -9.72460938 21.39453125 C-6.38126949 14.30355675 -3.04544065 7.2250205 0 0 Z"/>
<path transform="translate(511,253)" fill="#6856A2" d="M0 0 C0.33 0 0.66 0 1 0 C1.38067961 16.29308743 0.91127298 31.94896963 -2 48 C-2.16097168 48.9075 -2.32194336 49.815 -2.48779297 50.75 C-9.9991866 91.84980605 -27.9190664 128.86944244 -53 162 C-56.67328636 161.57615927 -58.57891229 159.71294482 -61.2890625 157.33984375 C-70.53830044 150.09671906 -81.75559202 149.86452891 -93 151 C-99.01972113 152.12322437 -104.81916115 154.12614506 -110.64697266 155.97265625 C-116.79928268 157.85768032 -123.01237911 159.52801362 -129.21716309 161.23062134 C-133.13496322 162.30703249 -137.05006825 163.3931162 -140.96484375 164.48046875 C-141.73438385 164.69418625 -142.50392395 164.90790375 -143.29678345 165.12809753 C-150.4173536 167.10938759 -157.52218114 169.14347272 -164.625 171.1875 C-173.06527362 173.61229704 -181.51767885 175.97664801 -190 178.25 C-191.00248779 178.52078369 -192.00497559 178.79156738 -193.0378418 179.07055664 C-199.45057195 180.79800662 -205.8716606 182.4870923 -212.30160522 184.14916992 C-216.3382446 185.19695177 -220.37041725 186.26132536 -224.40209961 187.32800293 C-226.41814442 187.85735049 -228.43605961 188.37962745 -230.45581055 188.89465332 C-233.30762759 189.62273924 -236.15203156 190.3750839 -238.99609375 191.1328125 C-239.86052597 191.3472702 -240.72495819 191.56172791 -241.61558533 191.78268433 C-246.46331602 193.04309356 -246.46331602 193.04309356 -249.87524414 196.55419922 C-250.24641357 197.36131348 -250.61758301 198.16842773 -251 199 C-251.99 199.66 -252.98 200.32 -254 201 C-253.22479728 204.20286584 -253.22479728 204.20286584 -250.375 206.1875 C-247.88280251 209.1387865 -247.60828544 209.47518923 -247.875 213.0625 C-248.49005463 216.07512869 -249.05578736 217.06563219 -251.125 219.5 C-254.73004594 221.38089353 -256.97682231 221.43105475 -261 221 C-263.9375 220 -263.9375 220 -266 219 C-265.95875 219.9075 -265.9175 220.815 -265.875 221.75 C-265.99720095 224.92722465 -266.24397131 226.41216824 -268 229 C-271.66781672 231.44521115 -274.73453233 231.72237759 -279 231 C-281.43119623 229.12984906 -282.64069173 227.71861655 -284 225 C-284.039992 223.00039988 -284.04346799 220.99952758 -284 219 C-284.680625 219.33 -285.36125 219.66 -286.0625 220 C-289.64496824 221.21956366 -292.23445682 221.40345105 -296 221 C-298.75329021 219.20437595 -300.52627461 217.94745078 -302 215 C-302.43023798 211.12785818 -302.31669086 209.47503629 -300.125 206.1875 C-298 204 -298 204 -296 203 C-296.74342172 199.92686899 -296.74342172 199.92686899 -299 198.25 C-301.76864859 195.13527034 -302.07140715 193.14161477 -302 189 C-300.0625 185.5625 -300.0625 185.5625 -297 183 C-292.36306234 181.94572645 -288.21855213 182.89072394 -284 185 C-284 184.34 -284 183.68 -284 183 C-285.29099609 182.73517822 -286.58199219 182.47035645 -287.91210938 182.19750977 C-292.88262365 181.09010236 -297.61182796 179.54171157 -302.40625 177.83984375 C-303.2802243 177.53411438 -304.15419861 177.22838501 -305.05465698 176.91339111 C-307.87156354 175.92644894 -310.68580222 174.93213677 -313.5 173.9375 C-315.45511708 173.25070539 -317.41035874 172.56426536 -319.36572266 171.87817383 C-330.35285595 168.01777861 -341.32130377 164.10802637 -352.26928711 160.13793945 C-364.14190281 155.84234503 -376.09040001 151.76606645 -388.03424072 147.67370605 C-393.57995946 145.77307441 -399.12452406 143.8690761 -404.66897583 141.9647522 C-406.04970399 141.49052489 -407.43046136 141.01638262 -408.81124878 140.54232788 C-417.82990319 137.44546229 -426.83766699 134.32104252 -435.8203125 131.12109375 C-451.23000041 125.68794826 -462.30136799 124.32823618 -478 130 C-488.82433649 113.31248124 -498.48282006 92.60424366 -502 73 C-497.51495058 74.53371725 -493.88365858 76.9858759 -490.046875 79.69921875 C-488.61434688 80.69769794 -487.18138031 81.69554829 -485.74804688 82.69287109 C-484.98194092 83.22765076 -484.21583496 83.76243042 -483.42651367 84.31341553 C-476.35158629 89.23094919 -469.21185397 94.05513773 -462.08056641 98.89038086 C-460.18445835 100.17794846 -458.29026665 101.46834243 -456.39794922 102.76147461 C-435.64674501 118.036076 -435.64674501 118.036076 -411 121 C-403.02586483 119.08620756 -396.14165941 114.64365889 -391.64306641 107.67871094 C-390.91030877 106.45353733 -390.18865275 105.22167513 -389.4765625 103.984375 C-388.61979103 102.55838973 -387.75921736 101.13468426 -386.89550781 99.71289062 C-386.43438599 98.95306885 -385.97326416 98.19324707 -385.49816895 97.41040039 C-382.76655588 93.01551474 -379.86033362 88.73842308 -376.9609375 84.453125 C-376.34454407 83.54075073 -375.72815063 82.62837646 -375.09307861 81.68835449 C-373.18927494 78.87405741 -371.28228635 76.06193768 -369.375 73.25 C-367.45977171 70.42075153 -365.54533824 67.59096634 -363.63092041 64.76116943 C-362.40537171 62.94968659 -361.17958737 61.13836314 -359.95355225 59.32720947 C-351.34163486 46.62758383 -351.34163486 46.62758383 -343 33.75 C-342.4225 32.83734375 -341.845 31.9246875 -341.25 30.984375 C-340.8375 30.32953125 -340.425 29.6746875 -340 29 C-338.35767468 31.46348798 -337.5363358 33.09457499 -336.625 35.8125 C-333.68960741 43.68338112 -329.42106729 48.15780226 -322 52 C-318.20979607 53.33187236 -314.50335191 53.94848327 -310.4921875 54.0859375 C-304.17333237 54.33714581 -301.03979788 55.89979249 -296.3984375 60.2109375 C-295 62 -295 62 -295 65 C-295.61875 65.2475 -296.2375 65.495 -296.875 65.75 C-299.49443701 67.2908453 -300.13480643 68.08980346 -301 71 C-300.74552653 75.75017143 -299.96740422 78.35273228 -297 82 C-298.30324219 82.45439453 -298.30324219 82.45439453 -299.6328125 82.91796875 C-308.63854683 86.1446726 -308.63854683 86.1446726 -316 92 C-317.06075176 95.18225529 -316.96208616 96.03915059 -316.22265625 99.17578125 C-316.03856201 99.99739746 -315.85446777 100.81901367 -315.66479492 101.66552734 C-315.36665894 102.97577881 -315.36665894 102.97577881 -315.0625 104.3125 C-312.80546356 114.8415418 -312.1656917 124.31190437 -314 135 C-314.54305132 141.07799745 -314.27214609 146.71020472 -311 152 C-299.11529829 165.75047208 -280.23048942 168.41144725 -263.00830078 169.82568359 C-257.15301336 170.16496904 -251.3011027 170.18446658 -245.4375 170.1875 C-244.18775391 170.19974609 -242.93800781 170.21199219 -241.65039062 170.22460938 C-227.15019276 170.24746833 -215.37249064 166.22051684 -201.875 161.375 C-200.13824418 160.75718429 -198.40126669 160.13999134 -196.6640625 159.5234375 C-192.44011637 158.02279865 -188.21926649 156.51374378 -184 155 C-184 151.03596829 -185.47748062 149.3802968 -187.625 146.0625 C-208.21854964 113.35215348 -210.09545777 79.29361281 -203 42 C-198.70961159 45.78552217 -195.88147609 50.4846028 -192.79296875 55.2421875 C-192.19500488 56.1547229 -191.59704102 57.0672583 -190.98095703 58.00744629 C-189.70511819 59.95508807 -188.43128021 61.90404178 -187.15927124 63.85418701 C-184.52808237 67.88524769 -181.88293378 71.9070666 -179.23835754 75.92935181 C-175.25278578 81.99168672 -171.26962443 88.05560372 -167.30078125 94.12890625 C-165.27861851 97.22139736 -163.23575401 100.29971464 -161.1875 103.375 C-160.65213623 104.20241699 -160.11677246 105.02983398 -159.56518555 105.88232422 C-155.03068059 112.63280938 -148.22694536 119.25968464 -140 121 C-126.20282456 122.27576622 -117.22504051 119.02045648 -106.0625 111.0625 C-104.16152128 109.73762258 -102.25902529 108.41492097 -100.35546875 107.09375 C-99.81863464 106.71976578 -99.28180054 106.34578156 -98.72869873 105.96046448 C-90.47207479 100.22036685 -82.11299717 94.62965686 -73.77194214 89.01339722 C-70.92403811 87.09552389 -68.07721827 85.17605195 -65.23071289 83.25610352 C-63.42206077 82.03658696 -61.61338616 80.81710377 -59.8046875 79.59765625 C-58.50377922 78.72024277 -58.50377922 78.72024277 -57.17658997 77.82510376 C-53.53238838 75.36947288 -49.88617931 72.91789147 -46.21728516 70.49926758 C-45.16589355 69.80599365 -44.11450195 69.11271973 -43.03125 68.3984375 C-41.73670898 67.55224854 -41.73670898 67.55224854 -40.41601562 66.68896484 C-29.41659401 58.99959553 -22.95164062 49.6293441 -17.36328125 37.6171875 C-16.9571611 36.75868195 -16.55104095 35.90017639 -16.13261414 35.01565552 C-14.85256005 32.3051939 -13.58253024 29.59017033 -12.3125 26.875 C-11.45049572 25.04788165 -10.58787035 23.22105618 -9.72460938 21.39453125 C-6.38126949 14.30355675 -3.04544065 7.2250205 0 0 Z"/>
<path transform="translate(236.5625,6.4375)" fill="#594A93" d="M0 0 C1.55775146 0.00362549 1.55775146 0.00362549 3.14697266 0.00732422 C22.02729133 0.45125979 37.11959934 8.51501357 50.4375 21.5625 C51.06527344 22.15417969 51.69304687 22.74585937 52.33984375 23.35546875 C66.53646804 37.93839574 68.59613404 57.33315619 68.60546875 76.63671875 C68.60868891 78.20839975 68.61205353 79.78008046 68.61555481 81.35176086 C68.62152212 84.63905531 68.62339726 87.92632357 68.62280273 91.21362305 C68.62270143 95.39128139 68.63633206 99.5687686 68.65357494 103.74638653 C68.66478778 106.99209844 68.66671909 110.23777024 68.66619301 113.48349953 C68.66736002 115.02181397 68.67170836 116.56012989 68.67952538 118.09842491 C68.77296455 138.38979516 65.02154028 155.63543339 53.4375 172.5625 C53.06560547 173.12227539 52.69371094 173.68205078 52.31054688 174.25878906 C45.68635362 183.9042607 45.68635362 183.9042607 40.37695312 184.97998047 C35.61864392 185.217053 31.08755621 184.51934971 26.4375 183.5625 C26.16164063 182.46808594 25.88578125 181.37367188 25.6015625 180.24609375 C24.29639813 176.11599308 22.66638437 174.36653116 19.4375 171.5625 C20.4375 168.5625 20.4375 168.5625 23 166.25 C25.72080028 163.78404283 25.72080028 163.78404283 25.75 160.5 C25.5953125 159.0459375 25.5953125 159.0459375 25.4375 157.5625 C25.4375 153.14014663 25.79881844 152.67555007 28.375 149.375 C47.65640206 122.65370341 55.22338906 88.32351765 50.93359375 55.734375 C50.29363896 52.88200507 49.50644668 50.28030775 48.4375 47.5625 C48.10878906 46.71171875 47.78007812 45.8609375 47.44140625 44.984375 C43.29476773 35.62932893 36.38837988 28.71311209 28.0859375 22.9375 C25.67231421 20.92424076 24.71972054 18.38338519 23.4375 15.5625 C20.73865138 13.34558863 19.47088144 13.55951951 15.9375 13.875 C13.40517425 14.37242113 10.93363959 14.92204313 8.4375 15.5625 C8.33953125 14.94761719 8.2415625 14.33273438 8.140625 13.69921875 C7.2811216 8.71537028 7.2811216 8.71537028 4.6875 4.5 C1.61838602 3.22120251 -0.26448894 3.02404922 -3.5625 3.5625 C-7.28069473 6.28917613 -8.40749731 7.83517969 -9.375 12.375 C-9.436875 13.426875 -9.49875 14.47875 -9.5625 15.5625 C-10.408125 15.211875 -11.25375 14.86125 -12.125 14.5 C-16.09029366 13.41855628 -18.58829702 13.5876955 -22.5625 14.5625 C-25.44543954 16.29226372 -25.58450887 17.64173193 -26.5 20.9375 C-26.89627576 24.59589823 -26.89627576 24.59589823 -24.8125 27.3125 C-24.07 28.055 -23.3275 28.7975 -22.5625 29.5625 C-21.985 30.160625 -21.4075 30.75875 -20.8125 31.375 C-20.4 31.766875 -19.9875 32.15875 -19.5625 32.5625 C-21.0165625 33.5834375 -21.0165625 33.5834375 -22.5 34.625 C-25.19041087 36.8638289 -25.55590436 37.53900303 -26.5625 41.125 C-26.5625 44.44537819 -26.50855436 45.93532661 -24.5625 48.5625 C-21.03675575 50.91299617 -19.71277493 50.88801176 -15.5625 50.5625 C-12.28685637 49.63835059 -12.28685637 49.63835059 -9.5625 48.5625 C-9.46453125 49.17738281 -9.3665625 49.79226562 -9.265625 50.42578125 C-8.42845199 55.41778231 -8.42845199 55.41778231 -5.75 59.5625 C-3.36435313 60.65308142 -1.13338431 61.0865677 1.4375 61.5625 C0.5311096 63.48404764 -0.38806804 65.39956654 -1.3125 67.3125 C-1.82296875 68.37984375 -2.3334375 69.4471875 -2.859375 70.546875 C-4.49689388 73.44633503 -6.23388462 75.23388462 -8.5625 77.5625 C-9.37015878 81.20971696 -9.37015878 81.20971696 -9.5625 84.5625 C-10.2225 84.3975 -10.8825 84.2325 -11.5625 84.0625 C-15.47637335 83.41018778 -18.57976607 83.18319201 -22.5625 83.5625 C-25.30862994 85.47432268 -25.30862994 85.47432268 -26.5625 88.5625 C-26.64504987 93.18529272 -26.05672915 94.99594463 -23 98.5 C-22.195625 99.180625 -21.39125 99.86125 -20.5625 100.5625 C-21.5625 103.5625 -21.5625 103.5625 -24.125 105.875 C-26.7822875 108.3488169 -26.7822875 108.3488169 -27.1875 111.5625 C-26.324619 115.70432881 -25.00400865 117.12476471 -21.5625 119.5625 C-18.86461852 119.83654389 -16.28287973 119.65726733 -13.5625 119.5625 C-8.78696388 143.35127436 -8.78696388 143.35127436 -9.5625 153.5625 C-10.77486328 153.36720703 -10.77486328 153.36720703 -12.01171875 153.16796875 C-18.73762397 152.14651496 -18.73762397 152.14651496 -24.8125 154.625 C-26.87551254 158.0879139 -27.38563028 159.61147467 -26.5625 163.5625 C-24.24993506 166.29176391 -24.24993506 166.29176391 -21.5625 168.5625 C-20.9025 169.5525 -20.2425 170.5425 -19.5625 171.5625 C-20.490625 172.2225 -21.41875 172.8825 -22.375 173.5625 C-25.09864549 175.76020015 -25.91014624 177.24382716 -26.6875 180.625 C-27.3359375 182.70703125 -27.3359375 182.70703125 -28.5625 184.5625 C-31.45150425 185.96362368 -34.24836709 186.79638455 -37.359375 187.578125 C-41.19717287 188.75754581 -44.13712769 190.47973593 -47.5625 192.5625 C-46.07363281 192.89121094 -46.07363281 192.89121094 -44.5546875 193.2265625 C-32.90136908 195.90391024 -20.265152 198.859848 -11.5625 207.5625 C-11.8925 208.5525 -12.2225 209.5425 -12.5625 210.5625 C-27.20501048 211.37471938 -39.50630381 207.89146082 -52.63671875 201.63671875 C-55.35903136 200.45050692 -55.35903136 200.45050692 -57.58203125 200.546875 C-60.75135583 202.17216966 -63.09427632 204.60965033 -65.5625 207.125 C-66.13355469 207.70507812 -66.70460938 208.28515625 -67.29296875 208.8828125 C-98.76552157 241.60593033 -115.38316031 286.33985219 -129.5625 328.5625 C-133.52156817 327.12941865 -136.84968181 325.23108051 -140.375 322.9375 C-141.35082031 322.30585938 -142.32664062 321.67421875 -143.33203125 321.0234375 C-144.06808594 320.54132813 -144.80414063 320.05921875 -145.5625 319.5625 C-144.98905178 315.44298014 -144.05913668 311.89375399 -142.47705078 308.05126953 C-142.04635284 306.99642365 -141.61565491 305.94157776 -141.17190552 304.85476685 C-140.47192947 303.16708694 -140.47192947 303.16708694 -139.7578125 301.4453125 C-139.27802948 300.27418915 -138.79824646 299.1030658 -138.30392456 297.89645386 C-137.03045397 294.7906128 -135.75179704 291.68701823 -134.47033691 288.58447266 C-132.67150233 284.22553153 -130.88264878 279.8624824 -129.09249878 275.49996948 C-128.14060169 273.18189081 -127.18685239 270.8645716 -126.23098755 268.54812622 C-121.39760891 257.98817023 -121.39760891 257.98817023 -118.97265625 246.78515625 C-118.91311768 245.95072998 -118.8535791 245.11630371 -118.79223633 244.2565918 C-118.73704834 243.3881665 -118.68186035 242.51974121 -118.625 241.625 C-116.54470545 216.21775844 -107.62685947 195.69604047 -91.64086914 175.79248047 C-74.28492203 153.9986071 -67.26524068 128.53706388 -67.2890625 101 C-67.2687822 98.46614135 -67.24793159 95.93228721 -67.2265625 93.3984375 C-67.20398895 89.47554662 -67.1874856 85.55283569 -67.18164062 81.62988281 C-67.11078245 53.30786939 -67.11078245 53.30786939 -62.5625 42.5625 C-62.14726074 41.53116943 -62.14726074 41.53116943 -61.72363281 40.47900391 C-54.16342792 23.31204185 -39.91379416 10.3872045 -22.5625 3.5625 C-15.01249847 1.03055715 -7.95104029 -0.0195742 0 0 Z"/>
<path transform="translate(239,9)" fill="#7A66B7" d="M0 0 C2.69990662 1.79993774 4.5418865 3.083773 6 6 C6.04022391 8.3329866 6.04320247 10.66706666 6 13 C6.845625 12.484375 7.69125 11.96875 8.5625 11.4375 C12.68668132 9.71284236 14.72260389 9.81183442 19 11 C21.33975977 12.83386576 22.66551622 14.25039795 23.875 16.9609375 C25.18619469 19.33747787 26.45677987 20.29175367 28.6875 21.8125 C39.5410753 29.70244081 46.6481701 40.29341771 49.55859375 53.54296875 C53.45557677 84.06358801 47.36462723 119.1983526 28.61328125 144.1796875 C27.87464844 145.11039063 27.13601563 146.04109375 26.375 147 C23.67850265 150.38644351 23.67850265 150.38644351 22.8671875 154.4921875 C23.11293847 156.02186192 23.40494114 157.54521053 23.75390625 159.0546875 C24 161 24 161 22.1875 164 C20 166 20 166 18 167 C18.97768772 169.18099569 19.73583215 170.7678525 21.546875 172.359375 C23.87988677 174.99342055 23.47909152 177.45530029 23.3359375 180.8359375 C23 183 23 183 21.5625 185.5625 C17.80084698 187.67269559 14.22262497 187.6393411 10 187 C7.71875 185.9765625 7.71875 185.9765625 6 185 C5.96261719 185.61488281 5.92523438 186.22976562 5.88671875 186.86328125 C5.82097656 187.67152344 5.75523437 188.47976562 5.6875 189.3125 C5.60048828 190.51326172 5.60048828 190.51326172 5.51171875 191.73828125 C4.90053301 194.4396289 4.20642167 195.35659627 2 197 C-2.52722069 198.09529533 -4.71375705 198.60207117 -8.9375 196.625 C-11.82604664 192.94866792 -11.89253572 189.57211678 -12 185 C-12.5671875 185.32226562 -13.134375 185.64453125 -13.71875 185.9765625 C-17.43824393 187.64523957 -21.00343912 187.56465172 -25 187 C-27.5625 185.5625 -27.5625 185.5625 -29 183 C-29.66540789 179.84372893 -29.77173071 177.14284536 -29 174 C-27.18529514 171.7237517 -25.48915783 170.6075811 -23 169 C-24.175625 167.8553125 -24.175625 167.8553125 -25.375 166.6875 C-28.15745231 163.83879882 -29.83272136 162.09925966 -30.4375 158.125 C-29.85881562 153.99154015 -28.1112259 152.65592455 -25 150 C-24.67 149.67 -24.34 149.34 -24 149 C-19.50840897 148.68663318 -16.21050772 149.51012804 -12 151 C-13.16975502 139.88044635 -14.78728812 128.96029949 -17 118 C-18.09570312 118.03867188 -19.19140625 118.07734375 -20.3203125 118.1171875 C-24.66572798 117.97879847 -25.98025404 117.01974596 -29 114 C-30.42662219 111.14675563 -30.31033868 109.16545451 -30 106 C-28.20006226 103.30009338 -26.916227 101.4581135 -24 100 C-24.74342172 96.92686899 -24.74342172 96.92686899 -27 95.25 C-29.76864859 92.13527034 -30.07140715 90.14161477 -30 86 C-28.0625 82.5625 -28.0625 82.5625 -25 80 C-20.36306234 78.94572645 -16.21855213 79.89072394 -12 82 C-12.0928125 80.39125 -12.0928125 80.39125 -12.1875 78.75 C-11.99552747 74.91054943 -11.71836779 73.61381519 -9 71 C-8.34 71 -7.68 71 -7 71 C-6.5978125 69.6696875 -6.5978125 69.6696875 -6.1875 68.3125 C-5.08289181 65.23122452 -3.77150856 62.73778595 -2 60 C-3.6396875 59.38125 -3.6396875 59.38125 -5.3125 58.75 C-8.52894447 57.34361942 -10.44900185 56.28446667 -12 53 C-12.1875 49.25 -12.1875 49.25 -12 46 C-12.86625 46.495 -13.7325 46.99 -14.625 47.5 C-18.23584826 49.10482145 -20.11710972 49.66091749 -24 49 C-27.47621856 46.45077306 -28.78253065 44.66448969 -30.125 40.5625 C-29.9269247 34.91735405 -26.89464499 32.89464499 -23 29 C-23.969375 28.319375 -24.93875 27.63875 -25.9375 26.9375 C-28.58085922 24.7263488 -29.0008622 23.99715981 -30.0625 20.5 C-29.99256618 16.58370586 -29.48078416 14.99404985 -27 12 C-24.28780098 9.86898649 -23.00358856 9.99974367 -19.5 10.25 C-16.59784899 10.8718895 -14.5160502 11.49036988 -12 13 C-12.12375 11.4221875 -12.12375 11.4221875 -12.25 9.8125 C-11.96269651 5.43112175 -11.05154419 4.05154419 -8 1 C-5.14675563 -0.42662219 -3.16545451 -0.31033868 0 0 Z"/>
<path transform="translate(511,253)" fill="#381A5E" d="M0 0 C0.33 0 0.66 0 1 0 C1.38067961 16.29308743 0.91127298 31.94896963 -2 48 C-2.16097168 48.9075 -2.32194336 49.815 -2.48779297 50.75 C-9.68486697 90.12995536 -26.43237325 125.87728361 -50 158 C-51.13462605 155.7416258 -52.24765938 153.47853539 -53.33203125 151.1953125 C-59.05746465 139.32145854 -66.07011055 131.5202336 -78.8125 127.0625 C-87.36865561 124.88972231 -96.02554094 125.42905325 -104.5703125 127.33984375 C-114.68712042 129.48399052 -124.93360743 130.653344 -135.1875 131.9375 C-139.27380395 132.45678318 -143.35960307 132.97996797 -147.4453125 133.50390625 C-148.44287064 133.63144287 -149.44042877 133.75897949 -150.46821594 133.89038086 C-159.97528666 135.11193646 -169.4613188 136.45816908 -178.94018555 137.88256836 C-179.95121338 138.03218018 -180.96224121 138.18179199 -182.00390625 138.3359375 C-183.28503296 138.53002197 -183.28503296 138.53002197 -184.59204102 138.72802734 C-187.08187598 139.00924768 -189.49651914 139.04749378 -192 139 C-209.03057196 108.20002944 -209.45077398 75.90516509 -203 42 C-198.70961159 45.78552217 -195.88147609 50.4846028 -192.79296875 55.2421875 C-192.19500488 56.1547229 -191.59704102 57.0672583 -190.98095703 58.00744629 C-189.70511819 59.95508807 -188.43128021 61.90404178 -187.15927124 63.85418701 C-184.52808237 67.88524769 -181.88293378 71.9070666 -179.23835754 75.92935181 C-175.25278578 81.99168672 -171.26962443 88.05560372 -167.30078125 94.12890625 C-165.27861851 97.22139736 -163.23575401 100.29971464 -161.1875 103.375 C-160.65213623 104.20241699 -160.11677246 105.02983398 -159.56518555 105.88232422 C-155.03068059 112.63280938 -148.22694536 119.25968464 -140 121 C-126.20282456 122.27576622 -117.22504051 119.02045648 -106.0625 111.0625 C-104.16152128 109.73762258 -102.25902529 108.41492097 -100.35546875 107.09375 C-99.81863464 106.71976578 -99.28180054 106.34578156 -98.72869873 105.96046448 C-90.47207479 100.22036685 -82.11299717 94.62965686 -73.77194214 89.01339722 C-70.92403811 87.09552389 -68.07721827 85.17605195 -65.23071289 83.25610352 C-63.42206077 82.03658696 -61.61338616 80.81710377 -59.8046875 79.59765625 C-58.93741531 79.01271393 -58.07014313 78.42777161 -57.17658997 77.82510376 C-53.53238838 75.36947288 -49.88617931 72.91789147 -46.21728516 70.49926758 C-45.16589355 69.80599365 -44.11450195 69.11271973 -43.03125 68.3984375 C-42.16822266 67.83431152 -41.30519531 67.27018555 -40.41601562 66.68896484 C-29.41659401 58.99959553 -22.95164062 49.6293441 -17.36328125 37.6171875 C-16.75410103 36.32942917 -16.75410103 36.32942917 -16.13261414 35.01565552 C-14.85256005 32.3051939 -13.58253024 29.59017033 -12.3125 26.875 C-11.45049572 25.04788165 -10.58787035 23.22105618 -9.72460938 21.39453125 C-6.38126949 14.30355675 -3.04544065 7.2250205 0 0 Z"/>
<path transform="translate(50,379)" fill="#7A65B6" d="M0 0 C9.29263453 -0.2830244 17.03802083 0.30971502 25.66015625 3.8515625 C30.67502435 5.88178413 35.72637637 7.78144238 40.8125 9.625 C41.73538818 9.95983398 42.65827637 10.29466797 43.60913086 10.63964844 C51.73833396 13.57287294 59.89545877 16.42429497 68.0625 19.25 C69.25012939 19.6620166 70.43775879 20.0740332 71.66137695 20.49853516 C77.32970082 22.45007447 83.00429307 24.32257016 88.74609375 26.046875 C93.36251602 27.44846245 97.79557235 29.06020783 102.25146484 30.90136719 C108.36116557 33.34351084 114.60442175 35.44778275 120.8125 37.625 C122.3111412 38.15219226 123.80975738 38.67945567 125.30834961 39.20678711 C142.49915161 45.24934936 159.70203407 51.27062081 177 57 C177 57.66 177 58.32 177 59 C176.34 58.835 175.68 58.67 175 58.5 C171.08612665 57.84768778 167.98273393 57.62069201 164 58 C161.32161427 59.93126102 161.32161427 59.93126102 160 63 C159.66534111 66.70940775 159.66534111 66.70940775 160 70 C159.01 70.495 159.01 70.495 158 71 C157.25234375 70.44570313 156.5046875 69.89140625 155.734375 69.3203125 C154.74953125 68.59585938 153.7646875 67.87140625 152.75 67.125 C151.77546875 66.40570313 150.8009375 65.68640625 149.796875 64.9453125 C143.5086346 60.57164809 138.60770942 60.34645181 131 61 C121.92083599 64.13643848 117.74141097 72.19785111 113 80 C103.41448327 78.60656572 94.09540263 76.41773919 84.71875 74.04296875 C83.17284954 73.65408718 81.62690961 73.26536249 80.08093262 72.87678528 C76.85955782 72.06572792 73.63919916 71.25077068 70.41943359 70.43334961 C66.32722181 69.39507274 62.23188526 68.36975541 58.13558197 67.34775829 C54.94747251 66.55022389 51.76156479 65.74415451 48.57618713 64.93578529 C47.06850892 64.55454147 45.5600923 64.17620369 44.05088806 63.80104637 C27.19535259 59.60294102 12.89762665 54.85729658 2.73046875 39.94140625 C-3.28487338 29.71668249 -4.81885363 18.44987431 -2.31640625 6.82421875 C-1.63020119 4.50294135 -0.88948474 2.25018462 0 0 Z"/>
<path transform="translate(163,294)" fill="#381A5E" d="M0 0 C0.66 0 1.32 0 2 0 C7.72078921 34.85345182 8.02755277 66.12069319 -9 98 C-25.53767239 96.4177388 -42.00261367 94.26331876 -58.47387695 92.11376953 C-62.42794238 91.59797276 -66.38282188 91.08871943 -70.33793163 90.58100128 C-73.41913373 90.18443588 -76.49976547 89.78357125 -79.58025551 89.3815155 C-81.03876455 89.19183499 -82.49747007 89.00365838 -83.95638084 88.8170929 C-91.08557537 87.9037525 -98.05954934 86.91037922 -105 85 C-113.97072045 83.97816959 -121.594508 85.96317708 -130 89 C-140.82433649 72.31248124 -150.48282006 51.60424366 -154 32 C-149.51495058 33.53371725 -145.88365858 35.9858759 -142.046875 38.69921875 C-140.61434688 39.69769794 -139.18138031 40.69554829 -137.74804688 41.69287109 C-136.98194092 42.22765076 -136.21583496 42.76243042 -135.42651367 43.31341553 C-128.35158629 48.23094919 -121.21185397 53.05513773 -114.08056641 57.89038086 C-112.18445835 59.17794846 -110.29026665 60.46834243 -108.39794922 61.76147461 C-87.64674501 77.036076 -87.64674501 77.036076 -63 80 C-55.02788392 78.08669214 -48.14176873 73.64532664 -43.64526367 66.6809082 C-42.91310121 65.45628699 -42.19201543 64.22499476 -41.48046875 62.98828125 C-40.62393868 61.56241166 -39.76352132 60.13887234 -38.89990234 58.71728516 C-38.43839783 57.95708069 -37.97689331 57.19687622 -37.50140381 56.41363525 C-34.75879772 52.00466099 -31.83838066 47.71576177 -28.92578125 43.41796875 C-28.30702118 42.50322784 -27.68826111 41.58848694 -27.05075073 40.64602661 C-25.14026092 37.82497749 -23.22668471 35.00604303 -21.3125 32.1875 C-18.76498258 28.43230381 -16.2197498 24.67556984 -13.67578125 20.91796875 C-13.07726349 20.03591766 -12.47874573 19.15386658 -11.86209106 18.24508667 C-8.17574297 12.79640464 -4.60602902 7.30495592 -1.22338867 1.66137695 C-0.61781128 0.83899536 -0.61781128 0.83899536 0 0 Z"/>
<path transform="translate(407,463)" fill="#6756A2" d="M0 0 C-24.88464159 28.00351667 -76.53707474 41.79100972 -112 47 C-113.20462891 47.17732666 -114.40925781 47.35465332 -115.65039062 47.53735352 C-127.30767354 49.136325 -138.87186098 49.3584053 -150.625 49.3125 C-152.07983292 49.30976578 -152.07983292 49.30976578 -153.5640564 49.30697632 C-167.90047549 49.26163081 -181.90110118 48.81606394 -196 46 C-196.98742187 45.80712402 -197.97484375 45.61424805 -198.9921875 45.41552734 C-209.14530634 43.39787982 -219.11916277 41.09966164 -229 38 C-226.05603998 36.03735999 -225.30188736 35.73249384 -221.9921875 35.5078125 C-221.18515381 35.44505127 -220.37812012 35.38229004 -219.54663086 35.31762695 C-218.22417358 35.22227661 -218.22417358 35.22227661 -216.875 35.125 C-205.84348584 34.19019 -195.02527583 32.4987956 -184.11132812 30.67431641 C-179.18843184 29.86022056 -174.25810454 29.09402168 -169.328125 28.32421875 C-167.39459927 28.02116268 -165.46108705 27.71802047 -163.52758789 27.41479492 C-160.64724915 26.9630904 -157.76679025 26.51230088 -154.88571167 26.06533813 C-143.33750776 24.27131926 -131.87701932 22.23510296 -120.42749023 19.89257812 C-115.03529538 18.79350661 -109.62128515 17.86783133 -104.1875 17 C-102.12229336 16.66208404 -100.05719136 16.32352795 -97.9921875 15.984375 C-96.97995117 15.81873047 -95.96771484 15.65308594 -94.92480469 15.48242188 C-90.55006493 14.76084543 -86.18065195 14.01033798 -81.8125 13.25 C-80.92747803 13.0960376 -80.04245605 12.9420752 -79.13061523 12.78344727 C-72.15567317 11.56388974 -65.18513063 10.32003585 -58.21484375 9.07421875 C-56.23266847 8.72036387 -54.2504907 8.36652291 -52.26831055 8.01269531 C-48.34618413 7.31250941 -44.4245458 6.60967076 -40.50317383 5.90527344 C-31.48658673 4.29050057 -22.46519699 2.71244101 -13.421875 1.25390625 C-12.64330139 1.12596176 -11.86472778 0.99801727 -11.06256104 0.86619568 C-7.34180314 0.27707654 -3.76934043 -0.14967322 0 0 Z"/>
<path transform="translate(267,13)" fill="#6756A2" d="M0 0 C7.75463212 3.68558065 13.90120422 9.02503764 20 15 C20.62777344 15.59167969 21.25554687 16.18335937 21.90234375 16.79296875 C36.09896804 31.37589574 38.15863404 50.77065619 38.16796875 70.07421875 C38.17118891 71.64589975 38.17455353 73.21758046 38.17805481 74.78926086 C38.18402212 78.07655531 38.18589726 81.36382357 38.18530273 84.65112305 C38.18520143 88.82878139 38.19883206 93.0062686 38.21607494 97.18388653 C38.22728778 100.42959844 38.22921909 103.67527024 38.22869301 106.92099953 C38.22986002 108.45931397 38.23420836 109.99762989 38.24202538 111.53592491 C38.33546455 131.82729516 34.58404028 149.07293339 23 166 C22.62810547 166.55977539 22.25621094 167.11955078 21.87304688 167.69628906 C15.24885362 177.3417607 15.24885362 177.3417607 9.93945312 178.41748047 C5.18114392 178.654553 0.65005621 177.95684971 -4 177 C-4.27585937 175.90558594 -4.55171875 174.81117188 -4.8359375 173.68359375 C-6.14110187 169.55349308 -7.77111563 167.80403116 -11 165 C-10 162 -10 162 -7.4375 159.6875 C-4.71669972 157.22154283 -4.71669972 157.22154283 -4.6875 153.9375 C-4.790625 152.968125 -4.89375 151.99875 -5 151 C-5 146.57764663 -4.63868156 146.11305007 -2.0625 142.8125 C17.21890206 116.09120341 24.78588906 81.76101765 20.49609375 49.171875 C19.85613896 46.31950507 19.06894668 43.71780775 18 41 C17.67128906 40.14921875 17.34257812 39.2984375 17.00390625 38.421875 C12.85726773 29.06682893 5.95087988 22.15061209 -2.3515625 16.375 C-4.76518579 14.36174076 -5.71777946 11.82088519 -7 9 C-9.69884862 6.78308863 -10.96661856 6.99701951 -14.5 7.3125 C-17.03232575 7.80992113 -19.50386041 8.35954313 -22 9 C-22.12117187 8.38511719 -22.24234375 7.77023438 -22.3671875 7.13671875 C-22.53476563 6.32847656 -22.70234375 5.52023438 -22.875 4.6875 C-23.03742188 3.88699219 -23.19984375 3.08648437 -23.3671875 2.26171875 C-23.94478999 -0.25301118 -23.94478999 -0.25301118 -26 -3 C-18.01297548 -8.11169569 -7.921977 -3.25614011 0 0 Z"/>
<path transform="translate(208,190)" fill="#6857A3" d="M0 0 C-4.2827781 2.2291086 -8.75209956 3.9687128 -13.22265625 5.78125 C-16.12967611 6.96107156 -16.12967611 6.96107156 -19 9 C-18.00742188 9.21914062 -17.01484375 9.43828125 -15.9921875 9.6640625 C-4.33886908 12.34141024 8.297348 15.297348 17 24 C16.67 24.99 16.34 25.98 16 27 C1.35748952 27.81221938 -10.94380381 24.32896082 -24.07421875 18.07421875 C-26.79653136 16.88800692 -26.79653136 16.88800692 -29.01953125 16.984375 C-32.18885583 18.60966966 -34.53177632 21.04715033 -37 23.5625 C-37.57105469 24.14257812 -38.14210938 24.72265625 -38.73046875 25.3203125 C-70.20302157 58.04343033 -86.82066031 102.77735219 -101 145 C-104.95906817 143.56691865 -108.28718181 141.66858051 -111.8125 139.375 C-112.78832031 138.74335938 -113.76414062 138.11171875 -114.76953125 137.4609375 C-115.50558594 136.97882813 -116.24164063 136.49671875 -117 136 C-116.40107021 129.84153873 -113.93116351 124.48759628 -111.58203125 118.83203125 C-110.90801521 117.18750977 -110.90801521 117.18750977 -110.22038269 115.50976562 C-108.75676627 111.9416478 -107.28474357 108.37706576 -105.8125 104.8125 C-103.79571649 99.90725916 -101.78265551 95.00049352 -99.76953125 90.09375 C-99.2712381 88.88096878 -98.77294495 87.66818756 -98.259552 86.4186554 C-95.34114732 79.30657498 -92.45972734 72.18172361 -89.63671875 65.03125 C-89.31758011 64.2242717 -88.99844147 63.4172934 -88.66963196 62.58586121 C-87.50119861 59.62817611 -86.33364071 56.67026101 -85.18081665 53.70645142 C-77.24847806 33.31351288 -67.29387786 16.71608487 -46.77734375 7.08984375 C-31.80717528 1.21547384 -15.96833943 -0.44288153 0 0 Z"/>
<path transform="translate(315,265)" fill="#6856A2" d="M0 0 C8.92058854 11.00072578 16.63096392 22.88289767 24.45800781 34.66894531 C30.54635739 43.83448883 36.67400412 52.97289424 42.83291626 62.09118652 C43.85488088 63.60470782 44.87602961 65.11878037 45.89633179 66.63342285 C47.33238573 68.76488723 48.7712662 70.89441529 50.2109375 73.0234375 C50.63626266 73.65565216 51.06158783 74.28786682 51.49980164 74.9392395 C55.3014639 80.54792836 58.58339999 85.07788935 64.375 88.6875 C65.29023438 89.26886719 66.20546875 89.85023438 67.1484375 90.44921875 C77.28024926 95.95925884 89.15919004 95.04303437 100 92 C96.42149712 95.98343874 92.21501366 98.68547815 87.75 101.5625 C87.02425781 102.04396484 86.29851562 102.52542969 85.55078125 103.02148438 C75.90938311 109.26862916 67.62174366 111.43492957 56 110 C43.56635219 106.08941722 37.29828144 96.87617658 30.5 86.3671875 C29.90564651 85.46135422 29.31129303 84.55552094 28.69892883 83.62223816 C25.47652561 78.70574898 22.28553163 73.76922584 19.09838867 68.82983398 C11.3051658 56.68264207 11.3051658 56.68264207 2.55078125 45.23046875 C-7.58373077 33.02348865 -7.58373077 33.02348865 -6.83979797 24.32917786 C-4.31044986 4.31044986 -4.31044986 4.31044986 0 0 Z"/>
<path transform="translate(239,9)" fill="#A633DF" d="M0 0 C2.69990662 1.79993774 4.5418865 3.083773 6 6 C6.04022391 8.3329866 6.04320247 10.66706666 6 13 C6.845625 12.484375 7.69125 11.96875 8.5625 11.4375 C12.68668132 9.71284236 14.72260389 9.81183442 19 11 C22.1972537 13.18759464 22.89463695 14.66531737 24.0625 18.375 C23.9639464 24.09110871 20.93713608 26.06286392 17 30 C17.969375 30.680625 18.93875 31.36125 19.9375 32.0625 C22.58085922 34.2736512 23.0008622 35.00284019 24.0625 38.5 C23.99256618 42.41629414 23.48078416 44.00595015 21 47 C18.28780098 49.13101351 17.00358856 49.00025633 13.5 48.75 C10.5495576 48.11776234 8.60628849 47.39459297 6 46 C5.96132812 46.90492187 5.96132812 46.90492187 5.921875 47.828125 C5.6528521 51.61890228 5.43643452 54.31177634 3.375 57.5625 C0.00829472 59.60024267 -2.129815 59.54318386 -6 59 C-8.75329021 57.20437595 -10.52627461 55.94745078 -12 53 C-12.04022391 50.6670134 -12.04320247 48.33293334 -12 46 C-12.86625 46.495 -13.7325 46.99 -14.625 47.5 C-18.23584826 49.10482145 -20.11710972 49.66091749 -24 49 C-27.47621856 46.45077306 -28.78253065 44.66448969 -30.125 40.5625 C-29.9269247 34.91735405 -26.89464499 32.89464499 -23 29 C-23.969375 28.319375 -24.93875 27.63875 -25.9375 26.9375 C-28.58085922 24.7263488 -29.0008622 23.99715981 -30.0625 20.5 C-29.99256618 16.58370586 -29.48078416 14.99404985 -27 12 C-24.28780098 9.86898649 -23.00358856 9.99974367 -19.5 10.25 C-16.59784899 10.8718895 -14.5160502 11.49036988 -12 13 C-12.12375 11.4221875 -12.12375 11.4221875 -12.25 9.8125 C-11.96269651 5.43112175 -11.05154419 4.05154419 -8 1 C-5.14675563 -0.42662219 -3.16545451 -0.31033868 0 0 Z"/>
<path transform="translate(239,356)" fill="#CD4D1F" d="M0 0 C2.69990662 1.79993774 4.5418865 3.083773 6 6 C6.04022391 8.3329866 6.04320247 10.66706666 6 13 C6.845625 12.484375 7.69125 11.96875 8.5625 11.4375 C12.68668132 9.71284236 14.72260389 9.81183442 19 11 C22.1972537 13.18759464 22.89463695 14.66531737 24.0625 18.375 C23.99847444 22.08848228 23.86231172 22.71576818 21.6875 25.4375 C19 28 19 28 17 28 C17 28.99 17 29.98 17 31 C17.598125 31.2475 18.19625 31.495 18.8125 31.75 C21.45537263 33.26021293 22.60337792 34.28026227 24 37 C23.93142082 40.84043397 23.5544649 43.18962822 21.375 46.375 C18.15592034 48.57752819 15.89010867 48.93292916 12 49 C8.5625 47.5625 8.5625 47.5625 6 46 C5.98582031 46.60328125 5.97164062 47.2065625 5.95703125 47.828125 C5.56879552 54.33369668 5.56879552 54.33369668 2.8125 57.5625 C-0.53813897 59.27504881 -2.28744199 59.61875967 -6 59 C-8.8125 57.5625 -8.8125 57.5625 -11 55 C-11.70186779 52.0015795 -11.92775564 49.0736691 -12 46 C-12.845625 46.515625 -13.69125 47.03125 -14.5625 47.5625 C-18.68668132 49.28715764 -20.72260389 49.18816558 -25 48 C-28.1972537 45.81240536 -28.89463695 44.33468263 -30.0625 40.625 C-29.99847444 36.91151772 -29.86231172 36.28423182 -27.6875 33.5625 C-25 31 -25 31 -23 31 C-23 30.01 -23 29.02 -23 28 C-23.598125 27.7525 -24.19625 27.505 -24.8125 27.25 C-27.45537263 25.73978707 -28.60337792 24.71973773 -30 22 C-29.93142082 18.15956603 -29.5544649 15.81037178 -27.375 12.625 C-24.15592034 10.42247181 -21.89010867 10.06707084 -18 10 C-14.5625 11.4375 -14.5625 11.4375 -12 13 C-12.12375 11.4221875 -12.12375 11.4221875 -12.25 9.8125 C-11.96269651 5.43112175 -11.05154419 4.05154419 -8 1 C-5.14675563 -0.42662219 -3.16545451 -0.31033868 0 0 Z"/>
<path transform="translate(238.0625,78.51953125)" fill="#4169D3" d="M0 0 C3.5060303 0.86943897 4.94966563 2.56083702 6.9375 5.48046875 C7.25 9.29296875 7.25 9.29296875 6.9375 12.48046875 C7.618125 12.15046875 8.29875 11.82046875 9 11.48046875 C12.58246824 10.26090509 15.17195682 10.0770177 18.9375 10.48046875 C21.8125 12.04296875 21.8125 12.04296875 23.9375 14.48046875 C25.08638518 18.42976154 25.36879396 20.51005734 23.6875 24.29296875 C21.9375 26.48046875 21.9375 26.48046875 18.9375 28.48046875 C19.72814373 31.67312423 19.72814373 31.67312423 22.5 33.79296875 C24.9375 36.48046875 24.9375 36.48046875 25.5 39.48046875 C24.81392343 43.13954379 23.51015686 44.83214551 20.9375 47.48046875 C17.90717558 48.99563096 15.28635038 48.65074928 11.9375 48.48046875 C9 47.48046875 9 47.48046875 6.9375 46.48046875 C6.97875 47.38796875 7.02 48.29546875 7.0625 49.23046875 C6.94029905 52.4076934 6.69352869 53.89263699 4.9375 56.48046875 C1.26968328 58.9256799 -1.79703233 59.20284634 -6.0625 58.48046875 C-8.49369623 56.61031781 -9.70319173 55.1990853 -11.0625 52.48046875 C-11.102492 50.48086863 -11.10596799 48.47999633 -11.0625 46.48046875 C-12.0834375 46.97546875 -12.0834375 46.97546875 -13.125 47.48046875 C-16.70746824 48.70003241 -19.29695682 48.8839198 -23.0625 48.48046875 C-25.81579021 46.6848447 -27.58877461 45.42791953 -29.0625 42.48046875 C-29.49273798 38.60832693 -29.37919086 36.95550504 -27.1875 33.66796875 C-25.0625 31.48046875 -25.0625 31.48046875 -23.0625 30.48046875 C-23.80592172 27.40733774 -23.80592172 27.40733774 -26.0625 25.73046875 C-28.83114859 22.61573909 -29.13390715 20.62208352 -29.0625 16.48046875 C-27.125 13.04296875 -27.125 13.04296875 -24.0625 10.48046875 C-19.42556234 9.4261952 -15.28105213 10.37119269 -11.0625 12.48046875 C-11.165625 11.42859375 -11.26875 10.37671875 -11.375 9.29296875 C-11.0625 5.48046875 -11.0625 5.48046875 -9.0625 2.54296875 C-5.72661401 0.24954713 -3.96265906 -0.27768634 0 0 Z"/>
<path transform="translate(238.0625,425.51953125)" fill="#CC2525" d="M0 0 C3.5060303 0.86943897 4.94966563 2.56083702 6.9375 5.48046875 C7.25 9.29296875 7.25 9.29296875 6.9375 12.48046875 C7.618125 12.15046875 8.29875 11.82046875 9 11.48046875 C12.58246824 10.26090509 15.17195682 10.0770177 18.9375 10.48046875 C21.8125 12.04296875 21.8125 12.04296875 23.9375 14.48046875 C25.08638518 18.42976154 25.36879396 20.51005734 23.6875 24.29296875 C21.9375 26.48046875 21.9375 26.48046875 18.9375 28.48046875 C19.71270272 31.68333459 19.71270272 31.68333459 22.5625 33.66796875 C25.05469749 36.61925525 25.32921456 36.95565798 25.0625 40.54296875 C24.44744537 43.55559744 23.88171264 44.54610094 21.8125 46.98046875 C18.20745406 48.86136228 15.96067769 48.9115235 11.9375 48.48046875 C9 47.48046875 9 47.48046875 6.9375 46.48046875 C6.97875 47.38796875 7.02 48.29546875 7.0625 49.23046875 C6.94029905 52.4076934 6.69352869 53.89263699 4.9375 56.48046875 C1.26968328 58.9256799 -1.79703233 59.20284634 -6.0625 58.48046875 C-8.49369623 56.61031781 -9.70319173 55.1990853 -11.0625 52.48046875 C-11.102492 50.48086863 -11.10596799 48.47999633 -11.0625 46.48046875 C-12.0834375 46.97546875 -12.0834375 46.97546875 -13.125 47.48046875 C-16.70746824 48.70003241 -19.29695682 48.8839198 -23.0625 48.48046875 C-25.81579021 46.6848447 -27.58877461 45.42791953 -29.0625 42.48046875 C-29.49273798 38.60832693 -29.37919086 36.95550504 -27.1875 33.66796875 C-25.0625 31.48046875 -25.0625 31.48046875 -23.0625 30.48046875 C-23.80592172 27.40733774 -23.80592172 27.40733774 -26.0625 25.73046875 C-28.83114859 22.61573909 -29.13390715 20.62208352 -29.0625 16.48046875 C-27.125 13.04296875 -27.125 13.04296875 -24.0625 10.48046875 C-19.42556234 9.4261952 -15.28105213 10.37119269 -11.0625 12.48046875 C-11.165625 11.42859375 -11.26875 10.37671875 -11.375 9.29296875 C-11.0625 5.48046875 -11.0625 5.48046875 -9.0625 2.54296875 C-5.72661401 0.24954713 -3.96265906 -0.27768634 0 0 Z"/>
<path transform="translate(238.0625,286.51953125)" fill="#EFC86C" d="M0 0 C3.5060303 0.86943897 4.94966563 2.56083702 6.9375 5.48046875 C7.25 9.29296875 7.25 9.29296875 6.9375 12.48046875 C7.618125 12.15046875 8.29875 11.82046875 9 11.48046875 C12.58246824 10.26090509 15.17195682 10.0770177 18.9375 10.48046875 C22.69264634 12.52130915 23.71207968 13.76442773 25 17.85546875 C24.92353205 22.29060999 23.74394332 24.11273677 20.9375 27.48046875 C19.9475 27.97546875 19.9475 27.97546875 18.9375 28.48046875 C19.68092172 31.55359976 19.68092172 31.55359976 21.9375 33.23046875 C24.67448386 36.30957559 24.9375 38.39719081 24.9375 42.48046875 C23.17108828 45.28236321 21.90700178 46.99571786 18.9375 48.48046875 C14.38202917 48.73832559 11.0594364 48.47898337 6.9375 46.48046875 C6.89882812 47.40279297 6.89882812 47.40279297 6.859375 48.34375 C6.40153712 54.86793975 6.40153712 54.86793975 4.375 57.54296875 C-0.00002049 59.22566894 -4.12497951 59.22566894 -8.5 57.54296875 C-11.0007732 54.24194812 -10.89292096 50.52492889 -11.0625 46.48046875 C-12.0525 46.97546875 -12.0525 46.97546875 -13.0625 47.48046875 C-16.85349003 48.74413209 -20.11952713 49.37695956 -24.0625 48.48046875 C-27.125 45.91796875 -27.125 45.91796875 -29.0625 42.48046875 C-29.13426939 38.31784413 -28.72052675 36.30830885 -26.125 33.04296875 C-24.0625 31.48046875 -24.0625 31.48046875 -22.0625 31.48046875 C-22.84801665 28.30124294 -22.84801665 28.30124294 -25.5625 26.23046875 C-28.63417677 22.8516243 -29.14354411 21.01893908 -29.0625 16.48046875 C-27.29608828 13.67857429 -26.03200178 11.96521964 -23.0625 10.48046875 C-21.00390625 10.56640625 -21.00390625 10.56640625 -18.625 10.85546875 C-17.84253906 10.94570313 -17.06007812 11.0359375 -16.25390625 11.12890625 C-14.0625 11.48046875 -14.0625 11.48046875 -11.0625 12.48046875 C-11.165625 11.42859375 -11.26875 10.37671875 -11.375 9.29296875 C-11.0625 5.48046875 -11.0625 5.48046875 -9.0625 2.54296875 C-5.72661401 0.24954713 -3.96265906 -0.27768634 0 0 Z"/>
<path transform="translate(235.75,216.6875)" fill="#69B888" d="M0 0 C3.96287721 0.38104589 5.4323945 1.57539752 8.25 4.3125 C9.7283226 7.26914519 9.31032783 10.05479737 9.25 13.3125 C9.81847656 12.9928125 10.38695312 12.673125 10.97265625 12.34375 C14.71098658 10.65092117 18.240493 10.50774993 22.25 11.3125 C25.00348747 13.0590688 25.60729214 14.30086892 27.25 17.3125 C27.32176939 21.47512462 26.90802675 23.4846599 24.3125 26.75 C22.25 28.3125 22.25 28.3125 20.25 28.3125 C20.97906236 31.49276528 20.97906236 31.49276528 23.75 33.0625 C26.25 35.3125 26.25 35.3125 27.3125 38.6875 C27.23285736 43.30677287 26.52132701 45.04117299 23.25 48.3125 C19.32275962 49.53526715 15.78639025 49.98598614 11.96875 48.3125 C11.4015625 47.9825 10.834375 47.6525 10.25 47.3125 C9.9096875 49.16875 9.9096875 49.16875 9.5625 51.0625 C8.77265654 54.15605355 8.23551072 55.32905918 6.0625 57.8125 C2.39439219 59.76882417 0.34968997 60.04458749 -3.75 59.3125 C-7.76091219 55.65036279 -9.3635152 52.72328725 -9.75 47.3125 C-10.45125 47.6425 -11.1525 47.9725 -11.875 48.3125 C-15.17897847 49.4617099 -17.27903112 49.81868296 -20.75 49.3125 C-24.26695718 46.73339807 -25.54287553 44.99479237 -26.8125 40.8125 C-26.73656644 36.56022053 -25.7547581 35.23140787 -22.75 32.3125 C-22.09 31.9825 -21.43 31.6525 -20.75 31.3125 C-20.42 30.3225 -20.09 29.3325 -19.75 28.3125 C-20.348125 28.065 -20.94625 27.8175 -21.5625 27.5625 C-24.20537263 26.05228707 -25.35337792 25.03223773 -26.75 22.3125 C-26.68172242 18.48895571 -26.25774917 16.1045887 -24.1875 12.875 C-20.77016998 10.68440383 -17.64688988 10.77233705 -13.75 11.3125 C-10.75 12.3125 -10.75 12.3125 -8.75 13.3125 C-8.853125 12.260625 -8.95625 11.20875 -9.0625 10.125 C-8.75 6.3125 -8.75 6.3125 -6.3125 3.4375 C-5.466875 2.73625 -4.62125 2.035 -3.75 1.3125 C-2.75 0.3125 -2.75 0.3125 0 0 Z"/>
<path transform="translate(235.4375,147.3125)" fill="#72BAB3" d="M0 0 C4.55408926 0.87885933 6.47896817 2.23688105 9.5625 5.6875 C10.4375 9.5 10.4375 9.5 10.5625 12.6875 C11.09875 12.3575 11.635 12.0275 12.1875 11.6875 C15.21915399 10.41101411 17.29352046 10.35393066 20.5625 10.6875 C24.05656769 12.35512322 25.38920681 13.42756022 27.5625 16.6875 C28.07085292 20.5848724 27.89212183 22.19306726 25.6875 25.5 C23.5625 27.6875 23.5625 27.6875 21.5625 28.6875 C22.54018772 30.86849569 23.29833215 32.4553525 25.109375 34.046875 C27.44238677 36.68092055 27.04159152 39.14280029 26.8984375 42.5234375 C26.5625 44.6875 26.5625 44.6875 25.125 47.25 C21.36334698 49.36019559 17.78512497 49.3268411 13.5625 48.6875 C11.28125 47.6640625 11.28125 47.6640625 9.5625 46.6875 C9.52511719 47.30238281 9.48773438 47.91726562 9.44921875 48.55078125 C9.38347656 49.35902344 9.31773437 50.16726562 9.25 51 C9.16298828 52.20076172 9.16298828 52.20076172 9.07421875 53.42578125 C8.46303301 56.1271289 7.76892167 57.04409627 5.5625 58.6875 C1.03527931 59.78279533 -1.15125705 60.28957117 -5.375 58.3125 C-8.26354664 54.63616792 -8.33003572 51.25961678 -8.4375 46.6875 C-9.0046875 47.00976562 -9.571875 47.33203125 -10.15625 47.6640625 C-13.87574393 49.33273957 -17.44093912 49.25215172 -21.4375 48.6875 C-24 47.25 -24 47.25 -25.4375 44.6875 C-26.10290789 41.53122893 -26.20923071 38.83034536 -25.4375 35.6875 C-23.62279514 33.4112517 -21.92665783 32.2950811 -19.4375 30.6875 C-20.22125 29.924375 -21.005 29.16125 -21.8125 28.375 C-24.59495231 25.52629882 -26.27022136 23.78675966 -26.875 19.8125 C-26.29631562 15.67904015 -24.5487259 14.34342455 -21.4375 11.6875 C-21.1075 11.3575 -20.7775 11.0275 -20.4375 10.6875 C-15.97675362 10.37628514 -12.6005737 11.10156716 -8.4375 12.6875 C-8.540625 11.82125 -8.64375 10.955 -8.75 10.0625 C-8.22387718 4.38037354 -5.63463308 1.12692662 0 0 Z"/>
<path transform="translate(259.66357421875,495.358642578125)" fill="#381A5E" d="M0 0 C18.88625467 2.84431546 37.99382537 4.82257461 57.09594727 5.26318359 C61.07092719 5.38108028 63.87137581 5.70680486 67.33642578 7.64135742 C30.02356555 17.45026111 -10.47986246 21.2680363 -48.66357422 13.64135742 C-49.65099609 13.44848145 -50.63841797 13.25560547 -51.65576172 13.05688477 C-61.80888056 11.03923724 -71.78273699 8.74101907 -81.66357422 5.64135742 C-78.7196142 3.67871741 -77.96546157 3.37385126 -74.65576172 3.14916992 C-73.44182739 3.05418213 -73.44182739 3.05418213 -72.20336914 2.95727539 C-71.32398682 2.89427246 -70.44460449 2.83126953 -69.53857422 2.76635742 C-61.21719519 2.09155254 -53.07542679 0.93945466 -44.85107422 -0.48364258 C-29.19277811 -3.07430384 -15.66114607 -2.37518534 0 0 Z"/>
<path transform="translate(5,306)" fill="#6756A2" d="M0 0 C2.70086494 1.29896801 5.20059004 2.71876032 7.69067383 4.38476562 C8.40674805 4.86219208 9.12282227 5.33961853 9.8605957 5.83151245 C10.63491943 6.35117584 11.40924316 6.87083923 12.20703125 7.40625 C13.02864746 7.95499786 13.85026367 8.50374573 14.69677734 9.06912231 C16.47460468 10.2569221 18.25172898 11.44577469 20.02822876 12.63555908 C22.8312524 14.51255723 25.6364068 16.3863303 28.44213867 18.25927734 C37.14238235 24.06868618 45.8360357 29.8878432 54.52192688 35.71868896 C58.09743102 38.11800478 61.67518815 40.51394744 65.25326538 42.90942383 C66.95337158 44.04908553 68.65229555 45.1905129 70.3500061 46.33374023 C72.71626392 47.92715938 75.08622227 49.51492595 77.45703125 51.1015625 C78.49802979 51.80588913 78.49802979 51.80588913 79.56005859 52.52444458 C84.15174755 55.5862621 88.30341659 58.26657452 93.99609375 58.23046875 C94.71990234 58.22853516 95.44371094 58.22660156 96.18945312 58.22460938 C96.93130859 58.21236328 97.67316406 58.20011719 98.4375 58.1875 C99.54448242 58.1865332 99.54448242 58.1865332 100.67382812 58.18554688 C104.88394895 58.15186591 108.85453367 57.82120965 113 57 C108.55593155 63.16435302 102.6336481 67.61959347 95 69 C92.67258212 69.2209928 90.33650614 69.3571826 88 69.4375 C86.783125 69.49808594 85.56625 69.55867188 84.3125 69.62109375 C70.96438451 68.5560257 57.67425469 56.26353297 47.0625 49 C44.30534123 47.12263018 41.54677452 45.2473522 38.78752136 43.37306213 C36.95579341 42.12651957 35.12644281 40.87647629 33.29951477 39.62290955 C28.60131676 36.40631072 23.87260383 33.26399518 19.05737305 30.22485352 C17.6159922 29.30295227 17.6159922 29.30295227 16.14549255 28.36242676 C14.31989103 27.19863903 12.48374283 26.05116828 10.63563538 24.92346191 C5.13548991 21.39284831 2.22326846 18.38209863 0.6875 11.9375 C0.08495133 7.93332906 -0.08410826 4.04484269 0 0 Z"/>
<path transform="translate(486,260)" fill="#6756A2" d="M0 0 C-0.57621094 0.27714844 -1.15242188 0.55429687 -1.74609375 0.83984375 C-4.65563886 2.33747789 -7.35213768 4.1030142 -10.09765625 5.87890625 C-12 7 -12 7 -15 8 C-16.10168984 9.69769234 -16.10168984 9.69769234 -17 12 C-17.7734375 13.4540625 -17.7734375 13.4540625 -18.5625 14.9375 C-20.19759737 18.5239164 -19.93989131 21.47591606 -19.8125 25.375 C-20.09356998 29.56246635 -20.35458259 31.35884981 -23.36328125 34.34765625 C-26.40104572 36.29400833 -29.45707677 38.03846576 -32.64501953 39.72021484 C-37.22674806 42.21009883 -41.62367111 45.01624271 -46.0625 47.75 C-48.0564998 48.96094031 -50.05129825 50.17056645 -52.046875 51.37890625 C-57.65522431 54.78345488 -63.23785643 58.22810956 -68.8125 61.6875 C-70.52339461 62.74746506 -72.2343316 63.80736172 -73.9453125 64.8671875 C-76.50723886 66.45437086 -79.06849803 68.04258536 -81.62792969 69.63378906 C-84.14520939 71.19756798 -86.6659438 72.75562911 -89.1875 74.3125 C-89.94844971 74.7871167 -90.70939941 75.2617334 -91.4934082 75.75073242 C-96.77217136 79 -96.77217136 79 -99 79 C-99.84266711 77.25447527 -100.67380038 75.5033792 -101.5 73.75 C-101.9640625 72.77546875 -102.428125 71.8009375 -102.90625 70.796875 C-104 68 -104 68 -104 64 C-103.08524902 63.51756836 -102.17049805 63.03513672 -101.22802734 62.53808594 C-76.81816754 49.71134203 -76.81816754 49.71134203 -52.609375 36.51171875 C-49.70351519 34.89835365 -46.78590015 33.40608614 -43.765625 32.01953125 C-36.7761377 28.69609857 -33.11090209 25.70713964 -30.5 18.4375 C-30.06282462 17.12965567 -29.63161429 15.81979892 -29.20703125 14.5078125 C-27.05256207 8.24660433 -23.7355893 4.65199284 -17.9375 1.5625 C-12.13927502 -0.77068985 -6.14130994 -0.34171122 0 0 Z"/>
<path transform="translate(208,102)" fill="#6857A3" d="M0 0 C3 0 3 0 5.6875 2.5 C6.450625 3.325 7.21375 4.15 8 5 C7 8 7 8 4.4375 10.3125 C1.7802125 12.7863169 1.7802125 12.7863169 1.375 16 C2.237881 20.14182881 3.55849135 21.56226471 7 24 C9.69788148 24.27404389 12.27962027 24.09476733 15 24 C19.77553612 47.78877436 19.77553612 47.78877436 19 58 C18.18015625 57.9278125 17.3603125 57.855625 16.515625 57.78125 C15.43796875 57.6884375 14.3603125 57.595625 13.25 57.5 C11.64898437 57.36078125 11.64898437 57.36078125 10.015625 57.21875 C7.6820782 57.04947717 5.33967818 57 3 57 C1.33229545 54.97162737 0.02752058 53.10748835 -1.3125 50.875 C-1.70276367 50.24263428 -2.09302734 49.61026855 -2.49511719 48.95874023 C-17.52174589 24.2077361 -17.52174589 24.2077361 -18.125 11.33203125 C-16.27294699 7.49287969 -12.76677483 6.43275164 -9 4.75 C-7.52029053 4.05845193 -6.04109587 3.36580086 -4.5625 2.671875 C-3.386875 2.12015625 -2.21125 1.5684375 -1 1 C-0.67 0.67 -0.34 0.34 0 0 Z"/>
<path transform="translate(407,463)" fill="#391B60" d="M0 0 C-3.67497234 4.16034605 -8.14515797 6.84244514 -12.8125 9.75 C-13.65111572 10.27352051 -14.48973145 10.79704102 -15.35375977 11.33642578 C-20.65706715 14.61662519 -25.98954101 17.8402079 -31.4375 20.875 C-32.04505127 21.2265918 -32.65260254 21.57818359 -33.27856445 21.94042969 C-37.41195557 24.170757 -37.41195557 24.170757 -40.15234375 23.375 C-40.76207031 22.92125 -41.37179687 22.4675 -42 22 C-42.66257812 21.54882812 -43.32515625 21.09765625 -44.0078125 20.6328125 C-44.70648438 20.13523437 -45.40515625 19.63765625 -46.125 19.125 C-50.8149566 15.94113596 -55.67532289 13.88976014 -61 12 C-61 11.34 -61 10.68 -61 10 C-48.07889417 7.24046735 -35.09042412 4.93756579 -22.0625 2.75 C-21.25824585 2.61358093 -20.4539917 2.47716187 -19.62536621 2.33660889 C-17.30436222 1.94382269 -14.98245852 1.55690239 -12.66015625 1.171875 C-11.61273003 0.99402969 -11.61273003 0.99402969 -10.54414368 0.81259155 C-6.9920419 0.23173238 -3.59998646 -0.13045005 0 0 Z"/>
<path transform="translate(295,199)" fill="#6857A3" d="M0 0 C0.66 0.99 1.32 1.98 2 3 C-8.3568631 13.60946952 -27.74872513 19.10030261 -42.4375 19.3125 C-46 19 -46 19 -48 18 C-47.6521199 15.30392923 -47.29166161 14.24367455 -45.171875 12.47265625 C-32.80757133 5.27344073 -14.73216325 -3.10471209 0 0 Z"/>
<path transform="translate(227,55)" fill="#6857A4" d="M0 0 C0.14695313 0.92232422 0.14695313 0.92232422 0.296875 1.86328125 C1.13404801 6.85528231 1.13404801 6.85528231 3.8125 11 C6.19814687 12.09058142 8.42911569 12.5240677 11 13 C10.0936096 14.92154764 9.17443196 16.83706654 8.25 18.75 C7.73953125 19.81734375 7.2290625 20.8846875 6.703125 21.984375 C5.06560612 24.88383503 3.32861538 26.67138462 1 29 C0.19234122 32.64721696 0.19234122 32.64721696 0 36 C-3.63 35.34 -7.26 34.68 -11 34 C-11.02707879 30.14578575 -11.04687762 26.29176362 -11.0625 22.4375 C-11.07087891 21.35146484 -11.07925781 20.26542969 -11.08789062 19.14648438 C-11.10459218 13.65167389 -10.98582259 8.41038065 -10 3 C-8.70990357 2.49596232 -7.41786211 1.99690074 -6.125 1.5 C-5.04605469 1.08234375 -5.04605469 1.08234375 -3.9453125 0.65625 C-2 0 -2 0 0 0 Z"/>
<path transform="translate(264,158)" fill="#594C94" d="M0 0 C2.30645054 2.30645054 2.49719135 3.50760007 3.25 6.625 C5.20325544 13.38326381 8.44539634 18.76802104 14.625 22.375 C15.73875 22.91125 16.8525 23.4475 18 24 C19.33427495 24.6647801 20.66783216 25.33100742 22 26 C20.07946205 29.10538596 18.18964405 31.18413707 15 33 C9.68570315 33.65217815 4.26475838 32.75210834 -1 32 C-1.41378906 30.35837891 -1.41378906 30.35837891 -1.8359375 28.68359375 C-3.14110187 24.55349308 -4.77111563 22.80403116 -8 20 C-7 17 -7 17 -4.4375 14.6875 C-1.71669972 12.22154283 -1.71669972 12.22154283 -1.6875 8.9375 C-1.790625 7.968125 -1.89375 6.99875 -2 6 C-2 2 -2 2 0 0 Z"/>
<path transform="translate(223,367)" fill="#D96133" d="M0 0 C0.66 0.33 1.32 0.66 2 1 C0.880462 3.51896049 -0.31981552 5.39734655 -2.0625 7.5625 C-6.09730299 12.63854247 -5.60749763 18.79367285 -5 25 C-3.35483451 28.23360113 -1.77946268 30.22053732 0.75 32.75 C2 34 2 34 2 36 C-0.72612745 37.85376666 -2.13623489 37.99513447 -5.5 37.875 C-9.39257014 36.90185747 -10.74897767 36.28995572 -13 33 C-14.0625 29.625 -14.0625 29.625 -14 26 C-12.59814001 23.47775585 -11.13389553 22.03464457 -9 20 C-8.34 20 -7.68 20 -7 20 C-7 19.01 -7 18.02 -7 17 C-7.598125 16.7525 -8.19625 16.505 -8.8125 16.25 C-11.45537263 14.73978707 -12.60337792 13.71973773 -14 11 C-13.92806179 6.97146033 -13.63067947 4.77309097 -11.0625 1.625 C-7.10358425 -1.49414574 -4.90195746 -0.87534955 0 0 Z"/>
<path transform="translate(254.5,366.0625)" fill="#DA6132" d="M0 0 C3.86218548 1.03451397 5.25640739 1.6584031 7.5 4.9375 C8.5625 8.3125 8.5625 8.3125 8.5 11.9375 C7.09814001 14.45974415 5.63389553 15.90285543 3.5 17.9375 C2.84 17.9375 2.18 17.9375 1.5 17.9375 C1.5 18.9275 1.5 19.9175 1.5 20.9375 C2.098125 21.185 2.69625 21.4325 3.3125 21.6875 C5.95537263 23.19771293 7.10337792 24.21776227 8.5 26.9375 C8.43142082 30.77793397 8.0544649 33.12712822 5.875 36.3125 C2.66559236 38.50841049 0.37593014 38.9375 -3.5 38.9375 C-5.9375 37 -5.9375 37 -7.5 34.9375 C-7.07847656 34.46699219 -6.65695313 33.99648438 -6.22265625 33.51171875 C-5.67480469 32.88910156 -5.12695312 32.26648438 -4.5625 31.625 C-4.01722656 31.01011719 -3.47195312 30.39523437 -2.91015625 29.76171875 C0.7323715 25.04963992 0.05336359 18.58330422 -0.5 12.9375 C-2.13452093 9.44023479 -2.13452093 9.44023479 -4.5 6.9375 C-5.0775 6.15375 -5.655 5.37 -6.25 4.5625 C-6.6625 4.02625 -7.075 3.49 -7.5 2.9375 C-4.87928566 0.31678566 -3.78465212 -0.06758307 0 0 Z"/>
<path transform="translate(218.0625,435.4375)" fill="#D74044" d="M0 0 C3.75888382 0.5369834 5.30706446 0.93206446 7.9375 3.5625 C7.174375 4.119375 6.41125 4.67625 5.625 5.25 C2.13964092 8.2490299 0.20899197 10.78924167 -0.49609375 15.39453125 C-0.50469765 21.95930441 -0.09777552 27.19932231 3.9375 32.5625 C6.50559828 35.0220774 6.50559828 35.0220774 8.9375 36.5625 C4.80513795 38.56606948 1.51188521 39.0526127 -3.0625 38.5625 C-5.81579021 36.76687595 -7.58877461 35.50995078 -9.0625 32.5625 C-9.49273798 28.69035818 -9.37919086 27.03753629 -7.1875 23.75 C-5.0625 21.5625 -5.0625 21.5625 -3.0625 20.5625 C-3.80592172 17.48936899 -3.80592172 17.48936899 -6.0625 15.8125 C-8.83114859 12.69777034 -9.13390715 10.70411477 -9.0625 6.5625 C-6.697666 2.36682677 -4.85416454 0.19998431 0 0 Z"/>
<path transform="translate(257,436)" fill="#D74043" d="M0 0 C2.875 1.5625 2.875 1.5625 5 4 C6.14888518 7.94929279 6.43129396 10.02958859 4.75 13.8125 C3 16 3 16 0 18 C0.77520272 21.20286584 0.77520272 21.20286584 3.625 23.1875 C6.11719749 26.1387865 6.39171456 26.47518923 6.125 30.0625 C5.50994537 33.07512869 4.94421264 34.06563219 2.875 36.5 C-0.73579648 38.38389381 -2.97586091 38.51216316 -7 38 C-9.4375 36.5 -9.4375 36.5 -11 35 C-10.236875 34.484375 -9.47375 33.96875 -8.6875 33.4375 C-3.90873415 29.10327051 -2.82003768 24.80755967 -2.5 18.5625 C-2.68754548 11.38641773 -5.96523812 6.84282081 -11 2 C-7.34148709 -0.34144827 -4.27169964 -0.44965259 0 0 Z"/>
<path transform="translate(255,39)" fill="#C777F6" d="M0 0 C3.47984709 1.88099843 6.20056745 3.40113491 8 7 C7.93142082 10.84043397 7.5544649 13.18962822 5.375 16.375 C2.21235144 18.53891744 -0.19375985 18.86406285 -4 19 C-6.4375 18.0625 -6.4375 18.0625 -8 17 C-7.505 15.515 -7.505 15.515 -7 14 C-6.34 14 -5.68 14 -5 14 C-3.38274466 10.99049877 -2.32417377 8.02896392 -1.375 4.75 C-1.11460937 3.85796875 -0.85421875 2.9659375 -0.5859375 2.046875 C-0.39257812 1.37140625 -0.19921875 0.6959375 0 0 Z"/>
<path transform="translate(217,40)" fill="#C676F4" d="M0 0 C0.19335938 0.60328125 0.38671875 1.2065625 0.5859375 1.828125 C0.84632813 2.62734375 1.10671875 3.4265625 1.375 4.25 C1.63023437 5.03890625 1.88546875 5.8278125 2.1484375 6.640625 C2.96490117 8.90275371 3.73919935 10.95006514 5 13 C5.99 13.33 6.98 13.66 8 14 C8 14.66 8 15.32 8 16 C4.58459721 18.10178633 1.97748585 18.56821226 -2 18 C-5.47621856 15.45077306 -6.78253065 13.66448969 -8.125 9.5625 C-7.99850784 5.95747347 -7.83673934 5.24364388 -5.75 2.5625 C-3 0 -3 0 0 0 Z"/>
<path transform="translate(258,20)" fill="#C677F5" d="M0 0 C3.1972537 2.18759464 3.89463695 3.66531737 5.0625 7.375 C4.99897697 11.05933597 4.89590575 11.67803084 2.75 14.375 C0 17 0 17 -3 18 C-3.20625 16.824375 -3.4125 15.64875 -3.625 14.4375 C-4.67069338 10.10863695 -6.69226465 7.59886651 -9.7578125 4.4453125 C-11 3 -11 3 -11 1 C-7.21908853 -1.5710198 -4.32093764 -1.08023441 0 0 Z"/>
<path transform="translate(217,109)" fill="#577BF5" d="M0 0 C0.24234375 0.73605469 0.4846875 1.47210938 0.734375 2.23046875 C2.53852263 7.48331396 4.06399948 11.92342803 8 16 C4.2626144 18.4915904 2.42668417 18.45793285 -2 18 C-4.75329021 16.20437595 -6.52627461 14.94745078 -8 12 C-8.43023798 8.12785818 -8.31669086 6.47503629 -6.125 3.1875 C-3.02857143 0 -3.02857143 0 0 0 Z"/>
<path transform="translate(223,20)" fill="#C676F4" d="M0 0 C0.66 0.33 1.32 0.66 2 1 C0.90098758 3.47277795 -0.21512286 5.24873581 -2 7.3125 C-4.41722596 10.56064738 -5.07940632 13.08747686 -6 17 C-8.97850904 16.68087403 -10.06711428 15.93832742 -12.3125 13.875 C-14 11 -14 11 -14 7.4375 C-12.92933011 3.75707225 -11.97168987 2.34133141 -9 0 C-5.90914327 -1.54542837 -3.32167685 -0.59315658 0 0 Z"/>
<path transform="translate(255,248)" fill="#80DAB3" d="M0 0 C2.74892592 0.89154354 4.71566361 1.74409725 6.875 3.6875 C8.53914061 7.10823348 7.90706301 9.37174797 7 13 C6 15.375 6 15.375 4 17 C0.99804714 17.76168953 -1.90385997 18.16826848 -5 18 C-5.99 17.34 -6.98 16.68 -8 16 C-8 15.34 -8 14.68 -8 14 C-7.236875 13.319375 -6.47375 12.63875 -5.6875 11.9375 C-2.31759204 8.25411223 -1.27201098 4.74677268 0 0 Z"/>
<path transform="translate(255,109)" fill="#587BF6" d="M0 0 C3.87187551 1.25574341 6.06837517 2.34007927 8 6 C8.58490372 9.92721068 8.34594305 11.48108543 6.125 14.8125 C3.34538119 17.6738723 2.5942601 17.95678108 -1.4375 18.25 C-5 18 -5 18 -6.9375 16.5 C-7.288125 16.005 -7.63875 15.51 -8 15 C-7.236875 14.195625 -6.47375 13.39125 -5.6875 12.5625 C-2.51756027 8.80720208 -1.27944127 4.6808827 0 0 Z"/>
<path transform="translate(239,356)" fill="#DB6130" d="M0 0 C2.69990662 1.79993774 4.5418865 3.083773 6 6 C6.039992 7.99960012 6.04346799 10.00047242 6 12 C5.20335937 11.91621094 4.40671875 11.83242188 3.5859375 11.74609375 C-4.24114462 10.95272862 -4.24114462 10.95272862 -12 12 C-12.35671933 8.16526716 -12.29771416 6.44657125 -10.125 3.1875 C-6.82233621 -0.21230096 -4.68601439 -0.45941318 0 0 Z"/>
<path transform="translate(256,158)" fill="#9AEAF1" d="M0 0 C3.49406769 1.66762322 4.82670681 2.74006022 7 6 C7.49819995 9.81953295 7.30357932 11.51210466 5.25 14.8125 C2.94162817 17.05675039 2.02670903 17.40864718 -1 18 C-1.15855469 17.40832031 -1.31710938 16.81664062 -1.48046875 16.20703125 C-3.06708906 10.83356026 -4.72624563 7.81172687 -9 4 C-9 3.34 -9 2.68 -9 2 C-5.4913604 -0.33909307 -4.12910567 -0.41291057 0 0 Z"/>
<path transform="translate(217.8125,157.8125)" fill="#99EAF1" d="M0 0 C3.05448544 0.17967561 4.62545344 0.61085596 7.1875 2.1875 C7.1875 2.8475 7.1875 3.5075 7.1875 4.1875 C6.0428125 5.2084375 6.0428125 5.2084375 4.875 6.25 C1.50509204 9.93338777 0.45951098 13.44072732 -0.8125 18.1875 C-4.68437551 16.93175659 -6.88087517 15.84742073 -8.8125 12.1875 C-9.3125 9.25 -9.3125 9.25 -8.8125 6.1875 C-6.375 3.375 -6.375 3.375 -3.8125 1.1875 C-2.8125 0.1875 -2.8125 0.1875 0 0 Z"/>
<path transform="translate(222,89)" fill="#567BF5" d="M0 0 C2 1.5 2 1.5 3 3 C1.8553125 4.2065625 1.8553125 4.2065625 0.6875 5.4375 C-2.48243973 9.19279792 -3.72055873 13.3191173 -5 18 C-8.10331257 17.07739356 -9.74711947 16.29502729 -11.875 13.8125 C-13.37482524 10.0629369 -13.05590483 7.87165104 -12 4 C-8.83248645 -0.94132114 -5.40346192 -0.60038466 0 0 Z"/>
<path transform="translate(257,297)" fill="#F1DA70" d="M0 0 C3.75514634 2.0408404 4.77457968 3.28395898 6.0625 7.375 C5.98670054 11.77136869 4.71733269 13.62391999 2 17 C0.16015625 16.80859375 0.16015625 16.80859375 -2 16 C-3.37890625 13.78515625 -3.37890625 13.78515625 -4.5625 11.0625 C-6.39069831 6.84932344 -6.39069831 6.84932344 -10 4 C-9.67 3.01 -9.34 2.02 -9 1 C-5.89951072 -0.55024464 -3.42105782 -0.28992015 0 0 Z"/>
<path transform="translate(238.0625,286.51953125)" fill="#F2DC6F" d="M0 0 C3.5060303 0.86943897 4.94966563 2.56083702 6.9375 5.48046875 C7.25 9.29296875 7.25 9.29296875 6.9375 12.48046875 C6.39222656 12.31804687 5.84695312 12.155625 5.28515625 11.98828125 C2.5915846 11.40564512 0.12971439 11.34797293 -2.625 11.35546875 C-3.57503906 11.35289062 -4.52507812 11.3503125 -5.50390625 11.34765625 C-8.1837438 11.37275881 -8.1837438 11.37275881 -11.0625 12.48046875 C-11.47918469 8.23028496 -11.50272082 6.12704307 -9.0625 2.54296875 C-5.72661401 0.24954713 -3.96265906 -0.27768634 0 0 Z"/>
<path transform="translate(215,248)" fill="#80DAB3" d="M0 0 C2.62487335 3.14984802 4.25891418 6.48843548 5.9375 10.1953125 C7.01445951 12.32423099 7.01445951 12.32423099 10 14 C10 14.66 10 15.32 10 16 C6.58459721 18.10178633 3.97748585 18.56821226 0 18 C-3.51695718 15.42089807 -4.79287553 13.68229237 -6.0625 9.5 C-5.98656644 5.24772053 -5.0047581 3.91890787 -2 1 C-1.34 0.67 -0.68 0.34 0 0 Z"/>
<path transform="translate(257,89)" fill="#577BF7" d="M0 0 C2.875 1.5625 2.875 1.5625 5 4 C6.13146455 7.88940939 6.38624541 10.03438646 4.875 13.8125 C2.74711947 16.29502729 1.10331257 17.07739356 -2 18 C-2.15855469 17.43152344 -2.31710938 16.86304687 -2.48046875 16.27734375 C-4.18134308 10.6484834 -6.36375392 6.61901529 -10 2 C-6.2626144 -0.4915904 -4.42668417 -0.45793285 0 0 Z"/>
<path transform="translate(238.0625,425.515625)" fill="#D83F41" d="M0 0 C3.46145669 0.86536417 4.94931405 2.62635769 6.9375 5.484375 C6.9375 7.464375 6.9375 9.444375 6.9375 11.484375 C0.9975 11.484375 -4.9425 11.484375 -11.0625 11.484375 C-11.0625 5.484375 -11.0625 5.484375 -9.0625 2.609375 C-5.7199165 0.24171169 -4.00236585 -0.27288858 0 0 Z"/>
<path transform="translate(235.75,216.6875)" fill="#80DAB3" d="M0 0 C3.96287721 0.38104589 5.4323945 1.57539752 8.25 4.3125 C9.60439668 7.02129335 9.31501451 9.32183268 9.25 12.3125 C8.36957031 12.22871094 7.48914063 12.14492187 6.58203125 12.05859375 C4.83986328 11.90583984 4.83986328 11.90583984 3.0625 11.75 C1.91394531 11.64558594 0.76539063 11.54117188 -0.41796875 11.43359375 C-3.43631199 11.32390015 -5.83923936 11.57247611 -8.75 12.3125 C-9.0625 9.625 -9.0625 9.625 -8.75 6.3125 C-6.3125 3.5 -6.3125 3.5 -3.75 1.3125 C-2.75 0.3125 -2.75 0.3125 0 0 Z"/>
<path transform="translate(235.4375,147.3125)" fill="#9BEEF3" d="M0 0 C4.78928081 0.92424717 6.3477954 2.00235082 9.5625 5.6875 C9.9375 9.5 9.9375 9.5 9.5625 12.6875 C8.9025 12.5225 8.2425 12.3575 7.5625 12.1875 C2.14313618 11.2842727 -3.08898842 11.3503721 -8.4375 12.6875 C-8.92625646 8.58194576 -8.56632814 6.89830968 -6.375 3.3125 C-3.4375 0.6875 -3.4375 0.6875 0 0 Z"/>
<path transform="translate(238.0625,78.515625)" fill="#577BF7" d="M0 0 C3.46145669 0.86536417 4.94931405 2.62635769 6.9375 5.484375 C6.9375 7.464375 6.9375 9.444375 6.9375 11.484375 C0.9975 11.484375 -4.9425 11.484375 -11.0625 11.484375 C-11.0625 5.484375 -11.0625 5.484375 -9.0625 2.609375 C-5.7199165 0.24171169 -4.00236585 -0.27288858 0 0 Z"/>
<path transform="translate(227,472)" fill="#DA4041" d="M0 0 C0.99 0.33 1.98 0.66 3 1 C4.81054127 1.09398229 6.62452781 1.12991987 8.4375 1.125 C9.85869141 1.12886719 9.85869141 1.12886719 11.30859375 1.1328125 C13.70140459 1.01473475 15.71336153 0.68112635 18 0 C18.17758833 3.90694321 18.23513741 6.70611329 16 10 C12.33218328 12.44521115 9.26546767 12.72237759 5 12 C2.56880377 10.12984906 1.35930827 8.71861655 0 6 C-0.039992 4.00039988 -0.04346799 1.99952758 0 0 Z"/>
<path transform="translate(227,334)" fill="#F3DC6F" d="M0 0 C5.94 0 11.88 0 18 0 C17 8 17 8 15.4375 10 C11.08612282 11.78518038 6.91387718 11.78518038 2.5625 10 C1 8 1 8 0 0 Z"/>
<path transform="translate(224,298)" fill="#F1DB70" d="M0 0 C0.33 0.99 0.66 1.98 1 3 C0.2575 3.66 -0.485 4.32 -1.25 5 C-4.46180754 8.17520574 -6.18475721 11.91316847 -8 16 C-10.94036287 15.42775547 -11.79389451 15.24164092 -13.8125 12.875 C-15.38905026 9.05808885 -15.14812282 6.9466722 -14 3 C-9.93179829 -2.08525214 -5.81306757 -1.16514644 0 0 Z"/>
<path transform="translate(227,264)" fill="#80DDB2" d="M0 0 C0.66 0.165 1.32 0.33 2 0.5 C7.41936382 1.4032273 12.65148842 1.3371279 18 0 C18.35671933 3.83473284 18.29771416 5.55342875 16.125 8.8125 C13.43302791 11.58364773 12.549607 11.9274104 8.6875 12.4375 C5 12 5 12 2.0625 9.375 C-0.12882814 5.78919032 -0.48875646 4.10555424 0 0 Z"/>
<path transform="translate(227,125)" fill="#577CF7" d="M0 0 C0.99 0.33 1.98 0.66 3 1 C4.81054127 1.09398229 6.62452781 1.12991987 8.4375 1.125 C9.85869141 1.12886719 9.85869141 1.12886719 11.30859375 1.1328125 C13.70140459 1.01473475 15.71336153 0.68112635 18 0 C18.17758833 3.90694321 18.23513741 6.70611329 16 10 C12.33218328 12.44521115 9.26546767 12.72237759 5 12 C2.56880377 10.12984906 1.35930827 8.71861655 0 6 C-0.039992 4.00039988 -0.04346799 1.99952758 0 0 Z"/>
<path transform="translate(256,318)" fill="#F2DC70" d="M0 0 C2.71121495 0.85617314 4.55388461 1.45249475 6.375 3.6875 C7.31082528 7.15005353 6.92405787 9.55018394 6 13 C3.18723712 16.22640449 1.6369914 16.92312173 -2.625 17.4375 C-6 17 -6 17 -7.9375 15.5 C-8.288125 15.005 -8.63875 14.51 -9 14 C-7.88625 12.7625 -7.88625 12.7625 -6.75 11.5 C-3.77547127 7.95768374 -1.94706468 4.18258338 0 0 Z"/>
<path transform="translate(227,56)" fill="#C978F7" d="M0 0 C0.85271484 0.24363281 0.85271484 0.24363281 1.72265625 0.4921875 C7.02361555 1.67421959 12.76032866 1.35217325 18 0 C17.52 7.2 17.52 7.2 15.375 10.5 C12.01588382 12.62154706 9.90346989 12.54785542 6 12 C3.24670979 10.20437595 1.47372539 8.94745078 0 6 C-0.039992 4.00039988 -0.04346799 1.99952758 0 0 Z"/>
<path transform="translate(239,9)" fill="#C878F7" d="M0 0 C2.69990662 1.79993774 4.5418865 3.083773 6 6 C6.039992 7.99960012 6.04346799 10.00047242 6 12 C5.443125 11.83757813 4.88625 11.67515625 4.3125 11.5078125 C1.80771628 10.95777553 -0.437481 10.86718744 -3 10.875 C-3.845625 10.87242188 -4.69125 10.86984375 -5.5625 10.8671875 C-7.84698944 10.99166289 -9.80991574 11.36122543 -12 12 C-12.35671933 8.16526716 -12.29771416 6.44657125 -10.125 3.1875 C-6.82233621 -0.21230096 -4.68601439 -0.45941318 0 0 Z"/>
<path transform="translate(253.3125,227.5)" fill="#80DCB3" d="M0 0 C2.6188249 0.06346102 4.20056497 0.19251968 6.42578125 1.59765625 C9.0140787 4.33177328 9.6793211 6.34460092 9.875 10.0625 C8.31834757 14.56859914 6.5722163 15.82925755 2.6875 18.5 C2.3575 18.5 2.0275 18.5 1.6875 18.5 C1.378125 16.7675 1.378125 16.7675 1.0625 15 C-0.16784286 9.93388236 -2.9939628 6.42380499 -6.3125 2.5 C-3.95391372 0.14141372 -3.23618052 0.13053501 0 0 Z"/>
<path transform="translate(227,195)" fill="#9BEDF3" d="M0 0 C0.495 0.165 0.99 0.33 1.5 0.5 C7.05206673 1.61041335 12.49234054 1.10153189 18 0 C17.4047619 7.26190476 17.4047619 7.26190476 15.9375 9.9375 C12.75514867 11.68266041 9.57481734 12.20905365 6 12 C3.0625 10.5625 3.0625 10.5625 1 8 C0.30190311 5.26491889 0.14235289 2.84705788 0 0 Z"/>
<path transform="translate(227,403)" fill="#DC612F" d="M0 0 C0.556875 0.16242188 1.11375 0.32484375 1.6875 0.4921875 C4.19228372 1.04222447 6.437481 1.13281256 9 1.125 C9.845625 1.12757813 10.69125 1.13015625 11.5625 1.1328125 C13.84698944 1.00833711 15.80991574 0.63877457 18 0 C17.63636364 7.27272727 17.63636364 7.27272727 14.8125 10.5 C11.45867766 12.28870525 9.74723342 12.6245389 6 12 C3.1875 10.5 3.1875 10.5 1 8 C0.2905475 5.26652123 0.14240354 2.84807084 0 0 Z"/>
<path transform="translate(222,228)" fill="#80DCB3" d="M0 0 C1.74609375 1.52734375 1.74609375 1.52734375 3 3 C2.38511719 3.61875 2.38511719 3.61875 1.7578125 4.25 C-2.38381708 8.68887572 -3.95172154 12.02481279 -5 18 C-8.47984709 16.11900157 -11.20056745 14.59886509 -13 11 C-12.93172242 7.17645571 -12.50774917 4.7920887 -10.4375 1.5625 C-6.7403515 -0.80746699 -4.35640402 -0.48404489 0 0 Z"/>
<path transform="translate(217,178)" fill="#9BEEF3" d="M0 0 C0.15855469 0.65226563 0.31710938 1.30453125 0.48046875 1.9765625 C2.05148985 7.86138187 3.74423023 11.62920943 8 16 C5.60713116 18.39286884 4.90552906 18.32050616 1.625 18.375 C-1.450438 18.28090447 -2.83199173 18.09424854 -5.5625 16.5625 C-7.70914008 12.73588072 -8.0410619 9.2706335 -7 5 C-5.35751724 2.88475514 -2.87003254 0 0 0 Z"/>
<path transform="translate(256,179)" fill="#9BEFF4" d="M0 0 C2.46800047 1.15173355 4.04783565 2.04783565 6 4 C6.69436616 8.18234503 6.6496139 11.84199261 4.5625 15.5625 C0.88188423 17.62723568 -2.86815564 17.88539522 -7 17 C-7.66 16.01 -8.32 15.02 -9 14 C-8.60167969 13.57589844 -8.20335937 13.15179688 -7.79296875 12.71484375 C-4.14137539 8.67232555 -1.87842746 5.11349698 0 0 Z"/>
<path transform="translate(246,263)" fill="#695BA4" d="M0 0 C0.99 0.33 1.98 0.66 3 1 C2.57509381 6.94868665 1.62085242 12.10761078 -2 17 C-4.4375 18.1875 -4.4375 18.1875 -7 18 C-9.8125 16.6875 -9.8125 16.6875 -12 15 C-12 14.34 -12 13.68 -12 13 C-10.3603125 12.62875 -10.3603125 12.62875 -8.6875 12.25 C-4.80712223 10.9346177 -3.81853015 10.54134818 -2 7 C-1.26739841 4.68652128 -0.588562 2.354248 0 0 Z"/>
<path transform="translate(118,472)" fill="#381D65" d="M0 0 C3.3 0.33 6.6 0.66 10 1 C10 1.66 10 2.32 10 3 C6.6875 3.1875 6.6875 3.1875 3 3 C2.01 2.01 1.02 1.02 0 0 Z"/>
</svg>