<svg xmlns="http://www.w3.org/2000/svg" version="1.1" viewBox="10.24 13.312 506.88 458.752" style="max-height: 500px" width="506.88" height="458.752">
<path transform="translate(496.36328125,244.85546875)" fill="#FECB66" d="M0 0 C3.98696593 3.24273229 5.29856183 6.26588172 6.19921875 11.26953125 C4.56915021 22.49889232 -3.75569727 32.5894137 -9.87792969 41.875 C-12.33245122 45.62536689 -14.72415152 49.41478721 -17.11328125 53.20703125 C-17.60538086 53.98723633 -18.09748047 54.76744141 -18.60449219 55.57128906 C-22.66743165 62.02175574 -26.702563 68.48951412 -30.73828125 74.95703125 C-36.21168652 83.72846922 -41.71799568 92.47777862 -47.29760742 101.18212891 C-50.09053596 105.54358005 -52.84672157 109.91920756 -55.51953125 114.35546875 C-63.85096801 128.1089939 -72.18282772 137.8688207 -86.37988281 145.99121094 C-90.3403044 148.29414441 -94.22062979 150.72945406 -98.11328125 153.14453125 C-98.99862549 153.69222168 -99.88396973 154.23991211 -100.79614258 154.80419922 C-116.46582159 164.52047887 -131.94101454 174.54592839 -147.38110352 184.62182617 C-153.15014673 188.37856306 -158.96828542 192.04843064 -164.82348633 195.66918945 C-169.95466795 198.85317373 -174.9487086 202.20452761 -179.91015625 205.6484375 C-190.02932085 211.81983884 -208.42709161 206.33557161 -219.60858154 204.8475647 C-224.77117209 204.16230724 -229.93629538 203.49676869 -235.1015625 202.83203125 C-236.71937622 202.62378471 -236.71937622 202.62378471 -238.36987305 202.41133118 C-324.44495809 186.13329528 -324.44495809 186.13329528 -404.3894043 210.81542969 C-405.99419485 212.08671589 -407.59348141 213.36462933 -409.19140625 214.64453125 C-426.61022136 228.53683778 -447.6819555 236.62860615 -468.17578125 244.83203125 C-468.96487885 245.14820404 -469.75397644 245.46437683 -470.56698608 245.79013062 C-472.81605843 246.68825316 -475.06748439 247.58009535 -477.3203125 248.46875 C-478.00259918 248.74005737 -478.68488586 249.01136475 -479.3878479 249.29089355 C-484.1289062 251.14453125 -484.1289062 251.14453125 -486.36328125 251.14453125 C-486.36328125 205.60453125 -486.36328125 160.06453125 -486.36328125 113.14453125 C-479.43225772 111.41177537 -472.5576842 109.7305677 -465.58862305 108.20556641 C-438.0964381 102.12217089 -411.38451607 93.77137419 -385.86328125 81.83203125 C-354.16830881 67.0088385 -318.42976585 52.62340171 -282.90820312 53.26123047 C-256.78191038 53.71736432 -231.46786048 50.47968467 -205.73828125 46.20703125 C-205.0326001 46.09196228 -204.32691895 45.97689331 -203.59985352 45.8583374 C-184.12474986 42.6424174 -165.72234843 36.01022442 -147.08886719 29.65576172 C-137.08329918 26.24899938 -127.08428619 22.93185053 -116.8671875 20.2109375 C-116.1042337 20.00597656 -115.34127991 19.80101562 -114.5552063 19.58984375 C-106.01112656 17.39184036 -98.04694659 16.47724251 -90.08203125 20.87890625 C-87.95801072 22.44295773 -86.18545643 24.24243611 -84.36328125 26.14453125 C-83.82960938 25.51546875 -83.2959375 24.88640625 -82.74609375 24.23828125 C-75.23421271 15.60871548 -67.01735186 6.29971919 -55.078125 4.87109375 C-50.06149117 4.65334337 -46.72854639 5.48278422 -42.36328125 8.14453125 C-41.70328125 8.47453125 -41.04328125 8.80453125 -40.36328125 9.14453125 C-39.76902344 8.685625 -39.17476563 8.22671875 -38.5625 7.75390625 C-28.13786496 0.03675807 -12.6414197 -6.9740701 0 0 Z M-134.31591797 79.92211914 C-146.59732645 83.70635609 -159.03879388 86.20410735 -171.66210938 88.51977539 C-186.3852848 91.27200475 -201.97019687 94.78718181 -213.36328125 105.14453125 C-215.6532728 108.01236696 -215.6532728 108.01236696 -215.48828125 111.51953125 C-214.09113037 116.02146187 -212.55462122 116.98810341 -208.51953125 119.140625 C-201.34909171 122.47903616 -195.59592443 122.19370226 -187.87255859 121.38183594 C-184.81662574 121.09283353 -181.75771079 120.89302504 -178.6953125 120.68359375 C-176.27196538 120.48513844 -173.84878831 120.28459619 -171.42578125 120.08203125 C-170.25241211 120.01024658 -169.07904297 119.93846191 -167.87011719 119.86450195 C-162.1605642 119.33255348 -158.30752128 118.87724346 -154.41015625 114.44921875 C-153.37210192 113.03046458 -152.35537815 111.59579413 -151.36328125 110.14453125 C-150.39227384 108.97979951 -149.40712519 107.82666825 -148.40625 106.6875 C-147.70435547 105.86270142 -147.70435547 105.86270142 -146.98828125 105.02124023 C-141.94085925 99.09000504 -136.80704769 93.26620528 -131.51953125 87.546875 C-127.20968906 83.39766712 -127.20968906 83.39766712 -125.36328125 78.14453125 C-128.62571235 78.14453125 -131.22134525 78.96374254 -134.31591797 79.92211914 Z"/>
<path transform="translate(467,310)" fill="#F1BE64" d="M0 0 C0 4.33281867 -2.32635329 7.1827492 -4.5625 10.75 C-5.04630127 11.53205811 -5.53010254 12.31411621 -6.02856445 13.11987305 C-10.78183538 20.75386907 -15.70423105 28.27868938 -20.6472168 35.79077148 C-24.00763996 40.9044589 -27.26272682 46.04462044 -30.375 51.3125 C-37.78675143 63.49928435 -47.62679823 71.91546817 -59.875 78.875 C-72.50473831 86.19332635 -84.75236101 94.06386809 -97 102 C-98.58704628 103.02503894 -100.17426873 104.04980519 -101.76171875 105.07421875 C-107.30080094 108.65142559 -112.83232468 112.2401727 -118.359375 115.8359375 C-125.88722031 120.72770223 -133.44796853 125.53673175 -141.11328125 130.2109375 C-144.56389286 132.34947622 -147.93772922 134.5865429 -151.29296875 136.87109375 C-159.89813311 142.56192327 -174.8299248 138.04593581 -184.48587036 136.7784729 C-188.71836117 136.22341898 -192.95289338 135.68475289 -197.18736267 135.14503479 C-199.41016305 134.86161615 -201.6328692 134.57745756 -203.85548401 134.29258728 C-223.00828541 131.83974792 -242.17925049 129.53737411 -261.35931396 127.30853271 C-263.77993071 127.02571248 -266.1998663 126.73777556 -268.61962891 126.44775391 C-283.70607074 124.65172048 -298.69085524 123.70230992 -313.875 123.5625 C-314.61304871 123.55019348 -315.35109741 123.53788696 -316.11151123 123.52520752 C-338.21238573 123.21450409 -359.85155218 129.80426576 -377.35546875 143.62109375 C-395.92094957 158.23916152 -417.24129759 167.15256833 -439 176 C-440.62410915 176.67218434 -442.24784964 177.34526062 -443.87109375 178.01953125 C-453.55415691 182 -453.55415691 182 -457 182 C-457 158.57 -457 135.14 -457 111 C-449.16988747 107.08494373 -441.44251522 103.23946018 -433.4909668 99.62695312 C-407.04605904 87.60352008 -381.52229089 73.952805 -356.34765625 59.47460938 C-321.27899703 39.41698417 -283.91713824 27.37695441 -244.4375 19.5625 C-243.1479541 19.30331787 -241.8584082 19.04413574 -240.52978516 18.77709961 C-222.49222088 15.33218755 -222.49222088 15.33218755 -217.4375 18.71484375 C-215.18723714 23.85742816 -215.21300207 29.0025196 -215 34.5625 C-214.35751045 51.18516263 -214.35751045 51.18516263 -206 65 C-196.45735658 71.44628919 -185.38159279 75.41099468 -174.6574707 79.41088867 C-165.51629018 82.89952422 -160.5643596 85.85452683 -156.46875 94.99804688 C-156.1078125 95.84431641 -155.746875 96.69058594 -155.375 97.5625 C-151.76874245 106.30091834 -151.76874245 106.30091834 -144.6875 112.25 C-135.48938589 114.81691557 -127.72413152 110.60023498 -119.73852539 106.20483398 C-116.31991617 104.17796956 -112.93531056 102.10166689 -109.5625 100 C-108.32704282 99.23907353 -107.09111395 98.47891241 -105.85473633 97.71948242 C-102.79163415 95.83525158 -99.73463081 93.9414092 -96.68005371 92.043396 C-94.22913553 90.52125525 -91.77464027 89.00491637 -89.3203125 87.48828125 C-86.7763293 85.91528219 -84.23324214 84.3409383 -81.69311523 82.76171875 C-77.09113648 79.90181822 -72.47462071 77.06820972 -67.83984375 74.26171875 C-66.80384033 73.63418701 -65.76783691 73.00665527 -64.70043945 72.36010742 C-62.70957831 71.15598176 -60.71731635 69.95416786 -58.72338867 68.75512695 C-56.13585029 67.19009285 -53.56396533 65.60330375 -51 64 C-50.34491455 63.59990723 -49.6898291 63.19981445 -49.01489258 62.78759766 C-43.98586641 59.5043273 -40.85944244 55.25114381 -37.4375 50.375 C-36.20465113 48.66129713 -34.97157185 46.94776 -33.73828125 45.234375 C-33.11646973 44.36232422 -32.4946582 43.49027344 -31.85400391 42.59179688 C-28.98114542 38.57569657 -26.05532685 34.59926888 -23.125 30.625 C-22.56337158 29.86131104 -22.00174316 29.09762207 -21.4230957 28.31079102 C-14.39933485 18.78538964 -7.19988274 9.39256148 0 0 Z"/>
<path transform="translate(270.6875,23.625)" fill="#EE69A7" d="M0 0 C4.79011998 4.91958268 6.55216126 10.24297296 6.625 17.0625 C6.55164828 19.16796612 6.44500456 21.27242762 6.3125 23.375 C6.23386719 24.65503906 6.15523438 25.93507813 6.07421875 27.25390625 C5.84594902 30.630254 5.59187469 34.0025484 5.3125 37.375 C5.91578125 36.56675781 6.5190625 35.75851563 7.140625 34.92578125 C7.9478731 33.84632158 8.75516722 32.76689633 9.5625 31.6875 C10.35140625 30.63175781 11.1403125 29.57601562 11.953125 28.48828125 C17.97412638 20.54335062 22.43362143 16.07973835 32.57421875 14.5703125 C39.57039436 14.07129855 44.23300458 16.45395075 49.6171875 20.79296875 C54.18747355 25.05786702 55.43119713 29.9473091 55.6875 36 C55.53237906 43.55660582 52.92991766 48.83445755 47.51953125 54.0859375 C42.72234136 58.24851481 37.62417236 61.90776827 32.3125 65.375 C32.98152344 65.3028125 33.65054688 65.230625 34.33984375 65.15625 C40.61921594 64.5493845 46.88181148 64.2183058 53.1875 64.125 C54.25665649 64.0930957 54.25665649 64.0930957 55.34741211 64.06054688 C61.14195866 64.02250084 65.00975657 65.35350767 69.359375 69.171875 C74.40328904 74.95618009 76.63631236 79.55621627 76.1875 87.375 C75.34451636 93.76035886 73.10256912 97.58493088 68.5 102.1875 C60.82766602 107.45282724 53.8023692 106.34744258 44.875 105.5 C43.66650391 105.39558594 42.45800781 105.29117188 41.21289062 105.18359375 C38.24488368 104.92550619 35.27844391 104.65565256 32.3125 104.375 C33.19292969 105.05046875 34.07335937 105.7259375 34.98046875 106.421875 C36.15366596 107.32289046 37.32684192 108.2239336 38.5 109.125 C39.07814453 109.5684375 39.65628906 110.011875 40.25195312 110.46875 C41.40080877 111.35148654 42.54755692 112.23697295 43.69213867 113.12524414 C45.13643508 114.23920426 46.59834055 115.33024802 48.0625 116.41796875 C52.49713179 120.27517452 54.8377249 125.4240272 55.765625 131.19140625 C56.00727585 137.39665498 55.00549389 142.32445696 51.3125 147.375 C46.40445977 152.51132117 40.8835513 155.06595093 33.828125 155.54296875 C27.01565827 155.25735291 22.19985801 153.09539858 17.3125 148.375 C12.6849888 142.93808313 8.47046362 137.17469733 4.3125 131.375 C4.5290625 132.89867187 4.5290625 132.89867187 4.75 134.453125 C8.00547546 158.16085038 8.00547546 158.16085038 3.66015625 165.62109375 C0.8687902 169.25391508 -2.58178014 172.32214007 -6.6875 174.375 C-6.6875 178.995 -6.6875 183.615 -6.6875 188.375 C-5.73875 187.034375 -4.79 185.69375 -3.8125 184.3125 C4.66487326 173.46419136 16.46595654 168.43274518 29.84375 166.6171875 C35.69711083 166.2085069 41.50608374 166.54431328 47.3125 167.375 C48.3125 168.375 48.3125 168.375 48.33203125 170.1328125 C47.80287213 176.18319787 46.44540076 181.72361009 44.75292969 187.55200195 C43.52665875 191.98248991 43.03961906 196.10310859 42.875 200.6875 C42.56234099 207.26822779 40.84232084 211.85833389 37.3125 217.375 C36.755625 218.261875 36.19875 219.14875 35.625 220.0625 C27.26578716 228.42171284 18.97579522 232.5695003 7.25 232.75 C6.57694824 232.76409912 5.90389648 232.77819824 5.21044922 232.79272461 C-0.13866426 232.74102655 -2.37674785 231.65103663 -7.6875 229.375 C-7.6875 237.295 -7.6875 245.215 -7.6875 253.375 C-12.3075 253.375 -16.9275 253.375 -21.6875 253.375 C-21.6875 246.775 -21.6875 240.175 -21.6875 233.375 C-23.6675 234.365 -25.6475 235.355 -27.6875 236.375 C-36.25640569 237.6799095 -43.64422089 236.50300146 -50.6875 231.375 C-57.682287 225.04328761 -59.60482869 218.63984059 -61.25 209.5 C-61.37568359 208.83097656 -61.50136719 208.16195312 -61.63085938 207.47265625 C-62.49269138 202.78898282 -63.13200351 198.10465579 -63.6875 193.375 C-58.21468533 189.72645688 -51.63630847 190.85930462 -45.359375 191.95703125 C-34.91691216 194.66662765 -28.20732192 200.17529681 -22.6875 209.375 C-22.6875 197.825 -22.6875 186.275 -22.6875 174.375 C-24.9975 173.055 -27.3075 171.735 -29.6875 170.375 C-31.4296875 168.33984375 -31.4296875 168.33984375 -32.5625 166.3125 C-33.14644531 165.30509766 -33.14644531 165.30509766 -33.7421875 164.27734375 C-38.53017713 154.64200925 -35.14587351 141.63569931 -33.6875 131.375 C-34.68330078 132.67824219 -34.68330078 132.67824219 -35.69921875 134.0078125 C-36.59107967 135.1719257 -37.4830105 136.33598533 -38.375 137.5 C-38.81005859 138.06976563 -39.24511719 138.63953125 -39.69335938 139.2265625 C-50.95839571 153.91283209 -50.95839571 153.91283209 -60.5625 155.3125 C-67.33696533 155.73461714 -72.39381556 153.88969727 -78 150.1875 C-82.69677197 145.27227352 -84.89197605 140.85083658 -85.25 134 C-84.88818575 127.07792205 -83.16868776 121.66784946 -78.02685547 116.80419922 C-72.84521449 112.31291266 -67.3916999 108.17779993 -61.6875 104.375 C-62.42798584 104.45129639 -63.16847168 104.52759277 -63.93139648 104.60620117 C-67.32762009 104.94478947 -70.72593229 105.25382593 -74.125 105.5625 C-75.87200195 105.74329102 -75.87200195 105.74329102 -77.65429688 105.92773438 C-85.69612856 106.62997883 -92.38541938 106.61412915 -99.02734375 101.61328125 C-104.07048157 95.53438896 -106.09753671 90.67732034 -105.5 82.75 C-104.36754677 75.40163683 -101.14414789 71.52814677 -95.625 66.79296875 C-91.62342125 63.86439398 -87.48808359 64.22103039 -82.75 64.25 C-81.995979 64.25193359 -81.24195801 64.25386719 -80.46508789 64.25585938 C-74.17351652 64.30392231 -67.94408496 64.69991569 -61.6875 65.375 C-62.56792969 64.69953125 -63.44835937 64.0240625 -64.35546875 63.328125 C-65.52866596 62.42710954 -66.70184192 61.5260664 -67.875 60.625 C-68.45314453 60.1815625 -69.03128906 59.738125 -69.62695312 59.28125 C-70.77580877 58.39851346 -71.92255692 57.51302705 -73.06713867 56.62475586 C-74.51143508 55.51079574 -75.97334055 54.41975198 -77.4375 53.33203125 C-81.87213179 49.47482548 -84.2127249 44.3259728 -85.140625 38.55859375 C-85.38002522 32.41113823 -84.5201977 27.29506418 -80.6875 22.375 C-76.18270948 17.90010854 -71.1256888 14.71685073 -64.6875 14.375 C-57.36337149 14.89740574 -51.38982445 16.38183999 -46.21435547 21.96386719 C-44.73890947 23.75508946 -43.32953255 25.58081393 -41.9375 27.4375 C-41.21626953 28.37432617 -41.21626953 28.37432617 -40.48046875 29.33007812 C-38.45944915 31.96753685 -36.53196973 34.6082954 -34.6875 37.375 C-34.79578125 36.06789063 -34.79578125 36.06789063 -34.90625 34.734375 C-35.20118146 30.9494213 -35.45495789 27.1642927 -35.6875 23.375 C-35.75582031 22.27929688 -35.82414062 21.18359375 -35.89453125 20.0546875 C-36.11770077 13.59103687 -35.69339618 8.62248974 -31.6875 3.375 C-22.27368984 -6.61880794 -11.43508702 -6.91423866 0 0 Z"/>
<path transform="translate(318,191)" fill="#88C056" d="M0 0 C1 1 1 1 1.01953125 2.7578125 C0.49037213 8.80819787 -0.86709924 14.34861009 -2.55957031 20.17700195 C-3.78584125 24.60748991 -4.27288094 28.72810859 -4.4375 33.3125 C-4.75015901 39.89322779 -6.47017916 44.48333389 -10 50 C-10.556875 50.886875 -11.11375 51.77375 -11.6875 52.6875 C-20.04671284 61.04671284 -28.33670478 65.1945003 -40.0625 65.375 C-40.73555176 65.38909912 -41.40860352 65.40319824 -42.10205078 65.41772461 C-47.45116426 65.36602655 -49.68924785 64.27603663 -55 62 C-55 69.92 -55 77.84 -55 86 C-59.62 86 -64.24 86 -69 86 C-69 79.4 -69 72.8 -69 66 C-70.98 66.99 -72.96 67.98 -75 69 C-83.56890569 70.3049095 -90.95672089 69.12800146 -98 64 C-104.994787 57.66828761 -106.91732869 51.26484059 -108.5625 42.125 C-108.68818359 41.45597656 -108.81386719 40.78695312 -108.94335938 40.09765625 C-109.80519138 35.41398282 -110.44450351 30.72965579 -111 26 C-105.52718533 22.35145688 -98.94880847 23.48430462 -92.671875 24.58203125 C-82.22941216 27.29162765 -75.51982192 32.80029681 -70 42 C-69.67 30.45 -69.34 18.9 -69 7 C-64.38 7 -59.76 7 -55 7 C-54.505 13.93 -54.505 13.93 -54 21 C-53.05125 19.659375 -52.1025 18.31875 -51.125 16.9375 C-42.64762674 6.08919136 -30.84654346 1.05774518 -17.46875 -0.7578125 C-11.61538917 -1.1664931 -5.80641626 -0.83068672 0 0 Z"/>
<path transform="translate(451.5,251.25)" fill="#E7B95E" d="M0 0 C2.5 1.75 2.5 1.75 3.3515625 3.66015625 C3.5 5.75 3.5 5.75 2.3046875 7.29296875 C1.66789062 7.83566406 1.03109375 8.37835938 0.375 8.9375 C-11.10146683 19.73298974 -19.733892 33.74394006 -28.5 46.75 C-47.29098381 74.59186992 -67.12495837 89.50001217 -96.5 105.5625 C-97.61584473 106.17955811 -98.73168945 106.79661621 -99.88134766 107.43237305 C-100.93112793 107.99738525 -101.9809082 108.56239746 -103.0625 109.14453125 C-104.45662109 109.90020386 -104.45662109 109.90020386 -105.87890625 110.67114258 C-108.64293005 111.80883084 -110.54338114 111.97288255 -113.5 111.75 C-111.83919092 107.60301006 -108.84001517 104.68306824 -105.8125 101.5 C-104.71545091 100.32877553 -103.61909248 99.15690373 -102.5234375 97.984375 C-101.99717773 97.42298828 -101.47091797 96.86160156 -100.92871094 96.28320312 C-97.08445726 92.15779077 -93.4355759 87.86682736 -89.80859375 83.55078125 C-89.08361694 82.68936523 -89.08361694 82.68936523 -88.34399414 81.81054688 C-87.39153899 80.67716166 -86.44136106 79.54185731 -85.49389648 78.40429688 C-84.17931031 76.83757541 -82.84422646 75.29131895 -81.5 73.75 C-80.74332031 72.87472656 -79.98664063 71.99945313 -79.20703125 71.09765625 C-75.70271744 68.05856159 -72.08177574 66.5921838 -67.8125 64.875 C-57.15697173 60.35164899 -46.47848696 55.04265876 -41.25 44.14453125 C-38.52195546 37.27705802 -37.03447464 31.49426508 -39.81640625 24.38671875 C-40.5 20.75 -40.5 20.75 -38.67578125 17.72265625 C-37.7473451 16.72769976 -36.79084299 15.75842658 -35.8125 14.8125 C-35.31081299 14.29961426 -34.80912598 13.78672852 -34.29223633 13.25830078 C-24.86792656 3.87366923 -13.79350424 -4.92625151 0 0 Z"/>
<path transform="translate(265.3125,89.625)" fill="#FECA67" d="M0 0 C5.00275883 2.85005655 8.4969557 7.03314636 10.6875 12.375 C11.47340903 18.77193399 11.39642953 24.95760845 8.09765625 30.62109375 C4.80716461 34.7136997 0.65318436 37.71977188 -4.3125 39.375 C-11.15539581 40.116415 -16.6612669 39.46553621 -22.3125 35.375 C-26.48482391 31.4999409 -28.9419554 27.20284038 -29.68359375 21.54296875 C-29.84045645 14.5026015 -29.2033264 9.64392021 -24.3125 4.375 C-17.27662582 -1.78331438 -8.76479222 -4.01580784 0 0 Z"/>
<path transform="translate(408,267)" fill="#E6E5E3" d="M0 0 C4.1429549 4.1429549 6.14284035 10.3541745 6.375 16.125 C5.91660421 20.86175649 5.18631839 24.03701521 1.546875 27.3046875 C-5.34301133 32.12760793 -15.56183784 36 -24 36 C-25.50801568 32.06552291 -27.00502914 28.12695023 -28.5 24.1875 C-28.92925781 23.06794922 -29.35851562 21.94839844 -29.80078125 20.79492188 C-30.40986328 19.18520508 -30.40986328 19.18520508 -31.03125 17.54296875 C-31.40830078 16.55321045 -31.78535156 15.56345215 -32.17382812 14.54370117 C-33 12 -33 12 -33 9 C-7.32202253 -3.67342147 -7.32202253 -3.67342147 0 0 Z"/>
</svg>