<svg xmlns="http://www.w3.org/2000/svg" version="1.1" xmlns:xlink="http://www.w3.org/1999/xlink" xmlns:svgjs="http://svgjs.dev/svgjs" width="1000" height="750" viewBox="0 0 1000 750"><rect width="1000" height="750" fill="#ffffff"></rect><g transform="matrix(0.834,0,0,0.834,82.74849605706152,72.65584461702139)"><svg viewBox="0 0 195 141" data-background-color="#ffffff" preserveAspectRatio="xMidYMid meet" height="723" width="1000" xmlns="http://www.w3.org/2000/svg" xmlns:xlink="http://www.w3.org/1999/xlink"><g id="tight-bounds" transform="matrix(1,0,0,1,0.05880487874460982,0.19949999999997203)"><svg viewBox="0 0 194.88239024251078 140.60052000000002" height="140.60052000000002" width="194.88239024251078"><g><svg viewBox="0 0 194.88239024251078 140.60052000000002" height="140.60052000000002" width="194.88239024251078"><g><svg viewBox="0 0 194.88239024251078 140.60052000000002" height="140.60052000000002" width="194.88239024251078"><g><path d="M0 140.601v-140.601h194.882v140.601z" fill="#000000" stroke="transparent" stroke-width="0" rx="0%" data-fill-palette-color="tertiary"></path><path d="M3.283 137.317v-134.034h188.316v134.034z" fill="#ffffff" stroke="transparent" stroke-width="0" rx="0%" data-fill-palette-color="quaternary"></path><path d="M9.85 130.751v-120.901h175.183v120.901z" fill="#000000" stroke="transparent" stroke-width="0" data-fill-palette-color="tertiary"></path></g><g transform="matrix(1,0,0,1,19.699740000000013,19.69974)" id="textblocktransform"><svg viewBox="0 0 155.48291024251077 101.20104000000002" height="101.20104000000002" width="155.48291024251077" id="textblock"><g><svg viewBox="0 0 155.48291024251077 101.20104000000002" height="101.20104000000002" width="155.48291024251077"><g transform="matrix(1,0,0,1,0,0)"><svg width="155.48291024251077" viewBox="2.5 -35 53.85 35.05" height="101.20104000000002" data-palette-color="#ffffff"><path d="M2.5-34.4L2.5-34.4 2.6-35 13-35Q19.15-35 22.13-32.9 25.1-30.8 25.1-24.98 25.1-19.15 22.03-16.38 18.95-13.6 13-13.6L13-13.6 9.15-13.6 9.15-0.95 12.6-0.75Q12.6-0.7 12.55 0L12.55 0 2.55 0.05Q2.55-0.4 2.6-0.65L2.6-0.65 5.2-1Q5.55-1.05 5.75-1.45L5.75-1.45 5.75-33.45Q5.55-33.9 5.2-33.95L5.2-33.95 2.55-34.25Q2.5-34.3 2.5-34.4ZM12.75-34.25L12.75-34.25 9.15-34.25 9.15-14.35 12.75-14.35Q17.25-14.35 19.48-16.75 21.7-19.15 21.7-24.78 21.7-30.4 19.5-32.33 17.3-34.25 12.75-34.25ZM30.75-33.95L28.1-34.25 28.15-35 40.3-35Q45.45-35 48.25-32.75 51.05-30.5 51.05-26.05L51.05-26.05Q51.05-23.15 48.82-20 46.6-16.85 44.65-15.95L44.65-15.95 53.9-0.9 56.35-0.75Q56.35-0.7 56.3 0L56.3 0 50.85 0.05 41.35-15.35 34.7-15.35 34.7-0.95 38.2-0.75Q38.2-0.7 38.15 0L38.15 0 28.1 0.05 28.15-0.65 30.75-1Q31.1-1.05 31.3-1.45L31.3-1.45 31.3-33.45Q31.15-33.9 30.75-33.95L30.75-33.95ZM40.05-34.25L40.05-34.25 34.7-34.25 34.7-16.1 43.25-16.1Q45.85-19.05 46.75-21.33 47.65-23.6 47.65-25.75L47.65-25.75Q47.65-29.95 45.7-32.1 43.75-34.25 40.05-34.25Z" opacity="1" transform="matrix(1,0,0,1,0,0)" fill="#ffffff" class="undefined-text-0" data-fill-palette-color="quaternary" id="text-0"></path></svg></g></svg></g></svg></g></svg></g><g></g></svg></g><defs></defs></svg><rect width="194.88239024251078" height="140.60052000000002" fill="none" stroke="none" visibility="hidden"></rect></g></svg></g></svg>