<svg xmlns="http://www.w3.org/2000/svg" version="1.1" viewBox="17.408 44.032 481.28 422.912" style="max-height: 500px" width="481.28" height="422.912">
<path transform="translate(337,44)" fill="#E2A66E" d="M0 0 C14.19 0 28.38 0 43 0 C44.485 4.145625 45.97 8.29125 47.5 12.5625 C51.60748898 23.26359348 51.60748898 23.26359348 60.05664062 30.47827148 C67.40862298 33.44353632 71.671844 33.01806341 79 30 C80.60510953 29.3909795 82.21058129 28.78291285 83.81640625 28.17578125 C85.39932223 27.55694579 86.9813557 26.93584825 88.5625 26.3125 C89.38041016 25.99216797 90.19832031 25.67183594 91.04101562 25.34179688 C93.02813622 24.56321746 95.01418427 23.78190155 97 23 C103.92810724 28.66574049 110.14204142 35.03033639 116.4375 41.375 C117.56161467 42.50413955 118.68596174 43.63304778 119.81054688 44.76171875 C122.54305235 47.50515188 125.27239009 50.25169985 128 53 C127.68135986 53.74048584 127.36271973 54.48097168 127.03442383 55.24389648 C125.5971635 58.6299306 124.20477576 62.03273629 122.8125 65.4375 C122.31041016 66.60216797 121.80832031 67.76683594 121.29101562 68.96679688 C118.21493682 76.21153733 118.21493682 76.21153733 118.94921875 83.78515625 C119.61725196 85.19756932 120.30100149 86.60265246 121 88 C121.21213135 88.77069824 121.4242627 89.54139648 121.64282227 90.33544922 C122.88167605 94.39517517 124.11299565 96.44035746 127.75585938 98.73876953 C131.21420277 100.34849521 134.67463071 101.7299139 138.25 103.0625 C142.4575 104.691875 146.665 106.32125 151 108 C151 122.19 151 136.38 151 151 C146.854375 152.485 142.70875 153.97 138.4375 155.5 C127.77068436 159.60568699 127.77068436 159.60568699 120.51245117 167.98779297 C118.57855106 172.85144588 117.32231026 177.6732251 118.625 182.875 C119.3828 184.59862352 120.1821438 186.3040489 121 188 C121.9350075 190.35955327 122.83164639 192.7322195 123.72998047 195.10595703 C125.11601252 198.752331 126.55874403 202.37514251 128 206 C125.03 208.97 122.06 211.94 119 215 C130.47932714 209.94155913 141.90475454 204.77579668 153.2890625 199.5065918 C154.77212891 198.82270386 154.77212891 198.82270386 156.28515625 198.125 C157.17082275 197.71507812 158.05648926 197.30515625 158.96899414 196.8828125 C161 196 161 196 162 196 C162 271.24 162 346.48 162 424 C1.62 424 -158.76 424 -324 424 C-324 423.34 -324 422.68 -324 422 C-322.90042969 421.80535156 -321.80085938 421.61070312 -320.66796875 421.41015625 C-315.30954948 419.99655942 -310.94515285 417.96242426 -307 414 C-302.12771907 405.57879175 -300.03975257 395.5175285 -297.47119141 386.19238281 C-295.11642216 377.74316473 -292.33280767 369.42568082 -289.62356567 361.08514404 C-287.90013863 355.76048606 -286.2064017 350.42637129 -284.5078125 345.09375 C-279.77047752 330.24802833 -274.97471183 315.42131069 -270.17772675 300.5947876 C-264.07283122 281.72514801 -257.97904936 262.85224318 -251.94543457 243.95965576 C-250.04075535 237.99711219 -248.13240761 232.03574168 -246.22406006 226.07437134 C-244.7181093 221.36984854 -243.21231211 216.6652786 -241.70922852 211.95983887 C-239.10742479 203.81488952 -236.50151575 195.67128601 -233.88619232 187.53066635 C-232.7073726 183.86086894 -231.53078432 180.19039246 -230.35986328 176.51806641 C-229.26031143 173.06979439 -228.15456547 169.62356858 -227.04425812 166.17874527 C-226.44066104 164.30064065 -225.84348656 162.42047567 -225.246521 160.54025269 C-219.42932699 142.55335678 -219.42932699 142.55335678 -211 137 C-204.73339261 134.26593232 -198.1682359 133.21618648 -191.4375 132.3125 C-190.52419922 132.18294922 -189.61089844 132.05339844 -188.66992188 131.91992188 C-186.4475496 131.60576454 -184.22441823 131.29926203 -182 131 C-182.67522705 130.84192871 -183.3504541 130.68385742 -184.04614258 130.52099609 C-193.32049132 128.25803606 -200.19692841 123.11550501 -205.65234375 115.3046875 C-209.48805623 108.74506325 -212.56728674 101.64460095 -213 94 C-213.05027344 93.35160156 -213.10054688 92.70320313 -213.15234375 92.03515625 C-213.70200649 79.87661643 -209.86898398 69.01118791 -202.11328125 59.74609375 C-194.68852858 51.8253851 -186.83042966 48.68633901 -176 48 C-165.64306403 48.42388551 -157.62709426 52.88107657 -150.625 60.375 C-141.18731555 71.734471 -139.71251806 84.6896382 -141 99 C-143.20024256 110.37625412 -149.56338326 119.63457182 -159.15625 126.140625 C-160.0946875 126.75421875 -161.033125 127.3678125 -162 128 C-149.00405017 126.75605518 -136.0749093 125.12178603 -123.14599609 123.32128906 C-121.90414551 123.15081055 -120.66229492 122.98033203 -119.3828125 122.8046875 C-117.71822998 122.57241455 -117.71822998 122.57241455 -116.02001953 122.33544922 C-113 122 -113 122 -108 122 C-108 117.38 -108 112.76 -108 108 C-103.87692873 106.16222004 -99.75170161 104.32959429 -95.625 102.5 C-94.449375 101.97535156 -93.27375 101.45070313 -92.0625 100.91015625 C-90.38027344 100.16572266 -90.38027344 100.16572266 -88.6640625 99.40625 C-87.62717285 98.94541016 -86.5902832 98.48457031 -85.52197266 98.00976562 C-83 97 -83 97 -81 97 C-80.81824219 96.45472656 -80.63648438 95.90945312 -80.44921875 95.34765625 C-78 88 -78 88 -77.05151367 86.12573242 C-75.38150965 82.42216597 -74.7540365 80.01327076 -75.72875977 75.99780273 C-77.01525889 72.66225581 -78.42986171 69.42901739 -79.9375 66.1875 C-80.93938254 63.97877547 -81.92833833 61.76412748 -82.90234375 59.54296875 C-83.57511353 58.0892688 -83.57511353 58.0892688 -84.26147461 56.60620117 C-85 54 -85 54 -84.51245117 52.04711914 C-82.25246762 48.98820677 -79.60415609 46.36071083 -76.8984375 43.703125 C-76.30197418 43.10949158 -75.70551086 42.51585815 -75.0909729 41.90423584 C-73.1903019 40.01473373 -71.28278526 38.13231608 -69.375 36.25 C-68.08287532 34.96790935 -66.79120324 33.68536239 -65.5 32.40234375 C-62.33855521 29.26291568 -59.1709539 26.12982199 -56 23 C-51.09845054 24.32322959 -46.37712267 25.66850131 -41.8671875 28.03515625 C-33.54499852 32.45278678 -33.54499852 32.45278678 -24.41796875 32.1171875 C-20.45163518 30.72560649 -16.75035735 28.887002 -13 27 C-12.34 27 -11.68 27 -11 27 C-9.515 22.545 -9.515 22.545 -8 18 C-5.36 12.06 -2.72 6.12 0 0 Z M-103.12451172 156.54467773 C-104.08310593 156.79098434 -104.08310593 156.79098434 -105.06106567 157.04226685 C-107.18425316 157.5881653 -109.30697987 158.1358326 -111.4296875 158.68359375 C-112.90078842 159.06241719 -114.37190887 159.44116481 -115.8430481 159.81983948 C-118.9318619 160.61519956 -122.02045189 161.41142158 -125.10888672 162.20825195 C-129.06866443 163.2298287 -133.02896039 164.24937937 -136.98942375 165.26829433 C-140.02991793 166.05074832 -143.07014643 166.83423045 -146.11029434 167.61802864 C-147.57026427 167.99430946 -149.03031396 168.37028094 -150.49044418 168.74593925 C-152.53279814 169.27156571 -154.57479374 169.79856216 -156.61669922 170.32592773 C-157.77950409 170.6257103 -158.94230896 170.92549286 -160.14035034 171.23435974 C-162.11090509 171.76195446 -164.06472277 172.35490759 -166 173 C-167.02335055 174.97079605 -167.02335055 174.97079605 -167.72998047 177.44946289 C-168.03394745 178.39878189 -168.33791443 179.34810089 -168.65109253 180.32618713 C-168.96990387 181.36452194 -169.28871521 182.40285675 -169.6171875 183.47265625 C-169.95622101 184.54309677 -170.29525452 185.61353729 -170.64456177 186.71641541 C-171.73279253 190.16163553 -172.80405723 193.61187141 -173.875 197.0625 C-174.58873646 199.33172878 -175.30356779 201.6006135 -176.01953125 203.86914062 C-177.40016009 208.25014316 -178.77210575 212.63369889 -180.13574219 217.02001953 C-181.28405966 220.71304894 -182.44324177 224.40204753 -183.62207031 228.08544922 C-183.85975128 228.83177109 -184.09743225 229.57809296 -184.34231567 230.34703064 C-184.95621733 232.271825 -185.57388374 234.19541754 -186.19189453 236.11889648 C-187.13503133 238.98270658 -187.13503133 238.98270658 -187 242 C-185.6087793 242.46055786 -185.6087793 242.46055786 -184.18945312 242.93041992 C-180.71191451 244.08474834 -177.23914778 245.25290395 -173.76757812 246.42504883 C-172.27142707 246.92811512 -170.77404788 247.42754541 -169.27539062 247.9230957 C-147.95954023 254.97864218 -147.95954023 254.97864218 -143.5625 263.125 C-143.08941406 263.97320312 -142.61632812 264.82140625 -142.12890625 265.6953125 C-136.86609266 276.43946482 -140.33215336 289.19388022 -143.97265625 299.86328125 C-144.58653607 301.7560985 -145.20040943 303.64891788 -145.8138876 305.54186535 C-146.66337932 308.14455541 -147.53288056 310.74037296 -148.40240479 313.33642578 C-149.93773043 317.93260729 -151.44362525 322.53848981 -152.94517517 327.14579773 C-153.74382987 329.5894454 -154.55148781 332.03017223 -155.36891174 334.46760559 C-155.72936081 335.56022202 -156.08980988 336.65283844 -156.46118164 337.77856445 C-156.94416466 339.22293633 -156.94416466 339.22293633 -157.43690491 340.69648743 C-158.26524479 343.00852025 -158.26524479 343.00852025 -157 345 C-138.91577372 336.6135402 -120.84392096 328.20097783 -102.78222656 319.76611328 C-97.14634968 317.13425654 -91.50963683 314.50419121 -85.87298584 311.87399292 C-82.74862288 310.41606887 -79.62431419 308.95802854 -76.5 307.5 C-75.25000026 306.91666611 -74.00000026 306.33333278 -72.75 305.75 C-72.13125 305.46125 -71.5125 305.1725 -70.875 304.875 C-35.25 288.25 -35.25 288.25 -33.37538147 287.37518311 C-32.12410471 286.79125056 -30.87283315 286.20730685 -29.62156677 285.62335205 C-26.5161436 284.17409569 -23.41063321 282.72502686 -20.30493164 281.27636719 C-14.44635976 278.5433812 -8.588734 275.80841434 -2.73397827 273.06726074 C0.03175803 271.77249588 2.79796491 270.47873819 5.56420898 269.18505859 C6.88280425 268.56804945 8.20116874 267.95054683 9.51928711 267.33251953 C11.34690827 266.47563871 13.17538971 265.62059349 15.00390625 264.765625 C16.04361572 264.27868164 17.0833252 263.79173828 18.15454102 263.29003906 C20.74483211 262.11568487 23.35002794 261.03137339 26 260 C26 259.67 26 259.34 26 259 C17.42 259 8.84 259 0 259 C-3 250 -3 250 -3.82104492 247.43701172 C-6.44895223 239.4375101 -9.00240117 232.21119093 -16.77050781 228.09472656 C-21.68427169 225.9764497 -26.58787217 224.2210668 -31.9375 225.625 C-33.6483312 226.36489794 -35.33234374 227.16734463 -37 228 C-39.17477393 228.96650741 -41.35989324 229.90342616 -43.55297852 230.82763672 C-45.08209254 231.47619586 -46.60263814 232.14540219 -48.11303711 232.83642578 C-53.4355199 235.16901714 -53.4355199 235.16901714 -55.85498047 234.44458008 C-58.95006833 232.3601691 -61.47592885 229.76839418 -64.078125 227.1171875 C-64.64956238 226.54292023 -65.22099976 225.96865295 -65.80975342 225.37698364 C-67.62792945 223.5476419 -69.43901492 221.71145807 -71.25 219.875 C-72.48391329 218.63105226 -73.71828322 217.3875573 -74.953125 216.14453125 C-77.97406743 213.10157633 -80.98867092 210.05246746 -84 207 C-82.65610426 202.04093485 -81.25962763 197.2776138 -78.9296875 192.68359375 C-75.46274118 185.69854943 -72.943103 179.78295086 -75.2578125 172.02734375 C-78.12148162 164.71337802 -81.64467399 160.62066781 -88.875 157.4375 C-94.60882152 155.16317949 -97.16421773 155.0100332 -103.12451172 156.54467773 Z M54 232 C51.63329705 234.5032435 50.81694339 236.69591786 50 240 C49.42060319 241.66803924 48.83728471 243.33472158 48.25 245 C47.82981258 246.33222799 47.41254012 247.66538412 47 249 C54.37425058 246.78772483 61.13844664 243.70754732 68.04980469 240.3293457 C69.88970749 239.43031347 71.73352957 238.53974913 73.578125 237.65039062 C79.94792602 234.60703428 79.94792602 234.60703428 86 231 C84.27398621 230.18082358 82.5440353 229.36993984 80.8125 228.5625 C79.84957031 228.11003906 78.88664062 227.65757812 77.89453125 227.19140625 C69.09219996 223.56831442 61.79630865 227.12159467 54 232 Z M-215 278 C-224.70580401 303.97796665 -234.38215227 329.96625719 -243.9375 356 C-244.3172699 357.03462372 -244.69703979 358.06924744 -245.08831787 359.13522339 C-248.08849706 367.3005801 -248.08849706 367.3005801 -251.07028198 375.47265625 C-251.74955994 377.3192042 -252.44571606 379.15956805 -253.15164185 380.99609375 C-253.52771576 381.98738281 -253.90378967 382.97867188 -254.29125977 384 C-254.81599632 385.36125 -254.81599632 385.36125 -255.35133362 386.75 C-256.27777239 389.00902281 -256.27777239 389.00902281 -255 391 C-253.8855249 390.47043701 -252.7710498 389.94087402 -251.62280273 389.39526367 C-247.46555564 387.4203012 -243.30748471 385.44707854 -239.14916992 383.47436523 C-237.3536992 382.62229661 -235.55844859 381.76976398 -233.76342773 380.91674805 C-231.17490228 379.68674968 -228.58557506 378.45845326 -225.99609375 377.23046875 C-225.20101913 376.85222458 -224.40594452 376.47398041 -223.58677673 376.08427429 C-222.82651688 375.72412735 -222.06625702 375.36398041 -221.28295898 374.99291992 C-220.62343735 374.67981369 -219.96391571 374.36670746 -219.28440857 374.04411316 C-217 373 -217 373 -213.41195679 371.79989624 C-209.03282993 369.48979255 -208.57916648 367.87399145 -207.12573242 363.20874023 C-206.9035907 362.522108 -206.68144897 361.83547577 -206.45257568 361.1280365 C-205.72693928 358.86235153 -205.0411386 356.58666118 -204.35546875 354.30859375 C-203.85684697 352.72187179 -203.35594037 351.13586619 -202.8528595 349.55055237 C-201.53514373 345.37457823 -200.25157219 341.18882679 -198.97399902 337.00042725 C-197.93190902 333.60461773 -196.86571173 330.21662461 -195.79806042 326.82878017 C-194.51712126 322.7621683 -193.24735112 318.6921038 -191.98046875 314.62109375 C-191.7417272 313.85503752 -191.50298565 313.08898129 -191.25700951 312.29971123 C-188.76684807 304.27543147 -186.36018622 296.31005204 -185 288 C-191.65680352 285.09537543 -198.43354485 282.90635695 -205.390625 280.8515625 C-206.31633301 280.57610596 -207.24204102 280.30064941 -208.19580078 280.0168457 C-210.46325226 279.34246175 -212.73132057 278.6702391 -215 278 Z"/>
<path transform="translate(337,44)" fill="#FEC238" d="M0 0 C14.19 0 28.38 0 43 0 C44.485 4.145625 45.97 8.29125 47.5 12.5625 C51.60748898 23.26359348 51.60748898 23.26359348 60.05664062 30.47827148 C67.40862298 33.44353632 71.671844 33.01806341 79 30 C80.60510953 29.3909795 82.21058129 28.78291285 83.81640625 28.17578125 C85.39932223 27.55694579 86.9813557 26.93584825 88.5625 26.3125 C89.38041016 25.99216797 90.19832031 25.67183594 91.04101562 25.34179688 C93.02813622 24.56321746 95.01418427 23.78190155 97 23 C103.92810724 28.66574049 110.14204142 35.03033639 116.4375 41.375 C117.56161467 42.50413955 118.68596174 43.63304778 119.81054688 44.76171875 C122.54305235 47.50515188 125.27239009 50.25169985 128 53 C127.52203979 54.11072876 127.52203979 54.11072876 127.03442383 55.24389648 C125.5971635 58.6299306 124.20477576 62.03273629 122.8125 65.4375 C122.31041016 66.60216797 121.80832031 67.76683594 121.29101562 68.96679688 C118.21493682 76.21153733 118.21493682 76.21153733 118.94921875 83.78515625 C119.61725196 85.19756932 120.30100149 86.60265246 121 88 C121.31819702 89.15604736 121.31819702 89.15604736 121.64282227 90.33544922 C122.88167605 94.39517517 124.11299565 96.44035746 127.75585938 98.73876953 C131.21420277 100.34849521 134.67463071 101.7299139 138.25 103.0625 C142.4575 104.691875 146.665 106.32125 151 108 C151 122.19 151 136.38 151 151 C146.854375 152.485 142.70875 153.97 138.4375 155.5 C127.77068436 159.60568699 127.77068436 159.60568699 120.51245117 167.98779297 C118.57855106 172.85144588 117.32231026 177.6732251 118.625 182.875 C119.3828 184.59862352 120.1821438 186.3040489 121 188 C121.9350075 190.35955327 122.83164639 192.7322195 123.72998047 195.10595703 C125.11601252 198.752331 126.55874403 202.37514251 128 206 C120.79231612 214.7017911 113.38614333 220.41217343 103.125 225.25 C102.13878662 225.71510986 101.15257324 226.18021973 100.13647461 226.65942383 C88.106611 232.06577166 88.106611 232.06577166 81.7890625 229.8984375 C80.74492187 229.39570313 79.70078125 228.89296875 78.625 228.375 C73.03401389 226.03880836 73.03401389 226.03880836 67.25 226.9375 C65.82929991 227.61662587 64.41257723 228.30413631 63 229 C62.23945313 229.16886719 61.47890625 229.33773437 60.6953125 229.51171875 C57.78556626 230.28079309 56.26998282 230.97900981 54 233 C52.05371462 236.46414315 50.67750244 240.144197 49.38232422 243.89306641 C49.12596191 244.63089355 48.86959961 245.3687207 48.60546875 246.12890625 C48.39043701 246.79994385 48.17540527 247.47098145 47.95385742 248.16235352 C44.86982945 254.10386325 35.93500506 257.01006864 30 259 C24.70526399 259.66142444 19.50659514 259.58000209 14.1875 259.375 C12.80149153 259.34480232 11.4154182 259.31744411 10.02929688 259.29296875 C6.68448451 259.22304236 3.3431313 259.12494693 0 259 C-1.8392812 254.87762652 -3.67041342 250.75168422 -5.5 246.625 C-6.02464844 245.449375 -6.54929687 244.27375 -7.08984375 243.0625 C-7.58613281 241.94101562 -8.08242188 240.81953125 -8.59375 239.6640625 C-9.05458984 238.62717285 -9.51542969 237.5902832 -9.99023438 236.52197266 C-11 234 -11 234 -11 232 C-11.54527344 231.81824219 -12.09054687 231.63648438 -12.65234375 231.44921875 C-20 229 -20 229 -21.87426758 228.05151367 C-25.57783403 226.38150965 -27.98672924 225.7540365 -32.00219727 226.72875977 C-35.33774419 228.01525889 -38.57098261 229.42986171 -41.8125 230.9375 C-44.02122453 231.93938254 -46.23587252 232.92833833 -48.45703125 233.90234375 C-49.9107312 234.57511353 -49.9107312 234.57511353 -51.39379883 235.26147461 C-54 236 -54 236 -55.95288086 235.51245117 C-59.01179323 233.25246762 -61.63928917 230.60415609 -64.296875 227.8984375 C-64.89050842 227.30197418 -65.48414185 226.70551086 -66.09576416 226.0909729 C-67.98526627 224.1903019 -69.86768392 222.28278526 -71.75 220.375 C-73.03209065 219.08287532 -74.31463761 217.79120324 -75.59765625 216.5 C-78.73708432 213.33855521 -81.87017801 210.1709539 -85 207 C-83.65610426 202.04093485 -82.25962763 197.2776138 -79.9296875 192.68359375 C-76.4413661 185.65302046 -73.94397719 179.77255117 -76.30883789 171.9765625 C-78.75390477 165.78067198 -81.38659656 161.61595494 -87.51489258 158.69824219 C-90.29613803 157.59775192 -93.10259239 156.73540304 -96 156 C-94.59843188 153.19686376 -92.55698963 152.98134821 -89.78125 151.84375 C-86.38646882 150.23569576 -84.54446316 147.98003369 -82.75 144.75 C-80.9981192 138.32643706 -81.70902876 133.71294905 -84.5390625 127.859375 C-87.03715508 124.67998445 -89.89847299 122.33380537 -93.98583984 121.68457031 C-96.12985785 121.6078024 -98.23218959 121.64925304 -100.375 121.75 C-101.11105469 121.76804687 -101.84710938 121.78609375 -102.60546875 121.8046875 C-104.40421736 121.85140824 -106.20228711 121.92313817 -108 122 C-108 117.38 -108 112.76 -108 108 C-103.87692873 106.16222004 -99.75170161 104.32959429 -95.625 102.5 C-94.449375 101.97535156 -93.27375 101.45070313 -92.0625 100.91015625 C-90.94101563 100.41386719 -89.81953125 99.91757813 -88.6640625 99.40625 C-87.62717285 98.94541016 -86.5902832 98.48457031 -85.52197266 98.00976562 C-83 97 -83 97 -81 97 C-80.81824219 96.45472656 -80.63648438 95.90945312 -80.44921875 95.34765625 C-78 88 -78 88 -77.05151367 86.12573242 C-75.38150965 82.42216597 -74.7540365 80.01327076 -75.72875977 75.99780273 C-77.01525889 72.66225581 -78.42986171 69.42901739 -79.9375 66.1875 C-80.93938254 63.97877547 -81.92833833 61.76412748 -82.90234375 59.54296875 C-83.35085693 58.57383545 -83.79937012 57.60470215 -84.26147461 56.60620117 C-85 54 -85 54 -84.51245117 52.04711914 C-82.25246762 48.98820677 -79.60415609 46.36071083 -76.8984375 43.703125 C-76.30197418 43.10949158 -75.70551086 42.51585815 -75.0909729 41.90423584 C-73.1903019 40.01473373 -71.28278526 38.13231608 -69.375 36.25 C-68.08287532 34.96790935 -66.79120324 33.68536239 -65.5 32.40234375 C-62.33855521 29.26291568 -59.1709539 26.12982199 -56 23 C-51.09845054 24.32322959 -46.37712267 25.66850131 -41.8671875 28.03515625 C-33.54499852 32.45278678 -33.54499852 32.45278678 -24.41796875 32.1171875 C-20.45163518 30.72560649 -16.75035735 28.887002 -13 27 C-12.34 27 -11.68 27 -11 27 C-10.01 24.03 -9.02 21.06 -8 18 C-5.36 12.06 -2.72 6.12 0 0 Z"/>
<path transform="translate(182,100)" fill="#8AC8FC" d="M0 0 C8.61512792 8.0776156 13.71275743 17.37417237 14.3359375 29.296875 C14.63781258 44.228081 11.64819662 54.58698371 1.5 65.75 C-1.17182347 68.15464112 -3.99529888 70.03538773 -7 72 C2.67299763 71.03358873 12.32891419 69.99961076 21.96484375 68.7109375 C22.78578522 68.60170959 23.60672668 68.49248169 24.45254517 68.37994385 C27.79434164 67.93378232 31.13573655 67.48512005 34.47583008 67.02636719 C59.8787925 63.55086795 59.8787925 63.55086795 66.5 66.625 C71.16939467 71.06092494 73.76603429 75.23920466 74.3125 81.6875 C74.23509335 86.35770148 72.89501685 90.3154331 70 94 C64.65538967 98.50486796 58.475389 99.81818203 51.8125 101.5625 C50.58611816 101.89185547 49.35973633 102.22121094 48.09619141 102.56054688 C43.73603365 103.72724955 39.36817139 104.8637404 35 106 C33.16031386 106.48028626 31.32063311 106.96059319 29.48095703 107.44091797 C23.61478393 108.97026277 17.7454878 110.48731203 11.875 112 C10.91018707 112.24928253 9.94537415 112.49856506 8.95132446 112.75540161 C6.19514424 113.46603871 3.43767497 114.17141374 0.6796875 114.875 C-0.15344467 115.09022812 -0.98657684 115.30545624 -1.84495544 115.52720642 C-4.96783963 116.31883501 -7.76452661 117 -11 117 C-11.08846191 117.91354248 -11.17692383 118.82708496 -11.26806641 119.76831055 C-12.06109999 125.27244581 -13.95517792 130.44913087 -15.7109375 135.70703125 C-16.0797403 136.82760422 -16.44854309 137.94817719 -16.82852173 139.10270691 C-18.00517977 142.67448152 -19.18977037 146.2435616 -20.375 149.8125 C-21.55151108 153.37122886 -22.72635594 156.93050082 -23.90005493 160.49015808 C-24.62933433 162.70021481 -25.36048741 164.90965446 -26.09384155 167.11836243 C-28.16764946 173.38308733 -30.14377366 179.66729897 -32 186 C-36.77338984 185.44691201 -40.89222132 184.46496133 -45.375 182.75 C-50.60451968 180.82275357 -55.83229252 179.10341455 -61.1875 177.5625 C-62.60814017 177.14997112 -64.02871162 176.73720553 -65.44921875 176.32421875 C-66.17931152 176.11200684 -66.9094043 175.89979492 -67.66162109 175.68115234 C-71.94750217 174.43270714 -76.22802802 173.17033056 -80.5 171.875 C-81.33168701 171.63338135 -82.16337402 171.3917627 -83.02026367 171.14282227 C-85.04442863 170.52155655 -87.02803701 169.77108809 -89 169 C-90.32573865 165.02278405 -89.35365741 163.24344699 -88.06567383 159.26879883 C-87.8479129 158.58870758 -87.63015198 157.90861633 -87.40579224 157.20791626 C-86.68168427 154.95466891 -85.94468879 152.70587594 -85.20703125 150.45703125 C-84.69892296 148.88883939 -84.19141913 147.32045156 -83.68449402 145.75187683 C-82.61813371 142.45894155 -81.54559882 139.16810201 -80.46850586 135.87866211 C-79.09413911 131.68024299 -77.73325193 127.47760919 -76.37682056 123.27336597 C-75.32896846 120.02969258 -74.27477856 116.78810658 -73.21863365 113.54712486 C-72.71500207 111.9996704 -72.21309201 110.45165449 -71.71299171 108.90305519 C-64.49695344 86.59791001 -64.49695344 86.59791001 -56 81 C-49.73339261 78.26593232 -43.1682359 77.21618648 -36.4375 76.3125 C-35.52419922 76.18294922 -34.61089844 76.05339844 -33.66992188 75.91992188 C-31.4475496 75.60576454 -29.22441823 75.29926203 -27 75 C-27.67522705 74.84192871 -28.3504541 74.68385742 -29.04614258 74.52099609 C-38.32049132 72.25803606 -45.19692841 67.11550501 -50.65234375 59.3046875 C-54.48805623 52.74506325 -57.56728674 45.64460095 -58 38 C-58.07541016 37.02740234 -58.07541016 37.02740234 -58.15234375 36.03515625 C-58.70200649 23.87661643 -54.86898398 13.01118791 -47.11328125 3.74609375 C-34.39851999 -9.81798359 -14.82427918 -11.88476399 0 0 Z"/>
<path transform="translate(92,268)" fill="#827581" d="M0 0 C9.54826743 2.74644167 19.01823209 5.6214873 28.4296875 8.80859375 C32.96188337 10.32097859 37.5253809 11.71602451 42.09765625 13.1015625 C44.52448783 13.85280242 46.91651852 14.6575566 49.3125 15.5 C52.60814015 16.62242817 55.92457113 17.47942772 59.31298828 18.27685547 C94.68484264 26.64689866 94.68484264 26.64689866 102.5 39.1875 C108.3228706 49.717191 106.6463681 61.45185302 103.5135498 72.64219666 C103.14814087 73.8521077 102.78273193 75.06201874 102.40625 76.30859375 C102.01857915 77.61320013 101.6309249 78.91781145 101.24328613 80.22242737 C100.43201382 82.92910835 99.60197412 85.62924437 98.76123047 88.3269043 C97.91002176 91.06996007 97.10005918 93.82025172 96.32470703 96.58569336 C89.18024404 122.00194618 89.18024404 122.00194618 81.29977417 126.52755737 C78.59386937 127.71266206 75.88387306 128.61964429 73.03503418 129.39572144 C69.68642734 130.39004937 66.64750385 131.97768256 63.5234375 133.51953125 C61.14176612 134.61966128 58.75896214 135.71734286 56.375 136.8125 C53.96554173 137.92187474 51.55691579 139.03302779 49.1484375 140.14453125 C48.10864746 140.62253174 47.06885742 141.10053223 45.99755859 141.59301758 C43.89249764 142.58108292 41.80810066 143.61380584 39.74072266 144.6784668 C37 146 37 146 35 146 C36.45148836 138.7183996 38.56827148 131.747366 40.85424805 124.68673897 C41.51429123 122.64724726 42.16893648 120.60608958 42.82226562 118.56443787 C44.67888719 112.76610796 46.54583702 106.97111344 48.4140625 101.17651367 C49.56211395 97.61439774 50.70478353 94.05058867 51.84448242 90.48579216 C52.48389727 88.49162642 53.12954325 86.49955142 53.77539062 84.50746155 C54.16919922 83.27595871 54.56300781 82.04445587 54.96875 80.77563477 C55.31357422 79.70579849 55.65839844 78.63596222 56.01367188 77.53370667 C57.255665 73.0840319 58.09399116 68.53004419 59 64 C49.76 61.03 40.52 58.06 31 55 C27.91416748 62.40599804 24.90750453 69.74621168 22.171875 77.2734375 C21.82522293 78.2202388 21.47857086 79.1670401 21.12141418 80.14253235 C20.37962079 82.1693434 19.6389903 84.19658038 18.89944458 86.22421265 C17.72986979 89.43017971 16.55673815 92.63482451 15.38256836 95.83911133 C13.74687259 100.30307524 12.1120278 104.76734884 10.47802734 109.23193359 C6.88599676 119.0443055 3.28824404 128.85454461 -0.32336426 138.659729 C-1.06210512 140.66732833 -1.79950634 142.67542114 -2.53552246 144.684021 C-3.560837 147.48194595 -4.59045644 150.27825091 -5.62109375 153.07421875 C-5.92033249 153.89392654 -6.21957123 154.71363434 -6.52787781 155.55818176 C-11.20747231 168.20761559 -11.20747231 168.20761559 -18.3125 171.5 C-18.97459473 171.81259766 -19.63668945 172.12519531 -20.31884766 172.44726562 C-21.89736768 173.18920789 -23.4801546 173.92210538 -25.06591797 174.6484375 C-27.9303063 175.96789613 -30.78187734 177.31168181 -33.6313324 178.66296387 C-37.04327555 180.28085326 -40.45895858 181.89078581 -43.875 183.5 C-44.55591705 183.82121826 -45.23683411 184.14243652 -45.93838501 184.47338867 C-47.8918442 185.39280194 -49.84781268 186.3066332 -51.8046875 187.21875 C-52.94921387 187.75435547 -54.09374023 188.28996094 -55.27294922 188.84179688 C-58 190 -58 190 -60 190 C-59.46559648 183.07474615 -57.97016494 177.06729729 -55.74609375 170.50390625 C-55.24811028 168.99766693 -55.24811028 168.99766693 -54.74006653 167.46099854 C-54.02271452 165.29415057 -53.30140641 163.12860906 -52.57653809 160.96426392 C-51.01335957 156.29579467 -49.47005329 151.62083143 -47.92575073 146.9460907 C-47.12485633 144.52188576 -46.32302809 142.09798915 -45.52029419 139.6743927 C-41.68300398 128.07920433 -37.95550359 116.45034089 -34.25 104.8125 C-29.6835053 90.48853924 -25.09386524 76.17231823 -20.46875 61.8671875 C-20.23171104 61.13398726 -19.99467209 60.40078701 -19.75045013 59.64536858 C-17.39506334 52.3604061 -15.03802526 45.07597979 -12.67858887 37.79232788 C-11.80004857 35.07970141 -10.92221975 32.366845 -10.04450989 29.65394974 C-9.44586606 27.80458338 -8.84618464 25.955553 -8.24645996 24.10653687 C-6.0267934 17.24556764 -3.88003071 10.36859357 -1.81719971 3.45869446 C-1 1 -1 1 0 0 Z"/>
<path transform="translate(499,240)" fill="#C48958" d="M0 0 C0 75.24 0 150.48 0 228 C-160.38 228 -320.76 228 -486 228 C-486 227.34 -486 226.68 -486 226 C-485.24323975 225.65219482 -485.24323975 225.65219482 -484.47119141 225.29736328 C-482.18699923 224.24445645 -479.90599306 223.18481832 -477.625 222.125 C-476.8309375 221.76019531 -476.036875 221.39539063 -475.21875 221.01953125 C-474.45820313 220.66503906 -473.69765625 220.31054688 -472.9140625 219.9453125 C-471.8614624 219.45828857 -471.8614624 219.45828857 -470.78759766 218.96142578 C-468.82403992 218.01591727 -468.82403992 218.01591727 -467 216 C-467 216.66 -467 217.32 -467 218 C-466.26289447 217.57501164 -465.52578894 217.15002327 -464.76634687 216.71215647 C-455.25261534 211.72368366 -447.16894008 211.16526233 -436.64613342 211.29866028 C-434.91914549 211.29819127 -433.19215662 211.29506681 -431.46517748 211.28953952 C-426.75133244 211.28198994 -422.03836085 211.31161355 -417.32467449 211.34758341 C-412.22933511 211.37980146 -407.13399846 211.37698678 -402.03857422 211.37840271 C-393.21965265 211.38547353 -384.40101665 211.41413694 -375.582201 211.45731544 C-362.82533248 211.51947927 -350.06858557 211.54542237 -337.31158572 211.56207951 C-316.60339411 211.58981723 -295.89534525 211.64215296 -275.18725586 211.7121582 C-273.94909488 211.71633814 -272.7109339 211.72051808 -271.4352529 211.72482469 C-270.19551173 211.72901128 -268.95577057 211.73319788 -267.67846149 211.73751134 C-250.08570449 211.79686618 -232.49294268 211.85034 -214.90014648 211.89672852 C-213.66137715 211.90000107 -212.42260782 211.90327362 -211.14630003 211.90664534 C-190.50507093 211.9606795 -169.8638274 212.00257477 -149.22255892 212.03824347 C-136.49333271 212.0610268 -123.76424828 212.09628366 -111.03510457 212.14762845 C-102.32159484 212.18228874 -93.60809658 212.20685271 -84.89453376 212.22342495 C-79.86489331 212.23343402 -74.83539588 212.24856593 -69.80582237 212.27686691 C-65.20398959 212.30271549 -60.60233468 212.31483648 -56.00043135 212.31597301 C-54.33381556 212.31887562 -52.66719934 212.32692427 -51.00063694 212.34057686 C-48.73833585 212.35840251 -46.47676536 212.35770754 -44.21441746 212.35238361 C-42.9569957 212.35677521 -41.69957395 212.36116681 -40.4040485 212.36569148 C-35.25043509 211.81204704 -32.0516761 210.20730075 -28.65743637 206.31078911 C-26.71662962 202.43395742 -26.43569468 199.26566604 -26.48101807 195.02737427 C-26.47351681 194.24228922 -26.46601556 193.45720417 -26.458287 192.64832866 C-26.43804559 190.02716276 -26.4461053 187.40686483 -26.45410156 184.78564453 C-26.44536461 182.90300137 -26.4348784 181.02036562 -26.42277527 179.13774109 C-26.39490971 174.03282822 -26.39151071 168.9281576 -26.39249516 163.82317972 C-26.38936655 158.48597695 -26.3637494 153.14888335 -26.34051514 147.81173706 C-26.29994768 137.70776286 -26.27961264 127.6038532 -26.26654124 117.4998101 C-26.25067376 105.99559973 -26.21225915 94.49149925 -26.17194796 82.98735261 C-26.08953876 59.32493862 -26.03545299 35.66252764 -26 12 C-23.44716278 10.71764807 -20.89369157 9.43658647 -18.33984375 8.15625 C-17.2634967 7.61532715 -17.2634967 7.61532715 -16.16540527 7.06347656 C-2.0666738 0 -2.0666738 0 0 0 Z"/>
<path transform="translate(89,285)" fill="#7B6D79" d="M0 0 C0.20302734 1.32451172 0.20302734 1.32451172 0.41015625 2.67578125 C2.35780445 13.53362842 5.63599208 22.10819746 14.6875 28.875 C20.12175597 32.34990944 25.97186358 34.75239587 32 37 C31.46863382 43.8302695 29.55397917 49.59589006 27.125 55.9765625 C26.52980812 57.57206436 26.52980812 57.57206436 25.92259216 59.19979858 C24.62311314 62.67794132 23.31165673 66.15143347 22 69.625 C21.09686612 72.03482981 20.194613 74.44498988 19.29321289 76.85546875 C17.90910217 80.55584168 16.52415057 84.25588235 15.13575745 87.95465088 C12.05839637 96.15391079 9.01377177 104.36453436 5.99609375 112.5859375 C5.60652496 113.64624176 5.21695618 114.70654602 4.81558228 115.79898071 C3.32566243 119.85484078 1.8360328 123.91079796 0.35131836 127.96856689 C-0.65975889 130.73021913 -1.67512478 133.49025949 -2.69140625 136.25 C-2.98431046 137.05384125 -3.27721466 137.8576825 -3.57899475 138.68588257 C-8.20221933 151.20518142 -8.20221933 151.20518142 -15.3125 154.5 C-15.97459473 154.81259766 -16.63668945 155.12519531 -17.31884766 155.44726562 C-18.89736768 156.18920789 -20.4801546 156.92210538 -22.06591797 157.6484375 C-24.9303063 158.96789613 -27.78187734 160.31168181 -30.6313324 161.66296387 C-34.04327555 163.28085326 -37.45895858 164.89078581 -40.875 166.5 C-41.55591705 166.82121826 -42.23683411 167.14243652 -42.93838501 167.47338867 C-44.8918442 168.39280194 -46.84781268 169.3066332 -48.8046875 170.21875 C-49.94921387 170.75435547 -51.09374023 171.28996094 -52.27294922 171.84179688 C-55 173 -55 173 -57 173 C-56.4655965 166.07474646 -54.97016345 160.06729638 -52.74609375 153.50390625 C-52.41401413 152.49947479 -52.08193451 151.49504333 -51.73979187 150.46017456 C-51.02234798 148.29305205 -50.30094887 146.1272357 -49.57598877 143.96261597 C-48.01510524 139.30101091 -46.4740799 134.63291713 -44.93206787 129.96504211 C-44.13208969 127.54358353 -43.33117677 125.12243357 -42.52935791 122.70158386 C-38.97884439 111.97296986 -35.51618912 101.21758219 -32.08532715 90.45019531 C-31.12293527 87.43102262 -30.15803422 84.41266287 -29.19238281 81.39453125 C-26.06700006 71.6232085 -22.95039564 61.84918254 -19.85128021 52.06949902 C-18.11126508 46.58021568 -16.36445704 41.09311837 -14.61348724 35.60731983 C-13.54744881 32.26622203 -12.48488152 28.92410572 -11.43048096 25.57931519 C-10.25911459 21.86350339 -9.0734732 18.1523338 -7.88671875 14.44140625 C-7.53742813 13.32516876 -7.18813751 12.20893127 -6.82826233 11.05886841 C-6.49910324 10.03727631 -6.16994415 9.0156842 -5.83081055 7.96313477 C-5.5481987 7.07247818 -5.26558685 6.18182159 -4.97441101 5.26417542 C-4.0653021 3.15173823 -2.67861148 0 0 0 Z"/>
<path transform="translate(383.375,138.3125)" fill="#D8EBFD" d="M0 0 C8.50986456 6.44357157 15.81827692 15.8672362 17.625 26.6875 C18.58084668 40.60212056 16.77825869 51.81894301 7.953125 63.14453125 C-0.45388357 72.32735437 -10.54331173 77.62068661 -22.95532227 78.20654297 C-35.15637947 78.43148219 -45.27097116 75.04432993 -54.375 66.6875 C-59.20284427 61.91913636 -62.84280257 56.99999217 -65.375 50.6875 C-65.73207031 49.80707031 -66.08914063 48.92664063 -66.45703125 48.01953125 C-69.33575533 37.57037535 -68.71613763 24.17235208 -63.375 14.6875 C-56.8846611 4.53299509 -48.05023253 -3.01030107 -36.578125 -6.92578125 C-23.59086742 -9.20545944 -11.04095932 -7.28408015 0 0 Z"/>
<path transform="translate(389.8125,123.1875)" fill="#EAA825" d="M0 0 C9.1554993 6.29440577 16.14121304 13.92622084 21.1875 23.8125 C21.57679688 24.56402344 21.96609375 25.31554687 22.3671875 26.08984375 C28.9448284 39.74925132 28.93949749 55.55650752 24.1875 69.8125 C17.80106088 85.64879212 7.2628213 97.0446142 -7.96484375 104.671875 C-15.74845277 107.78958945 -22.78998211 109.34714852 -31.1875 109.25 C-32.1050708 109.24315186 -33.0226416 109.23630371 -33.96801758 109.22924805 C-41.17877493 109.05909584 -47.23227856 107.85572645 -53.8125 104.8125 C-54.64394531 104.48507813 -55.47539062 104.15765625 -56.33203125 103.8203125 C-69.06695515 98.32524297 -80.20779183 86.29112015 -85.625 73.6875 C-91.70417598 58.37544582 -91.78553679 42.24430473 -85.8125 26.8125 C-78.48374842 11.60489685 -67.57954651 0.96453065 -51.69921875 -5.21484375 C-50.74660156 -5.53582031 -49.79398437 -5.85679688 -48.8125 -6.1875 C-47.74644531 -6.55101563 -46.68039062 -6.91453125 -45.58203125 -7.2890625 C-29.81859959 -11.04614984 -13.84005083 -8.14574819 0 0 Z M-64.5625 22.625 C-73.47893179 33.26251048 -74.65951761 44.12629284 -74.0390625 57.47900391 C-72.95768949 68.61667976 -65.3945453 78.21082761 -57.1015625 85.20703125 C-46.58053358 92.58611467 -35.30584198 94.00056621 -22.8125 92.8125 C-10.67418565 90.08964961 -0.98052165 82.90720034 5.71484375 72.4921875 C11.60089013 61.78176889 13.22305071 50.09881262 10.3046875 38.21875 C6.19679224 26.57517932 -1.20383734 16.97757355 -12.46875 11.52734375 C-14.89913399 10.53017149 -17.31179831 9.61583422 -19.8125 8.8125 C-20.40289062 8.62042969 -20.99328125 8.42835938 -21.6015625 8.23046875 C-38.76982133 4.98487918 -52.72803316 9.99986835 -64.5625 22.625 Z"/>
<path transform="translate(182,100)" fill="#F6DBCD" d="M0 0 C8.61512792 8.0776156 13.71275743 17.37417237 14.3359375 29.296875 C14.59828867 42.27316726 12.94146561 53.00797055 4 63 C3.21625 63.886875 2.4325 64.77375 1.625 65.6875 C-6.23142139 72.60863313 -13.95537524 75.53080512 -24.42578125 75.2421875 C-34.15077002 74.32724167 -41.05588197 70.2137972 -47.71875 63.1875 C-53.43082992 56.19311642 -57.48809054 47.04373376 -58 38 C-58.05027344 37.35160156 -58.10054688 36.70320313 -58.15234375 36.03515625 C-58.70200649 23.87661643 -54.86898398 13.01118791 -47.11328125 3.74609375 C-34.39851999 -9.81798359 -14.82427918 -11.88476399 0 0 Z"/>
<path transform="translate(434,67)" fill="#F2B02B" d="M0 0 C6.92810724 5.66574049 13.14204142 12.03033639 19.4375 18.375 C20.56161467 19.50413955 21.68596174 20.63304778 22.81054688 21.76171875 C25.54305235 24.50515188 28.27239009 27.25169985 31 30 C30.68135986 30.74048584 30.36271973 31.48097168 30.03442383 32.24389648 C28.5971635 35.6299306 27.20477576 39.03273629 25.8125 42.4375 C25.31041016 43.60216797 24.80832031 44.76683594 24.29101562 45.96679688 C21.21493682 53.21153733 21.21493682 53.21153733 21.94921875 60.78515625 C22.61725196 62.19756932 23.30100149 63.60265246 24 65 C24.21213135 65.77069824 24.4242627 66.54139648 24.64282227 67.33544922 C25.88167605 71.39517517 27.11299565 73.44035746 30.75585938 75.73876953 C34.21420277 77.34849521 37.67463071 78.7299139 41.25 80.0625 C45.4575 81.691875 49.665 83.32125 54 85 C54 99.19 54 113.38 54 128 C49.854375 129.485 45.70875 130.97 41.4375 132.5 C30.77068436 136.60568699 30.77068436 136.60568699 23.51245117 144.98779297 C21.57855106 149.85144588 20.32231026 154.6732251 21.625 159.875 C22.3828 161.59862352 23.1821438 163.3040489 24 165 C24.9350075 167.35955327 25.83164639 169.7322195 26.72998047 172.10595703 C28.11601252 175.752331 29.55874403 179.37514251 31 183 C20.98603356 195.08979826 9.32600103 200.95785347 -5 207 C-5 204 -5 204 -3.07226562 201.73168945 C-2.19248047 200.86761475 -1.31269531 200.00354004 -0.40625 199.11328125 C0.05986694 198.65140915 0.52598389 198.18953705 1.00622559 197.71366882 C2.4972629 196.23943048 3.99838872 194.77595912 5.5 193.3125 C6.51240054 192.31514472 7.52412811 191.31710583 8.53515625 190.31835938 C11.01567629 187.87092436 13.50535089 185.43304113 16 183 C14.61118535 178.63649451 13.19839773 174.31843159 11.359375 170.12109375 C11.09382813 169.50943359 10.82828125 168.89777344 10.5546875 168.26757812 C10.0142341 167.03844016 9.46193054 165.81445068 8.8984375 164.59570312 C5.96393421 157.7170531 7.35683503 151.7729353 9.8125 144.875 C12.47650315 138.78913073 15.70407532 136.7546895 21.71875 134.24609375 C22.8015625 133.83488281 23.884375 133.42367187 25 133 C27.18750895 132.04168709 29.37500929 131.08335455 31.5625 130.125 C36.59433962 128 36.59433962 128 40 128 C40 113.81 40 99.62 40 85 C38.35 84.67 36.7 84.34 35 84 C15.67208174 78.09408336 15.67208174 78.09408336 11.32421875 71.79296875 C9.76999356 68.48011654 8.72768358 65.58341855 8 62 C7.55914062 60.16888672 7.55914062 60.16888672 7.109375 58.30078125 C6.46890418 52.60536043 9.17958999 47.81025272 11.5 42.75 C12.37472384 40.81183638 13.23977036 38.86926782 14.09375 36.921875 C14.48240234 36.07206055 14.87105469 35.22224609 15.27148438 34.34667969 C16.127794 31.58835257 16.19649785 30.61984102 15 28 C12.88089797 25.44971691 12.88089797 25.44971691 10.1953125 22.8671875 C9.71552948 22.38927765 9.23574646 21.9113678 8.74142456 21.41897583 C7.72775766 20.41201801 6.71050582 19.40865786 5.68994141 18.40869141 C4.13052738 16.880417 2.5820223 15.3417451 1.03515625 13.80078125 C-4.17232537 8.53396087 -4.17232537 8.53396087 -10 4 C-6.7 2.68 -3.4 1.36 0 0 Z"/>
<path transform="translate(245,165)" fill="#64B7FB" d="M0 0 C4.84519135 2.42259567 7.32123742 5.33696883 10 10 C12.12590904 16.37772713 11.3034884 21.26116073 8.4609375 27.140625 C3.55553773 33.38386107 -3.86228328 34.64478725 -11.1875 36.5625 C-12.41388184 36.89185547 -13.64026367 37.22121094 -14.90380859 37.56054688 C-19.26396635 38.72724955 -23.63182861 39.8637404 -28 41 C-29.83968614 41.48028626 -31.67936689 41.96059319 -33.51904297 42.44091797 C-39.38521607 43.97026277 -45.2545122 45.48731203 -51.125 47 C-52.08981293 47.24928253 -53.05462585 47.49856506 -54.04867554 47.75540161 C-56.80485576 48.46603871 -59.56232503 49.17141374 -62.3203125 49.875 C-63.15344467 50.09022812 -63.98657684 50.30545624 -64.84495544 50.52720642 C-67.96783963 51.31883501 -70.76452661 52 -74 52 C-74.08846191 52.91354248 -74.17692383 53.82708496 -74.26806641 54.76831055 C-75.06109999 60.27244581 -76.95517792 65.44913087 -78.7109375 70.70703125 C-79.0797403 71.82760422 -79.44854309 72.94817719 -79.82852173 74.10270691 C-81.00517977 77.67448152 -82.18977037 81.2435616 -83.375 84.8125 C-84.55151108 88.37122886 -85.72635594 91.93050082 -86.90005493 95.49015808 C-87.62933433 97.70021481 -88.36048741 99.90965446 -89.09384155 102.11836243 C-91.16764946 108.38308733 -93.14377366 114.66729897 -95 121 C-99.571279 120.45144652 -103.67435795 119.58255197 -108 118 C-106.47784494 110.46216027 -104.27394839 103.252056 -101.90234375 95.94140625 C-101.50801651 94.71590561 -101.11368927 93.49040497 -100.70741272 92.22776794 C-99.87863342 89.652745 -99.04720922 87.07859776 -98.21362305 84.50512695 C-97.14488555 81.20549085 -96.0811922 77.90425623 -95.01923275 74.6024332 C-94.00303261 71.44396734 -92.98394158 68.28643843 -91.96484375 65.12890625 C-91.58255112 63.94253067 -91.20025848 62.75615509 -90.80638123 61.53382874 C-90.4525386 60.44186691 -90.09869598 59.34990509 -89.73413086 58.22485352 C-89.42261581 57.2616066 -89.11110077 56.29835968 -88.79014587 55.30592346 C-88 53 -88 53 -87 51 C-84.87719727 50.30151367 -84.87719727 50.30151367 -82.06640625 49.66796875 C-80.51880615 49.31037476 -80.51880615 49.31037476 -78.93994141 48.94555664 C-77.26810791 48.5703186 -77.26810791 48.5703186 -75.5625 48.1875 C-68.04236225 46.44396884 -60.54754453 44.68663654 -53.125 42.5625 C-44.25876499 40.02645376 -35.33053196 37.74632964 -26.38720703 35.49829102 C-14.45224113 32.98487307 -14.45224113 32.98487307 -5 26 C-3.18587229 20.55761686 -2.73012845 13.35070067 -4.7890625 7.91796875 C-6.50026955 5.33809553 -8.70045858 3.06958728 -11 1 C-7.26947433 -0.24350856 -3.87447957 -0.52198871 0 0 Z"/>
<path transform="translate(179.71484375,98.16796875)" fill="#F1CCBD" d="M0 0 C8.93482964 7.16313693 14.15995532 15.61652739 16.28515625 26.83203125 C17.55829251 39.03547411 16.69510269 51.03626605 9.34765625 61.26953125 C8.34858266 62.47539563 7.32941561 63.66507823 6.28515625 64.83203125 C5.10953125 66.16234375 5.10953125 66.16234375 3.91015625 67.51953125 C-4.98362679 75.35453059 -13.05327599 77.26217104 -24.71484375 76.83203125 C-24.71484375 76.17203125 -24.71484375 75.51203125 -24.71484375 74.83203125 C-24.12316406 74.5896875 -23.53148437 74.34734375 -22.921875 74.09765625 C-18.28049279 72.12904389 -14.58894121 70.11914425 -10.71484375 66.83203125 C-10.05484375 66.83203125 -9.39484375 66.83203125 -8.71484375 66.83203125 C-8.44542969 66.26613281 -8.17601562 65.70023437 -7.8984375 65.1171875 C-6.6596791 62.72552524 -5.24080946 60.52989686 -3.77734375 58.26953125 C2.31875038 48.07459632 3.90413478 37.12929622 1.62890625 25.46875 C-1.15347186 15.26269928 -6.57133956 5.61448449 -15.71484375 -0.16796875 C-18.98594668 -1.7027971 -22.29712758 -2.99893103 -25.71484375 -4.16796875 C-25.71484375 -4.49796875 -25.71484375 -4.82796875 -25.71484375 -5.16796875 C-16.77134351 -7.4327738 -7.5525481 -5.04731263 0 0 Z"/>
<path transform="translate(343,133)" fill="#BED8E9" d="M0 0 C0.66 0.33 1.32 0.66 2 1 C1.34773438 1.42410156 0.69546875 1.84820312 0.0234375 2.28515625 C-10.33413455 9.23603425 -16.65074138 16.54973819 -19.58544922 28.84790039 C-21.93832116 41.06260366 -19.99479987 51.92465097 -13.4609375 62.48828125 C-7.18073216 71.34307314 2.3034706 77.86328408 13 80 C18.66602358 80.41908458 24.32955672 80.23931531 30 80 C25.65031735 84.34968265 18.87008165 83.35807852 13.06884766 83.38720703 C1.49345251 83.18071071 -7.7692159 78.15401879 -15.90234375 70.12109375 C-19.87745729 65.82662648 -22.82017042 61.43407753 -25 56 C-25.35707031 55.11957031 -25.71414063 54.23914063 -26.08203125 53.33203125 C-28.96075533 42.88287535 -28.34113763 29.48485208 -23 20 C-17.28701997 11.06171732 -9.8328528 4.06876667 0 0 Z"/>
<path transform="translate(337,44)" fill="#F2B12E" d="M0 0 C14.19 0 28.38 0 43 0 C45.2275 6.2184375 45.2275 6.2184375 47.5 12.5625 C51.62184515 23.38067451 51.62184515 23.38067451 60.44726562 30.23413086 C63.59626612 31.34157644 66.76445823 32.1812741 70 33 C70.33 33.66 70.66 34.32 71 35 C64.80044726 38.01121133 59.95464488 35.81873331 53.75219727 33.67871094 C40.25094603 28.70321126 40.25094603 28.70321126 37.0625 22.25 C36.32479806 20.18390952 35.63773452 18.09910188 35 16 C34.05613399 13.80621879 33.09812488 11.61846011 32.125 9.4375 C30 4.40566038 30 4.40566038 30 1 C20.1 1 10.2 1 0 1 C0 0.67 0 0.34 0 0 Z"/>
<path transform="translate(17,464)" fill="#D19760" d="M0 0 C0.66 0.33 1.32 0.66 2 1 C1.67 1.33 1.34 1.66 1 2 C159.73 2.33 318.46 2.66 482 3 C482 3.33 482 3.66 482 4 C321.62 4 161.24 4 -4 4 C-4 3.34 -4 2.68 -4 2 C-2.125 0.9375 -2.125 0.9375 0 0 Z"/>
<path transform="translate(406,267)" fill="#F2B12E" d="M0 0 C0.99 0.99 0.99 0.99 2 2 C0.4805201 2.77349782 -1.04066567 3.5436448 -2.5625 4.3125 C-3.40941406 4.74175781 -4.25632812 5.17101562 -5.12890625 5.61328125 C-8 7 -8 7 -11.609375 8.13671875 C-16.29167715 10.70982719 -17.05472667 13.59758785 -18.6875 18.5 C-19.22187093 20.03519513 -19.76710869 21.56665971 -20.32421875 23.09375 C-20.6658606 24.10985352 -20.6658606 24.10985352 -21.0144043 25.14648438 C-24.17576014 31.09174412 -33.01393608 33.99294926 -39 36 C-44.29473601 36.66142444 -49.49340486 36.58000209 -54.8125 36.375 C-56.19850847 36.34480232 -57.5845818 36.31744411 -58.97070312 36.29296875 C-62.31551549 36.22304236 -65.6568687 36.12494693 -69 36 C-69 35.67 -69 35.34 -69 35 C-59.43 34.67 -49.86 34.34 -40 34 C-38.453125 29.99875 -36.90625 25.9975 -35.3125 21.875 C-29.42546317 7.78311789 -29.42546317 7.78311789 -22.4375 4.6875 C-20.30818255 4.06539538 -18.16152538 3.49881355 -16 3 C-14.1769274 2.21150854 -12.36326246 1.40069274 -10.5625 0.5625 C-6.6962001 -0.95258663 -4.04598425 -1.41609449 0 0 Z"/>
<path transform="translate(126,181)" fill="#A2C0DA" d="M0 0 C0.66 0.33 1.32 0.66 2 1 C-1.3 4.3 -4.6 7.6 -8 11 C-8 6.67750434 -5.85084926 5.11604454 -3 2 C-2.01 1.34 -1.02 0.68 0 0 Z"/>
</svg>