<svg xmlns="http://www.w3.org/2000/svg" version="1.1" viewBox="10.24 0 494.592 457.728" style="max-height: 500px" width="494.592" height="457.728">
<path transform="translate(40.197476387023926,221.86857223510742)" fill="#CA96E7" d="M0 0 C0.75382437 -0.00205263 1.50764874 -0.00410527 2.28431627 -0.0062201 C4.83665082 -0.01192144 7.38893194 -0.01042902 9.94127178 -0.00901413 C11.77909603 -0.01159597 13.61691971 -0.01460862 15.45474261 -0.01801753 C20.52567557 -0.02611204 25.59659439 -0.02787846 30.66753304 -0.028615 C36.12845277 -0.0304613 41.5893651 -0.03800647 47.05028057 -0.04475021 C59.00052897 -0.05835133 70.95077402 -0.06436099 82.90102887 -0.06876087 C90.35760682 -0.07152023 97.81418347 -0.075757 105.27076054 -0.08026505 C125.90092703 -0.09245991 146.53109249 -0.10275887 167.16126251 -0.10614014 C168.4958348 -0.10636177 169.83040709 -0.10658355 171.16497938 -0.10680549 C172.502811 -0.10702613 173.84064262 -0.10724661 175.17847425 -0.10746694 C177.86248354 -0.10790949 180.54649284 -0.10835661 183.23050213 -0.10880661 C183.8959824 -0.108916 184.56146268 -0.10902539 185.24710902 -0.1091381 C206.8306165 -0.11276961 228.41409042 -0.12869266 249.99758505 -0.15199697 C272.80663138 -0.17657961 295.61566318 -0.19030551 318.4247238 -0.19150805 C330.8623753 -0.19242616 343.29998284 -0.19821256 355.73762226 -0.21632767 C366.32702101 -0.23169609 376.91636223 -0.23686843 387.50577001 -0.22858956 C392.91188303 -0.22467151 398.31788009 -0.22566877 403.723979 -0.23964691 C408.66917578 -0.25231678 413.61416865 -0.25124955 418.55936488 -0.2390562 C420.35211629 -0.23708715 422.14488181 -0.24023288 423.93761335 -0.24890056 C426.36783394 -0.25991017 428.79732428 -0.25256453 431.2275238 -0.24050903 C431.92935511 -0.24810423 432.63118641 -0.25569942 433.35428533 -0.26352477 C437.66076391 -0.21716187 440.3721748 0.50126484 443.80252361 3.13142776 C445.91322953 7.3528396 445.07628624 12.86827261 445.11502361 17.50642776 C445.14402752 18.65627151 445.17303143 19.80611526 445.20291424 20.99080276 C445.21129314 22.09681839 445.21967205 23.20283401 445.22830486 24.34236526 C445.25017864 25.86289505 445.25017864 25.86289505 445.27249432 27.41414261 C444.65040637 31.010942 443.7218816 31.94779382 440.80252361 34.13142776 C437.8953067 34.53421181 435.36157181 34.69584611 432.4538908 34.6773262 C431.61449963 34.68766388 430.77510845 34.69800156 429.91028118 34.7086525 C427.13979201 34.73811636 424.37003225 34.73958041 421.59939861 34.74080276 C419.67696009 34.75578201 417.75453445 34.77250861 415.83212566 34.79091263 C410.77525528 34.83462711 405.7185585 34.85459434 400.6615324 34.86964798 C395.50009154 34.88920427 390.33883856 34.93117594 385.17752361 34.97127151 C375.05258151 35.04661804 364.92768137 35.09688264 354.80252361 35.13142776 C355.353195 35.53772415 355.90386639 35.94402054 356.47122478 36.36262894 C357.19285809 36.89863724 357.91449139 37.43464554 358.65799236 37.98689651 C359.37366375 38.5169429 360.08933514 39.04698929 360.82669353 39.59309769 C366.19619795 43.77365463 368.24930535 48.68125086 369.80252361 55.13142776 C370.2097593 59.06537783 370.21325112 62.96587431 370.19070721 66.918293 C370.19859264 68.63718231 370.19859264 68.63718231 370.20663738 70.39079666 C370.21977953 74.15734595 370.21111883 77.92346834 370.20096111 81.69002151 C370.20298364 84.32121232 370.20589656 86.95240257 370.20965862 89.58359146 C370.21510128 95.09022468 370.20796473 100.5967368 370.19363689 106.10335159 C370.17732127 112.44671103 370.18259682 118.78978095 370.19911611 125.13313335 C370.21443415 131.26327527 370.21273159 137.39329007 370.20397091 143.52344322 C370.20197608 146.11926248 370.20440284 148.71508917 370.21140957 151.31089973 C370.21906818 154.94585193 370.20735697 158.58025636 370.19070721 162.215168 C370.1967799 163.27781372 370.20285259 164.34045944 370.20910931 165.43530655 C370.11979656 176.01440173 367.6776925 184.94449826 360.80252361 193.13142776 C358.21227832 195.61946193 355.44580366 197.75834228 352.55252361 199.88142776 C351.76893475 200.47359085 350.98534588 201.06575394 350.17801189 201.67586136 C343.25051639 206.88289281 336.21267032 211.94313874 329.16580486 216.98689651 C324.36826853 220.42913677 319.64658051 223.96736175 314.93558025 227.52669144 C311.23095662 230.32187678 307.50645217 233.08591595 303.75564861 235.81892776 C302.47355511 236.75490799 302.47355511 236.75490799 301.16556072 237.70979691 C299.50755753 238.91834427 297.84704288 240.12345627 296.18362713 241.324543 C289.01150573 246.30809525 289.01150573 246.30809525 283.80252361 253.13142776 C283.69518752 255.39657028 283.64695369 257.66461489 283.62674236 259.93220901 C283.603538 261.31568767 283.57942041 262.69915125 283.55447674 264.08259964 C283.51941371 266.26165641 283.49004686 268.4401608 283.47659588 270.61946487 C283.461064 272.72439306 283.42082213 274.82770979 283.37674236 276.93220901 C283.36215984 278.19202591 283.34757732 279.4518428 283.33255291 280.74983597 C282.71699392 284.67710797 281.56966505 286.33324208 278.80252361 289.13142776 C276.34092096 290.36222909 274.71765323 290.26539676 271.96406841 290.27859879 C270.43099293 290.28933174 270.43099293 290.28933174 268.86694622 290.30028152 C267.7412019 290.30297043 266.61545757 290.30565933 265.45559978 290.30842972 C264.27340359 290.31500092 263.09120739 290.32157211 261.87318707 290.32834244 C257.94729544 290.34811014 254.02141714 290.35974523 250.09549236 290.36970901 C248.74408033 290.37375645 247.39266851 290.37787337 246.0412569 290.3820591 C239.69222457 290.40111168 233.34320387 290.41534248 226.99414843 290.42367107 C219.66512658 290.43344384 212.33640672 290.45976371 205.00749129 290.50017196 C199.34287357 290.53033225 193.67834241 290.54513985 188.01364595 290.54845208 C184.63027638 290.55080276 181.2472294 290.55976459 177.86394596 290.58491325 C174.08826099 290.60917329 170.31336953 290.60836327 166.53763103 290.60139847 C164.85812359 290.62061356 164.85812359 290.62061356 163.1446867 290.64021683 C155.56465495 290.58914079 155.56465495 290.58914079 151.6315794 288.2270546 C148.44645223 284.57771924 148.65854977 282.12100571 148.59158611 277.33064651 C148.56350921 275.94717131 148.53484469 274.56370793 148.50564861 273.18025589 C148.46445769 271.00130524 148.4275678 268.82257335 148.40115643 266.64339066 C148.37344085 264.53867942 148.32756507 262.43496853 148.27908611 260.33064651 C148.25926678 259.07082962 148.23944744 257.81101273 148.21902752 256.51301956 C147.67194884 252.07129222 146.30999674 249.50990709 143.01932049 246.50081253 C142.35996502 246.02957962 141.70060955 245.55834671 141.02127361 245.07283401 C140.27168377 244.52949417 139.52209393 243.98615433 138.74978924 243.42634964 C137.94219158 242.85465042 137.13459393 242.2829512 136.30252361 241.69392776 C134.57318179 240.44547244 132.84402007 239.19676761 131.11502361 237.94783401 C130.23072674 237.3137764 129.34642986 236.67971878 128.43533611 236.0264473 C124.36496532 233.09671639 120.33475468 230.11330935 116.30252361 227.13142776 C114.72204914 225.96571779 113.14131904 224.80035432 111.56033611 223.63533401 C110.77690838 223.05799515 109.99348064 222.48065628 109.18631268 221.8858223 C106.78691475 220.11994013 104.38489062 218.35768549 101.98221111 216.59627151 C98.02574355 213.69496887 94.08060985 210.77873166 90.13992596 207.85603714 C87.78290601 206.11695328 85.41232274 204.39754345 83.04080486 202.67830276 C72.01513857 194.59886965 64.83647382 187.89719132 61.80252361 174.13142776 C61.4062847 170.15313413 61.39150614 166.21081302 61.41434002 162.215168 C61.40908306 161.06748947 61.4038261 159.91981094 61.39840984 158.73735428 C61.38528516 154.97143524 61.39392096 151.2059443 61.40408611 147.44002151 C61.40206336 144.80786432 61.39915025 142.17570768 61.3953886 139.5435524 C61.38994949 134.03869932 61.3970747 128.53396747 61.41141033 123.02913284 C61.42774152 116.68516472 61.42243767 110.34148584 61.40593112 103.99752468 C61.39062447 97.8668433 61.39231069 91.73628912 61.40107632 85.60559654 C61.40307229 83.00895077 61.40064032 80.41229757 61.39363766 77.81566048 C61.38598926 74.18300779 61.39767534 70.55090491 61.41434002 66.918293 C61.40826733 65.85362305 61.40219463 64.78895309 61.39593792 63.69202042 C61.46434582 55.61190687 62.46099283 47.88682503 68.17752361 41.75642776 C68.74213299 41.12994339 69.30674236 40.50345901 69.88846111 39.85799026 C72.0348134 37.9218929 74.31254904 36.58761597 76.80252361 35.13142776 C75.73399151 35.12778214 74.6654594 35.12413651 73.56454754 35.1203804 C63.49976814 35.08345592 53.43529542 35.02571125 43.37074947 34.94752502 C38.19630181 34.90799813 33.02202566 34.87583524 27.84744549 34.86043167 C22.85463175 34.8452994 17.86228935 34.81091501 12.86968517 34.76311874 C10.9639295 34.74826949 9.05810654 34.74038473 7.15229321 34.73954391 C4.48473505 34.73718313 1.81848896 34.71017623 -0.84884357 34.6773262 C-2.03351719 34.68487175 -2.03351719 34.68487175 -3.2421236 34.69256973 C-6.7855529 34.62495488 -8.8130566 34.41961772 -11.6869173 32.26515579 C-13.63974908 29.50669905 -13.713566 27.77611845 -13.72872639 24.41267776 C-13.73388264 23.31568558 -13.73903889 22.21869339 -13.74435139 21.08845901 C-13.72888264 19.9476387 -13.71341389 18.80681839 -13.69747639 17.63142776 C-13.71294514 16.49060745 -13.72841389 15.34978714 -13.74435139 14.17439651 C-13.73919514 13.07740433 -13.73403889 11.98041214 -13.72872639 10.85017776 C-13.72421467 9.84922073 -13.71970295 8.8482637 -13.71505451 7.81697464 C-13.06418599 4.43982665 -11.8272498 3.27502458 -9.19747639 1.13142776 C-6.24005145 -0.3472847 -3.24227349 -0.00809349 0 0 Z M94.80252361 34.13142776 C96.73559858 35.42014441 98.69299232 36.67345219 100.67752361 37.88142776 C106.14796644 41.8201466 109.89874718 46.63478441 111.80252361 53.13142776 C112.23134382 56.67284554 112.24014096 60.18406808 112.23489666 63.74837112 C112.24508831 64.79302536 112.25527996 65.8376796 112.26578045 66.91399002 C112.29585458 70.34980548 112.3051681 73.78534185 112.31424236 77.22127151 C112.33109313 79.61024269 112.34924391 81.99920502 112.36863995 84.38815689 C112.4161025 90.66314811 112.44593631 96.93810345 112.47207928 103.21321487 C112.50190352 109.62157142 112.54842752 116.02980445 112.59353924 122.43806839 C112.67952988 135.00245429 112.74746163 147.5668702 112.80252361 160.13142776 C113.65781658 160.43322952 114.51310955 160.73503128 115.39432049 161.04597855 C117.93374114 161.94270719 120.4727413 162.84057206 123.01138592 163.73949051 C125.88620381 164.7571444 128.76313258 165.76852028 131.64151287 166.77605057 C143.76072914 171.03384645 143.76072914 171.03384645 148.59744549 173.18465042 C160.01980836 178.25305513 170.99343366 177.81802549 183.30252361 177.50642776 C185.39753684 177.47625334 187.49259253 177.44889091 189.58767986 177.42439651 C194.66036624 177.35907966 199.73096025 177.25598127 204.80252361 177.13142776 C201.94929726 175.67539409 199.13280598 174.51788896 196.11502361 173.44392776 C184.30185566 168.7255993 175.33299975 159.08012896 169.81033611 147.78377151 C165.17117385 135.5745034 164.56156472 119.99778217 169.48221111 107.79939651 C176.4791682 93.66057495 185.09514605 85.86353389 199.80252361 80.13142776 C200.81572674 79.72924026 200.81572674 79.72924026 201.84939861 79.31892776 C214.92010436 75.15480912 229.80098963 78.35546656 241.61502361 84.44392776 C252.77932438 91.19965638 260.35827202 101.00051447 264.14236736 113.56502151 C267.00255707 129.0168156 265.01161976 143.48816922 256.49783611 156.81502151 C248.63065533 167.5644183 239.33630594 172.3921827 226.80252361 176.13142776 C226.80252361 176.46142776 226.80252361 176.79142776 226.80252361 177.13142776 C232.34970493 177.57352191 237.88549144 177.86920089 243.44681072 178.06526566 C245.30995313 178.14741039 247.17215972 178.26052998 249.0307951 178.41389847 C273.53208408 180.37481581 296.500602 168.95520121 318.80252361 160.13142776 C318.80394863 158.81312973 318.80537365 157.4948317 318.80684185 156.13658524 C318.82353895 143.68967289 318.86639595 131.24308634 318.93461418 118.79634666 C318.9688489 112.39790189 318.99398879 105.99969501 318.99808025 99.60115433 C319.00237059 93.4217599 319.03089558 87.24290182 319.07595539 81.06367493 C319.08890668 78.71071247 319.09324653 76.35768575 319.08867741 74.00469208 C319.08375487 70.69886066 319.1099397 67.39458681 319.14309978 64.0889473 C319.13447414 63.12437103 319.1258485 62.15979477 319.11696148 61.16598892 C319.24463916 53.53194869 321.32753167 46.87808333 326.60829735 41.18448448 C329.70736269 38.34364537 332.73587912 36.36374428 336.80252361 35.13142776 C336.80252361 34.80142776 336.80252361 34.47142776 336.80252361 34.13142776 C256.94252361 34.13142776 177.08252361 34.13142776 94.80252361 34.13142776 Z"/>
<path transform="translate(40.197476387023926,221.86857223510742)" fill="#908190" d="M0 0 C0.75382437 -0.00205263 1.50764874 -0.00410527 2.28431627 -0.0062201 C4.83665082 -0.01192144 7.38893194 -0.01042902 9.94127178 -0.00901413 C11.77909603 -0.01159597 13.61691971 -0.01460862 15.45474261 -0.01801753 C20.52567557 -0.02611204 25.59659439 -0.02787846 30.66753304 -0.028615 C36.12845277 -0.0304613 41.5893651 -0.03800647 47.05028057 -0.04475021 C59.00052897 -0.05835133 70.95077402 -0.06436099 82.90102887 -0.06876087 C90.35760682 -0.07152023 97.81418347 -0.075757 105.27076054 -0.08026505 C125.90092703 -0.09245991 146.53109249 -0.10275887 167.16126251 -0.10614014 C168.4958348 -0.10636177 169.83040709 -0.10658355 171.16497938 -0.10680549 C172.502811 -0.10702613 173.84064262 -0.10724661 175.17847425 -0.10746694 C177.86248354 -0.10790949 180.54649284 -0.10835661 183.23050213 -0.10880661 C183.8959824 -0.108916 184.56146268 -0.10902539 185.24710902 -0.1091381 C206.8306165 -0.11276961 228.41409042 -0.12869266 249.99758505 -0.15199697 C272.80663138 -0.17657961 295.61566318 -0.19030551 318.4247238 -0.19150805 C330.8623753 -0.19242616 343.29998284 -0.19821256 355.73762226 -0.21632767 C366.32702101 -0.23169609 376.91636223 -0.23686843 387.50577001 -0.22858956 C392.91188303 -0.22467151 398.31788009 -0.22566877 403.723979 -0.23964691 C408.66917578 -0.25231678 413.61416865 -0.25124955 418.55936488 -0.2390562 C420.35211629 -0.23708715 422.14488181 -0.24023288 423.93761335 -0.24890056 C426.36783394 -0.25991017 428.79732428 -0.25256453 431.2275238 -0.24050903 C431.92935511 -0.24810423 432.63118641 -0.25569942 433.35428533 -0.26352477 C437.66076391 -0.21716187 440.3721748 0.50126484 443.80252361 3.13142776 C445.91322953 7.3528396 445.07628624 12.86827261 445.11502361 17.50642776 C445.14402752 18.65627151 445.17303143 19.80611526 445.20291424 20.99080276 C445.21129314 22.09681839 445.21967205 23.20283401 445.22830486 24.34236526 C445.25017864 25.86289505 445.25017864 25.86289505 445.27249432 27.41414261 C444.66367503 30.93422502 443.57421233 31.9224306 440.80252361 34.13142776 C438.10640359 34.63463378 438.10640359 34.63463378 434.95357418 34.63923645 C433.7508053 34.65068404 432.54803643 34.66213163 431.30882001 34.67392612 C429.972511 34.66644324 428.63620402 34.65859115 427.2998991 34.6504097 C425.88163228 34.6562834 424.46337181 34.66390963 423.04512286 34.67314076 C419.14330921 34.69344984 415.24185812 34.68883454 411.34001565 34.68023324 C407.13414235 34.67529901 402.92836137 34.69336005 398.72252178 34.7086525 C391.43412717 34.73199448 384.14583214 34.74071172 376.85740185 34.73954391 C366.31953188 34.73787652 355.78179489 34.75819057 345.24396035 34.78389922 C328.14776526 34.8250097 311.05159404 34.84830061 293.95535564 34.86043167 C277.34628281 34.87225511 260.73725495 34.89244208 244.12820721 34.92390823 C243.10471862 34.92584434 242.08123003 34.92778044 241.02672663 34.92977521 C235.89227246 34.9395396 230.75781862 34.94946874 225.62336493 34.95947981 C183.01643977 35.04234083 140.40951306 35.09630201 97.80252361 35.13142776 C98.75554363 35.75686478 99.70856365 36.38230179 100.69046307 37.02669144 C103.22296072 38.73946011 105.0353929 40.14983737 106.99002361 42.44392776 C107.69191814 43.24250198 107.69191814 43.24250198 108.40799236 44.05720901 C112.08200616 49.52191861 113.17707047 54.04283062 113.09549236 60.59627151 C113.08425335 62.45820145 113.08425335 62.45820145 113.07278728 64.35774612 C113.04547527 65.91243607 113.01816326 67.46712601 112.99002361 69.06892776 C112.92814861 74.03955276 112.86627361 79.01017776 112.80252361 84.13142776 C95.97252361 84.13142776 79.14252361 84.13142776 61.80252361 84.13142776 C61.74064861 79.53205276 61.67877361 74.93267776 61.61502361 70.19392776 C61.5740556 68.04582596 61.5740556 68.04582596 61.53225994 65.85432816 C61.47393213 56.86243715 61.76512908 48.63306806 68.17752361 41.75642776 C68.74213299 41.12994339 69.30674236 40.50345901 69.88846111 39.85799026 C72.0348134 37.9218929 74.31254904 36.58761597 76.80252361 35.13142776 C75.73399151 35.12778214 74.6654594 35.12413651 73.56454754 35.1203804 C63.49976814 35.08345592 53.43529542 35.02571125 43.37074947 34.94752502 C38.19630181 34.90799813 33.02202566 34.87583524 27.84744549 34.86043167 C22.85463175 34.8452994 17.86228935 34.81091501 12.86968517 34.76311874 C10.9639295 34.74826949 9.05810654 34.74038473 7.15229321 34.73954391 C4.48473505 34.73718313 1.81848896 34.71017623 -0.84884357 34.6773262 C-2.03351719 34.68487175 -2.03351719 34.68487175 -3.2421236 34.69256973 C-6.7855529 34.62495488 -8.8130566 34.41961772 -11.6869173 32.26515579 C-13.63974908 29.50669905 -13.713566 27.77611845 -13.72872639 24.41267776 C-13.73388264 23.31568558 -13.73903889 22.21869339 -13.74435139 21.08845901 C-13.72888264 19.9476387 -13.71341389 18.80681839 -13.69747639 17.63142776 C-13.71294514 16.49060745 -13.72841389 15.34978714 -13.74435139 14.17439651 C-13.73919514 13.07740433 -13.73403889 11.98041214 -13.72872639 10.85017776 C-13.72421467 9.84922073 -13.71970295 8.8482637 -13.71505451 7.81697464 C-13.06418599 4.43982665 -11.8272498 3.27502458 -9.19747639 1.13142776 C-6.24005145 -0.3472847 -3.24227349 -0.00809349 0 0 Z"/>
<path transform="translate(62.71697998046875,127.8348388671875)" fill="#918291" d="M0 0 C81.63673211 23.78497812 167.54758144 31.67392401 400.32794189 -4.0916748 C404.6922507 -5.18924222 407.96113483 -5.56835935 411.95098877 -3.35437012 C415.02635145 -0.0317421 416.20200534 3.22358071 417.59552002 7.47766113 C417.8591333 8.21178223 418.12274658 8.94590332 418.39434814 9.70227051 C419.95838174 14.28062341 420.90731244 18.28167742 420.28302002 23.16516113 C417.60133768 27.26253224 415.47095839 28.8874203 410.80645752 30.27062988 C409.68312012 30.60916992 408.55978271 30.94770996 407.40240479 31.29650879 C406.16675781 31.64503906 404.93111084 31.99356934 403.65802002 32.35266113 C402.33369602 32.73587945 401.0093966 33.1191827 399.68511963 33.50256348 C347.16202124 48.50421285 292.86034446 58.2272592 238.28302002 61.16516113 C237.1446167 61.22711166 237.1446167 61.22711166 235.98321533 61.29031372 C222.03777458 62.03321822 208.12256289 62.3687178 194.15802002 62.35266113 C193.16922852 62.35205688 192.18043701 62.35145264 191.16168213 62.35083008 C125.81549861 62.24368805 61.14709293 53.26754315 -1.96697998 36.41516113 C-3.27803207 36.06658554 -3.27803207 36.06658554 -4.61557007 35.71096802 C-30.2368661 28.86019673 -30.2368661 28.86019673 -33.71697998 23.16516113 C-34.35347684 17.42270045 -32.94056585 12.79973157 -31.02947998 7.47766113 C-30.78520264 6.73193848 -30.54092529 5.98621582 -30.28924561 5.21789551 C-24.94677399 -9.9439037 -12.01160066 -3.52110452 0 0 Z"/>
<path transform="translate(288.3046875,309.7109375)" fill="#FEBC86" d="M0 0 C9.54961182 7.87762591 16.70018941 19.07870766 17.91845703 31.57861328 C18.91228161 47.50161467 16.26892454 61.33158358 5.58984375 73.734375 C1.09499943 78.42262914 -3.45125586 82.43065423 -9.3046875 85.2890625 C-10.48998047 85.876875 -10.48998047 85.876875 -11.69921875 86.4765625 C-23.60956055 91.38382779 -38.94201632 91.21885533 -51.1171875 87.2265625 C-56.95820925 84.75214398 -61.65639405 81.57406247 -66.3046875 77.2890625 C-67.22314453 76.52335937 -67.22314453 76.52335937 -68.16015625 75.7421875 C-76.21595584 68.55776579 -81.51720171 57.69274943 -82.52172852 46.97290039 C-83.34484374 30.231717 -80.59215229 16.65570454 -69.0859375 3.8125 C-62.94041827 -2.15344237 -56.2629372 -5.66595221 -48.3046875 -8.7109375 C-47.63050781 -8.97777344 -46.95632812 -9.24460937 -46.26171875 -9.51953125 C-30.63945848 -14.52003399 -12.73440061 -9.45367367 0 0 Z"/>
<path transform="translate(301,222)" fill="#7A6C78" d="M0 0 C23.12194209 -0.07005265 46.24386671 -0.12296983 69.36589336 -0.15543652 C80.10163099 -0.17091143 90.83730272 -0.1920129 101.57299805 -0.22631836 C110.92922964 -0.25620157 120.28541351 -0.27557046 129.64169151 -0.28226548 C134.59667957 -0.28617956 139.5515311 -0.29539121 144.50647545 -0.31719017 C149.16936943 -0.33753825 153.83207049 -0.34383718 158.49500465 -0.33932304 C160.20706353 -0.340149 161.91912879 -0.34612464 163.63114929 -0.35761642 C165.96805667 -0.37253448 168.30423493 -0.36895643 170.64115906 -0.36076355 C171.9491833 -0.36352893 173.25720755 -0.36629431 174.60486889 -0.36914349 C178.23201214 0.02522606 180.11897395 0.80425794 183 3 C185.11070592 7.22141183 184.27376262 12.73684485 184.3125 17.375 C184.34150391 18.52484375 184.37050781 19.6746875 184.40039062 20.859375 C184.40876953 21.96539062 184.41714844 23.07140625 184.42578125 24.2109375 C184.44765503 25.73146729 184.44765503 25.73146729 184.4699707 27.28271484 C183.84725178 30.88316244 182.92825103 31.82020659 180 34 C177.05566424 34.38420952 174.48890015 34.52358093 171.54656982 34.48101807 C170.25512428 34.48614462 170.25512428 34.48614462 168.93758893 34.49137473 C166.04757402 34.49797259 163.15848427 34.47594615 160.26855469 34.45410156 C158.1990257 34.4529735 156.1294951 34.45360614 154.05996704 34.45587158 C148.43627663 34.45702125 142.81292612 34.43347085 137.18931484 34.40557575 C131.31431734 34.38060429 125.43931241 34.37822345 119.56427002 34.37347412 C108.43663099 34.36103185 97.30914878 34.3281932 86.18157887 34.28807616 C73.51427644 34.24339747 60.84696659 34.22138122 48.17960501 34.20129442 C22.11964966 34.15946175 -3.94016639 34.08908529 -30 34 C-27.28538253 31.28200874 -24.56980109 28.56882091 -21.80078125 25.90625 C-9.44800489 14.10180341 -9.44800489 14.10180341 0 0 Z"/>
<path transform="translate(253.693603515625,-0.295166015625)" fill="#EE6060" d="M0 0 C2.10084701 -0.01718633 4.2001085 -0.06106997 6.30053711 -0.10522461 C7.64232244 -0.1153545 8.98412112 -0.12386968 10.32592773 -0.13061523 C12.15281128 -0.15248901 12.15281128 -0.15248901 14.01660156 -0.17480469 C17.91449401 0.38203709 19.53314351 1.55821466 22.30639648 4.29516602 C23.59206378 6.8665006 23.42649427 8.69233702 23.41992188 11.57104492 C23.41984634 12.67203522 23.41977081 13.77302551 23.41969299 14.90737915 C23.41453171 16.10011444 23.40937042 17.29284973 23.40405273 18.52172852 C23.40263779 19.73968109 23.40122284 20.95763367 23.39976501 22.2124939 C23.39415287 26.11507592 23.38159827 30.01760124 23.36889648 33.92016602 C23.36388305 36.56079019 23.35931987 39.20141526 23.35522461 41.84204102 C23.34417949 48.32643547 23.3274295 54.81079669 23.30639648 61.29516602 C24.27279053 61.27268799 25.23918457 61.25020996 26.23486328 61.22705078 C27.49983643 61.20956787 28.76480957 61.19208496 30.06811523 61.17407227 C31.9508313 61.14035522 31.9508313 61.14035522 33.87158203 61.10595703 C37.03782158 61.28037139 38.5980942 61.4060033 41.11889648 63.23266602 C44.05555079 67.34398204 44.94125307 70.28043529 44.30639648 75.29516602 C43.20678711 77.42016602 43.20678711 77.42016602 41.71264648 79.54516602 C41.16511719 80.32666016 40.61758789 81.1081543 40.0534668 81.91333008 C37.2902543 85.68050463 34.452083 89.37904528 31.55639648 93.04516602 C30.32299764 94.61782712 29.08992699 96.19074567 27.85717773 97.76391602 C27.25599121 98.52961914 26.65480469 99.29532227 26.03540039 100.08422852 C22.8197102 104.19624353 19.65702263 108.34876504 16.48999023 112.49829102 C8.37285582 122.89519306 8.37285582 122.89519306 2.43139648 123.67016602 C-3.26162199 122.9870038 -6.52451119 119.7277756 -9.99047852 115.42407227 C-11.15086077 113.90904548 -12.30152425 112.38653752 -13.44360352 110.85766602 C-14.05413574 110.05578857 -14.66466797 109.25391113 -15.29370117 108.42773438 C-16.52531418 106.80944465 -17.75340014 105.18846399 -18.9777832 103.56469727 C-20.91044142 101.00835253 -22.87115831 98.47510235 -24.83740234 95.94458008 C-39.98734225 76.41759031 -39.98734225 76.41759031 -39.63110352 70.98266602 C-39.14445106 67.47424131 -38.64531321 66.22755958 -36.50610352 63.23266602 C-33.05034 60.72849725 -29.60065093 61.09983472 -25.45532227 61.17407227 C-24.19034912 61.19155518 -22.92537598 61.20903809 -21.62207031 61.22705078 C-20.65567627 61.24952881 -19.68928223 61.27200684 -18.69360352 61.29516602 C-18.70248596 60.61722488 -18.71136841 59.93928375 -18.72052002 59.24079895 C-18.80901842 52.18438142 -18.86934857 45.12812157 -18.91333008 38.07128906 C-18.93344449 35.43776038 -18.96073955 32.80427635 -18.99536133 30.17089844 C-19.04388439 26.38538595 -19.06657464 22.60046401 -19.08422852 18.81469727 C-19.10487366 17.63744583 -19.1255188 16.4601944 -19.14678955 15.24726868 C-19.14903471 7.06723311 -19.14903471 7.06723311 -16.79418945 3.07519531 C-11.96370343 -1.01814193 -6.02881612 0.03437821 0 0 Z"/>
<path transform="translate(474.66796875,124.48046875)" fill="#7A6D79" d="M0 0 C3.07536268 3.32262802 4.25101657 6.57795083 5.64453125 10.83203125 C5.90814453 11.56615234 6.17175781 12.30027344 6.44335938 13.05664062 C8.00739298 17.63499353 8.95632367 21.63604753 8.33203125 26.51953125 C5.65034891 30.61690236 3.51996962 32.24179042 -1.14453125 33.625 C-2.26786865 33.96354004 -3.39120605 34.30208008 -4.54858398 34.65087891 C-6.40205444 35.17367432 -6.40205444 35.17367432 -8.29296875 35.70703125 C-9.61729275 36.09024957 -10.94159217 36.47355281 -12.26586914 36.85693359 C-54.07141099 48.79743406 -96.51907094 56.71496191 -139.6796875 61.671875 C-140.43194611 61.75897736 -141.18420471 61.84607971 -141.95925903 61.93582153 C-145.2295828 62.30133526 -148.37104532 62.51953125 -151.66796875 62.51953125 C-147.66796875 50.51953125 -143.66796875 38.51953125 -139.66796875 26.51953125 C-138.46188965 26.33890137 -137.25581055 26.15827148 -136.01318359 25.97216797 C-95.07628889 19.81938502 -53.91960637 13.15276818 -14.47412109 0.1953125 C-9.16242329 -1.51504682 -5.0619266 -2.80888753 0 0 Z"/>
<path transform="translate(389,306)" fill="#BD80E1" d="M0 0 C6.93 0 13.86 0 21 0 C21.06792879 11.56182858 21.1229043 23.12352339 21.15543652 34.68550682 C21.17105476 40.05489932 21.19222263 45.42414754 21.22631836 50.79345703 C21.25904907 55.98060132 21.27688188 61.16760732 21.28463173 66.35484695 C21.29015069 68.32827555 21.30092759 70.30169707 21.31719017 72.27506638 C21.42677243 86.13034807 21.33257608 97.88679773 12 109 C9.4097547 111.48803416 6.64328004 113.62691451 3.75 115.75 C2.96641113 116.34216309 2.18282227 116.93432617 1.37548828 117.54443359 C-5.55200722 122.75146505 -12.58985329 127.81171098 -19.63671875 132.85546875 C-24.43425508 136.29770901 -29.15594311 139.83593399 -33.86694336 143.39526367 C-37.57156699 146.19044901 -41.29607144 148.95448819 -45.046875 151.6875 C-46.32896851 152.62348022 -46.32896851 152.62348022 -47.63696289 153.57836914 C-49.29496608 154.7869165 -50.95548073 155.99202851 -52.61889648 157.19311523 C-59.79101789 162.17666749 -59.79101789 162.17666749 -65 169 C-65.10733609 171.26514251 -65.15556993 173.53318712 -65.17578125 175.80078125 C-65.19898561 177.1842599 -65.2231032 178.56772349 -65.24804688 179.95117188 C-65.2831099 182.13022864 -65.31247675 184.30873303 -65.32592773 186.48803711 C-65.34145961 188.5929653 -65.38170149 190.69628202 -65.42578125 192.80078125 C-65.44036377 194.06059814 -65.45494629 195.32041504 -65.4699707 196.6184082 C-66.08552969 200.54568021 -67.23285856 202.20181432 -70 205 C-72.55723229 206.27861615 -74.36737102 206.11336609 -77.2265625 206.09765625 C-78.2578125 206.09443359 -79.2890625 206.09121094 -80.3515625 206.08789062 C-81.43179687 206.07951172 -82.51203125 206.07113281 -83.625 206.0625 C-85.25695312 206.05573242 -85.25695312 206.05573242 -86.921875 206.04882812 C-89.61463789 206.03701776 -92.30729188 206.02054778 -95 206 C-94.21625 205.401875 -93.4325 204.80375 -92.625 204.1875 C-89.85425677 202.08914751 -89.85425677 202.08914751 -88 199 C-87.80650126 196.19500828 -87.72302486 193.48111225 -87.7265625 190.67578125 C-87.70626049 188.99022789 -87.68540947 187.30468107 -87.6640625 185.61914062 C-87.64154157 182.97072847 -87.62502238 180.32257551 -87.61914062 177.67407227 C-87.60955169 175.11166819 -87.57568619 172.55042252 -87.5390625 169.98828125 C-87.54663071 168.817528 -87.54663071 168.817528 -87.55435181 167.62312317 C-87.4375827 161.01573852 -85.44746149 155.85707848 -81.1328125 150.8203125 C-75.63449835 146.17776709 -69.88595081 141.95883442 -64 137.828125 C-59.4934547 134.6590353 -55.05749645 131.39654083 -50.625 128.125 C-49.81498535 127.5273584 -49.0049707 126.9297168 -48.17041016 126.31396484 C-42.45408935 122.08925542 -36.75884669 117.83710961 -31.08544922 113.55493164 C-27.39045052 110.77139069 -23.67019814 108.02782455 -19.921875 105.31640625 C-19.06207031 104.69185547 -18.20226562 104.06730469 -17.31640625 103.42382812 C-15.64605894 102.21238141 -13.97176447 101.00635235 -12.29296875 99.80664062 C-7.32829882 96.19864446 -3.00845306 93.02535917 -1 87 C-0.87981119 84.21697241 -0.81463878 81.45711076 -0.79467773 78.6730957 C-0.78477814 77.82409698 -0.77487854 76.97509827 -0.76467896 76.10037231 C-0.73307417 73.29220373 -0.70831052 70.48401822 -0.68359375 67.67578125 C-0.66302334 65.72950296 -0.64202685 63.78322912 -0.62062073 61.83695984 C-0.56540901 56.71271372 -0.51599573 51.58842735 -0.46777344 46.46411133 C-0.41755187 41.23580337 -0.36186922 36.00755392 -0.30664062 30.77929688 C-0.19907003 20.51957936 -0.09812718 10.25981218 0 0 Z"/>
<path transform="translate(380.120849609375,-0.35009765625)" fill="#E94343" d="M0 0 C1.45589197 -0.01654238 2.91170329 -0.0438107 4.3671875 -0.08203125 C6.47186162 -0.13698358 8.57463546 -0.1586985 10.67993164 -0.17333984 C11.93974854 -0.19315918 13.19956543 -0.21297852 14.49755859 -0.23339844 C18.78025893 0.50558458 20.20910497 1.99472103 22.87915039 5.35009766 C24.04789849 8.85634196 24.00429306 11.99788426 23.97680664 15.64306641 C23.97539169 16.349095 23.97397675 17.0551236 23.97251892 17.782547 C23.96692803 20.03427391 23.95437727 22.28590087 23.94165039 24.53759766 C23.93663421 26.06559101 23.93207151 27.59358593 23.92797852 29.12158203 C23.91696159 32.864459 23.89970326 36.60726139 23.87915039 40.35009766 C24.77408203 40.32254395 25.66901367 40.29499023 26.59106445 40.26660156 C27.76378906 40.2451709 28.93651367 40.22374023 30.14477539 40.20166016 C31.30783203 40.17410645 32.47088867 40.14655273 33.66918945 40.11816406 C36.90962239 40.35229939 38.19077791 40.67271371 40.62915039 42.72509766 C43.71416675 46.3242834 44.2506787 48.4447971 44.1784668 53.22802734 C43.67917767 56.76784882 41.72823297 59.2558813 39.56665039 61.97509766 C39.11805664 62.56991943 38.66946289 63.16474121 38.20727539 63.77758789 C36.78468635 65.65163221 35.3352766 67.50203121 33.87915039 69.35009766 C32.95816501 70.53597536 32.0375856 71.72216846 31.11743164 72.90869141 C29.29835204 75.24343094 27.46488901 77.56589445 25.62133789 79.88134766 C23.76617884 82.21581114 21.94007602 84.56895277 20.13696289 86.94384766 C19.69416992 87.52642334 19.25137695 88.10899902 18.79516602 88.70922852 C17.58367458 90.30767325 16.37581485 91.9088687 15.16821289 93.51025391 C9.50357435 100.53788567 9.50357435 100.53788567 5.87915039 102.35009766 C1.18086346 102.80185602 -1.65071596 102.46234899 -5.52807617 99.72143555 C-8.64507366 97.03777906 -10.95576122 93.71886393 -13.37084961 90.41259766 C-14.51643269 88.87855658 -15.66226849 87.34470419 -16.80834961 85.81103516 C-17.3690918 85.0540332 -17.92983398 84.29703125 -18.50756836 83.51708984 C-20.35885982 81.0303975 -22.24412904 78.57238208 -24.14379883 76.12255859 C-25.35597617 74.55680943 -26.55491624 72.98084121 -27.75366211 71.40478516 C-29.38264489 69.30269847 -31.02440712 67.26157369 -32.73803711 65.23291016 C-37.17328874 59.80283574 -40.46041407 55.72858255 -39.76147461 48.48291016 C-38.74749518 45.10710058 -36.9039329 43.40427818 -34.12084961 41.35009766 C-31.23669078 39.90801824 -28.70363432 40.25614879 -25.49584961 40.28759766 C-24.30733398 40.29662109 -23.11881836 40.30564453 -21.89428711 40.31494141 C-20.97905273 40.32654297 -20.06381836 40.33814453 -19.12084961 40.35009766 C-19.14179688 39.38185059 -19.16274414 38.41360352 -19.18432617 37.41601562 C-19.25703473 33.80435121 -19.30276017 30.19275075 -19.34057617 26.58056641 C-19.36062183 25.02088522 -19.38786618 23.46127853 -19.42260742 21.90185547 C-19.47144087 19.65264452 -19.49388775 17.40443176 -19.51147461 15.15478516 C-19.53211975 14.46391815 -19.55276489 13.77305115 -19.57403564 13.06124878 C-19.57633592 8.0344484 -18.27474561 5.21585628 -15.12084961 1.35009766 C-10.73262548 -0.84401441 -4.87385083 0.04058343 0 0 Z"/>
<path transform="translate(127.1962890625,-0.5009765625)" fill="#F37B7B" d="M0 0 C2.16509793 0.00097046 4.3266267 -0.0406047 6.49121094 -0.08496094 C7.87401608 -0.09016992 9.25683349 -0.0928561 10.63964844 -0.09277344 C11.89310059 -0.09986328 13.14655273 -0.10695312 14.43798828 -0.11425781 C18.6733393 0.65993953 20.11896519 2.21555692 22.80371094 5.50097656 C24.30977608 8.51310686 23.92531425 11.61380278 23.90136719 14.91503906 C23.89995224 15.64467865 23.89853729 16.37431824 23.89707947 17.12606812 C23.89147624 19.45941241 23.87892328 21.7926612 23.86621094 24.12597656 C23.86119635 25.70670434 23.85663337 27.28743363 23.85253906 28.86816406 C23.84150578 32.7458051 23.82423905 36.62337463 23.80371094 40.50097656 C24.69864258 40.47922363 25.59357422 40.4574707 26.515625 40.43505859 C27.68834961 40.41813965 28.86107422 40.4012207 30.06933594 40.38378906 C31.8139209 40.35115967 31.8139209 40.35115967 33.59375 40.31787109 C37.95290067 40.56652967 39.67461103 41.54571553 42.80371094 44.50097656 C44.78555103 48.46465676 44.75640947 52.21665182 43.80371094 56.50097656 C41.30747767 60.61119849 38.33718167 64.18138108 35.21484375 67.82763672 C32.98003494 70.47770239 30.89868246 73.24006764 28.80371094 76.00097656 C27.97896253 77.0744871 27.15343785 78.14740169 26.32714844 79.21972656 C24.58103017 81.48954357 22.83647215 83.76055036 21.09277344 86.03222656 C20.64675781 86.61294922 20.20074219 87.19367188 19.74121094 87.79199219 C18.50390414 89.40306875 17.26707337 91.01451086 16.03027344 92.62597656 C9.21212551 101.42976055 9.21212551 101.42976055 5.80371094 102.50097656 C0.66429466 102.96819622 -2.06594962 102.55936574 -6.19628906 99.50097656 C-8.42970283 97.0002271 -10.40184488 94.32808931 -12.38378906 91.62597656 C-13.53974217 90.08018158 -14.69599497 88.53461067 -15.85253906 86.98925781 C-16.41972656 86.22564941 -16.98691406 85.46204102 -17.57128906 84.67529297 C-19.40831565 82.21727633 -21.28296018 79.79148457 -23.1706543 77.37231445 C-24.78017214 75.30413748 -26.36644406 73.21843518 -27.95068359 71.13085938 C-28.82495444 69.98687032 -29.70682806 68.84867071 -30.59423828 67.71484375 C-32.02197854 65.88629188 -33.42320077 64.03975716 -34.82128906 62.18847656 C-35.25981201 61.63780518 -35.69833496 61.08713379 -36.15014648 60.51977539 C-39.53388195 55.9564767 -39.8035084 52.96595063 -39.19628906 47.50097656 C-37.65655154 44.40387093 -35.32018968 42.06292687 -32.19628906 40.50097656 C-29.98899676 40.43004815 -27.77961454 40.41682631 -25.57128906 40.43847656 C-24.38277344 40.4475 -23.19425781 40.45652344 -21.96972656 40.46582031 C-21.05449219 40.47742187 -20.13925781 40.48902344 -19.19628906 40.50097656 C-19.21199951 39.55778564 -19.22770996 38.61459473 -19.24389648 37.64282227 C-19.29514913 34.12974509 -19.33269897 30.61706758 -19.36108398 27.10375977 C-19.37613259 25.58579218 -19.39657644 24.0678678 -19.42260742 22.55004883 C-19.4591656 20.36300979 -19.47605429 18.1765476 -19.48925781 15.98925781 C-19.50496826 14.67481689 -19.52067871 13.36037598 -19.53686523 12.00610352 C-19.17216819 8.25273038 -18.43993028 6.48429415 -16.19628906 3.50097656 C-15.78169434 2.91251953 -15.36709961 2.3240625 -14.93994141 1.71777344 C-10.92633636 -1.08309572 -4.77993954 -0.01514693 0 0 Z"/>
<path transform="translate(281,306)" fill="#F6A96C" d="M0 0 C11.04617688 3.89523079 17.33353377 13.59113481 22.3203125 23.66796875 C27.03528654 35.3564883 26.96577839 50.72937826 22.25390625 62.40234375 C16.83106607 73.63657652 9.45335758 83.40697798 -2 89 C-3.18529297 89.5878125 -3.18529297 89.5878125 -4.39453125 90.1875 C-16.30487305 95.09476529 -31.63732882 94.92979283 -43.8125 90.9375 C-49.64491377 88.46672805 -54.37118383 85.29752912 -59 81 C-59.65871094 80.40832031 -60.31742188 79.81664062 -60.99609375 79.20703125 C-64.61950233 75.79454874 -67.06421355 72.66866143 -69 68 C-68.25234375 68.20496094 -67.5046875 68.40992188 -66.734375 68.62109375 C-65.74953125 68.89050781 -64.7646875 69.15992188 -63.75 69.4375 C-62.77546875 69.70433594 -61.8009375 69.97117187 -60.796875 70.24609375 C-59.87390625 70.49488281 -58.9509375 70.74367188 -58 71 C-57.37262939 71.17563477 -56.74525879 71.35126953 -56.09887695 71.53222656 C-45.51949151 73.89003772 -32.55766881 73.06086398 -23 68 C-22.13117188 67.55269531 -21.26234375 67.10539062 -20.3671875 66.64453125 C-8.64855428 60.12057574 -0.82688672 50.23978514 2.9375 37.25 C5.32405435 25.83928703 4.79160485 15.43761635 0.875 4.4765625 C0 2 0 2 0 0 Z"/>
<path transform="translate(396.5,257.5)" fill="#F6A96C" d="M0 0 C6.43343696 3.99461772 10.6831167 9.5244735 12.9309082 16.7019043 C14.1276802 22.58616166 13.80147247 28.58650964 13.6875 34.5625 C13.625625 39.161875 13.56375 43.76125 13.5 48.5 C-3.33 48.5 -20.16 48.5 -37.5 48.5 C-37.603125 43.59125 -37.70625 38.6825 -37.8125 33.625 C-37.85802002 32.09762207 -37.90354004 30.57024414 -37.95043945 28.99658203 C-38.04685974 19.47025732 -36.73795207 12.50848881 -30.4375 5.0625 C-29.4784375 4.2890625 -29.4784375 4.2890625 -28.5 3.5 C-27.860625 2.96375 -27.22125 2.4275 -26.5625 1.875 C-19.37961996 -2.9135867 -7.94328753 -3.52688208 0 0 Z"/>
<path transform="translate(139.5,257.5)" fill="#FEBC86" d="M0 0 C6.55992639 4.04457335 11.1235054 10.22113753 13.5 17.5 C13.84057617 21.14038086 13.84057617 21.14038086 13.79296875 24.96484375 C13.78172974 26.82677368 13.78172974 26.82677368 13.77026367 28.72631836 C13.74295166 30.2810083 13.71563965 31.83569824 13.6875 33.4375 C13.625625 38.408125 13.56375 43.37875 13.5 48.5 C-3.33 48.5 -20.16 48.5 -37.5 48.5 C-37.561875 43.900625 -37.62375 39.30125 -37.6875 34.5625 C-37.71481201 33.13043213 -37.74212402 31.69836426 -37.77026367 30.22290039 C-37.83819092 19.75114759 -36.85922464 11.94093488 -29.42578125 4.23046875 C-21.61407953 -2.78897113 -9.74316612 -4.26263518 0 0 Z"/>
</svg>